<svg width="78" height="19" viewBox="0 0 78 19" fill="none" xmlns="http://www.w3.org/2000/svg">
<path d="M0.606297 7.81658C-0.446216 9.93012 3.64068 10.4068 5.33885 11.5792C8.19755 13.5518 11.8531 14.8144 15.7633 15.7871C24.0165 17.8433 32.8872 18.6362 42.4668 17.8216C49.3043 17.2397 55.9611 15.7241 62.1778 12.7354C67.6109 10.123 72.2058 6.93223 75.806 3.11522C76.1779 2.72056 76.4937 2.30442 76.7814 1.88732C76.9565 1.63255 77.1031 1.34596 77.1165 1.09184C77.1279 0.849634 77.1577 0.487499 76.8592 0.40232C76.5607 0.317142 76.095 0.588028 75.7993 0.756471C75.4196 0.97243 75.1164 1.25999 74.8034 1.5289C73.1931 2.91431 71.6243 4.3233 69.9762 5.6891C65.1906 9.65632 59.3313 12.3029 52.5607 13.8281C46.4908 15.1969 40.5175 15.727 34.6356 15.5273C27.5115 15.2855 20.8127 14.3733 14.8382 12.2796C11.1219 10.9773 5.53503 6.99854 5.53503 6.99854C5.53503 6.99854 5.30302 6.77592 5.13641 6.6561C3.65372 5.58989 1.42038 6.18182 0.606297 7.81658Z" fill="#00C681"/>
</svg>
