<svg width="200" height="200" viewBox="0 0 200 200" fill="none" xmlns="http://www.w3.org/2000/svg">
<g clip-path="url(#clip0_2157_8941)">
<path d="M200 100C200 122.527 192.551 143.311 179.984 160.028C177.127 163.832 174.001 167.429 170.636 170.784C169 172.417 167.307 173.996 165.559 175.51C148.009 190.767 125.085 200 100 200C74.9146 200 51.9913 190.767 34.4406 175.51C32.6935 173.996 30.9998 172.417 29.364 170.784C28.2532 169.678 27.1713 168.542 26.1139 167.384C23.967 165.033 21.9299 162.575 20.0165 160.028C7.44934 143.311 0 122.527 0 100C0 44.7708 44.7708 0 100 0C155.229 0 200 44.7708 200 100Z" fill="#69B8D4"/>
<path d="M37.4023 71.582H164.262V175.722H37.4023V71.582Z" fill="#B3B3B3"/>
<path d="M159.679 173.001C157.952 173.045 156.228 173.087 154.5 173.122C148.185 173.264 141.873 173.338 135.557 173.357C133.458 173.366 131.361 173.366 129.262 173.357C122.949 173.338 116.634 173.264 110.317 173.122C108.59 173.088 106.862 173.045 105.135 173.001C105.066 156.96 105.436 133.078 106.243 119.463C106.415 116.557 108.594 114.16 111.472 113.741C125.432 111.696 139.387 111.696 153.345 113.741C156.225 114.16 158.404 116.557 158.576 119.463C159.383 133.078 159.751 156.96 159.679 173.001Z" fill="white"/>
<path d="M129.305 117.383V173.325C122.993 173.306 116.677 173.232 110.362 173.09C110.283 156.706 110.648 133.29 111.447 119.734C111.476 119.272 111.819 118.89 112.265 118.825C117.915 117.996 123.634 117.511 129.305 117.383Z" fill="#564D47"/>
<path d="M154.538 173.09C148.223 173.232 141.911 173.306 135.596 173.325V117.383C141.267 117.511 146.986 117.996 152.636 118.825C153.081 118.89 153.426 119.272 153.454 119.734C154.253 133.29 154.618 156.706 154.538 173.09Z" fill="#564D47"/>
<path d="M140.547 156.058C139.43 156.058 138.525 155.151 138.525 154.036V135.616C138.525 134.499 139.43 133.594 140.547 133.594C141.664 133.594 142.569 134.499 142.569 135.616V154.036C142.569 155.151 141.663 156.058 140.547 156.058Z" fill="#999999"/>
<path d="M124.385 156.058C123.268 156.058 122.363 155.151 122.363 154.036V135.616C122.363 134.499 123.268 133.594 124.385 133.594C125.502 133.594 126.407 134.499 126.407 135.616V154.036C126.407 155.151 125.502 156.058 124.385 156.058Z" fill="#999999"/>
<path d="M93.7611 173.001C92.0338 173.045 90.3111 173.087 88.5838 173.122C82.2667 173.264 75.9541 173.338 69.6385 173.357C67.5389 173.366 65.4423 173.366 63.3427 173.357C57.0302 173.338 50.7146 173.264 44.3989 173.122C42.6716 173.088 40.9444 173.045 39.2171 173.001C39.1484 156.96 39.5177 133.078 40.3233 119.463C40.4957 116.557 42.6747 114.16 45.554 113.741C59.5128 111.696 73.4685 111.696 87.4287 113.741C90.3081 114.16 92.4855 116.557 92.6594 119.463C93.4651 133.078 93.8344 156.96 93.7611 173.001Z" fill="white"/>
<path d="M63.388 117.383V173.325C57.0755 173.306 50.7598 173.232 44.4442 173.09C44.3649 156.706 44.7296 133.29 45.5307 119.734C45.5581 119.272 45.903 118.89 46.347 118.825C51.9973 117.996 57.7179 117.511 63.388 117.383Z" fill="#564D47"/>
<path d="M88.6223 173.09C82.3054 173.232 75.9931 173.306 69.6777 173.325V117.383C75.3492 117.511 81.068 117.996 86.7196 118.825C87.1636 118.89 87.5084 119.272 87.5359 119.734C88.3354 133.29 88.7016 156.706 88.6223 173.09Z" fill="#564D47"/>
<path d="M74.6292 156.058C73.5123 156.058 72.6074 155.151 72.6074 154.036V135.616C72.6074 134.499 73.5138 133.594 74.6292 133.594C75.7462 133.594 76.651 134.499 76.651 135.616V154.036C76.651 155.151 75.7462 156.058 74.6292 156.058Z" fill="#999999"/>
<path d="M58.4167 156.058C57.3013 156.058 56.3965 155.151 56.3965 154.036V135.616C56.3965 134.499 57.3013 133.594 58.4167 133.594C59.5337 133.594 60.4385 134.499 60.4385 135.616V154.036C60.4385 155.151 59.5337 156.058 58.4167 156.058Z" fill="#999999"/>
<path d="M186.977 50.4333V76.9028H12.6465V50.4333L100.409 6.15234L186.977 50.4333Z" fill="#E6E6E6"/>
<path d="M186.977 53.27V67.099L99.9969 21.4371L12.6465 67.2943V53.4668L97.1481 9.09882C98.9319 8.16498 101.057 8.16498 102.841 9.09882L186.977 53.27Z" fill="#CCCCCC"/>
<path d="M46.8433 161.373C43.4513 163.916 40.0639 165.459 36.6764 166.01C31.4274 166.858 26.1784 165.312 20.9248 161.373C18.9365 133.18 18.9365 117.233 20.9248 89.0459C26.1784 85.103 31.4274 83.5558 36.6764 84.4057C40.0639 84.9565 43.4513 86.5038 46.8433 89.0459C48.827 117.233 48.827 133.18 46.8433 161.373Z" fill="#CCCCCC"/>
<path d="M46.8719 161.44C43.4799 163.983 40.0925 165.526 36.705 166.077C33.316 165.526 29.9286 163.983 26.5366 161.44C24.5529 133.247 24.5529 117.3 26.5366 89.1129C29.9286 86.5707 33.316 85.0235 36.705 84.4727C40.0925 85.0235 43.4799 86.5707 46.8719 89.1129C48.8556 117.3 48.8556 133.247 46.8719 161.44Z" fill="#E6E6E6"/>
<path d="M42.9611 157.17C41.8594 157.17 40.9668 156.276 40.9668 155.174V97.2092C40.9668 96.1075 41.8594 95.2148 42.9611 95.2148C44.0628 95.2148 44.9554 96.1075 44.9554 97.2092V155.174C44.9554 156.276 44.0628 157.17 42.9611 157.17Z" fill="#CCCCCC"/>
<path d="M36.0764 157.17C34.9762 157.17 34.082 156.276 34.082 155.174V97.2092C34.082 96.1075 34.9762 95.2148 36.0764 95.2148C37.178 95.2148 38.0722 96.1075 38.0722 97.2092V155.174C38.0722 156.276 37.178 157.17 36.0764 157.17Z" fill="#CCCCCC"/>
<path d="M28.508 157.17C27.4063 157.17 26.5137 156.276 26.5137 155.174V97.2092C26.5137 96.1075 27.4063 95.2148 28.508 95.2148C29.6097 95.2148 30.5038 96.1075 30.5038 97.2092V155.174C30.5038 156.276 29.6097 157.17 28.508 157.17Z" fill="#D8D8D8"/>
<path d="M52.8336 76.6602V86.6241C52.8336 89.7141 50.3281 92.2195 47.2336 92.2195H20.932C17.8375 92.2195 15.332 89.7141 15.332 86.6241V76.6602H52.8336Z" fill="#CCCCCC"/>
<path d="M52.8534 76.6602V86.6241C52.8534 89.7141 50.3479 92.2195 47.2534 92.2195H31.723C28.6285 92.2195 26.123 89.7141 26.123 86.6241V76.6602H52.8534Z" fill="#E6E6E6"/>
<path d="M52.8473 165.556V175.519H34.4437C32.6965 174.005 31.0028 172.426 29.3671 170.793C26.0025 167.438 22.876 163.841 20.0195 160.037C20.3217 159.985 20.6314 159.961 20.9457 159.961H47.2473C50.3418 159.961 52.8473 162.466 52.8473 165.556Z" fill="#CCCCCC"/>
<path d="M52.8534 165.556V175.519H34.4498C32.7026 174.005 31.0089 172.426 29.3732 170.793C28.2623 169.687 27.1805 168.552 26.123 167.393V165.556C26.123 162.466 28.6301 159.961 31.723 159.961H47.2534C50.3479 159.961 52.8534 162.466 52.8534 165.556Z" fill="#E6E6E6"/>
<path d="M112.76 161.373C109.369 163.916 105.98 165.459 102.593 166.01C97.3438 166.858 92.0948 165.312 86.8427 161.373C84.8545 133.18 84.8545 117.233 86.8427 89.0459C92.0948 85.103 97.3438 83.5558 102.593 84.4057C105.98 84.9565 109.369 86.5038 112.76 89.0459C114.743 117.233 114.743 133.18 112.76 161.373Z" fill="#CCCCCC"/>
<path d="M112.788 161.44C109.398 163.983 106.009 165.526 102.621 166.077C99.234 165.526 95.8466 163.983 92.4545 161.44C90.4709 133.247 90.4709 117.3 92.4545 89.1129C95.8466 86.5707 99.234 85.0235 102.621 84.4727C106.009 85.0235 109.398 86.5707 112.788 89.1129C114.772 117.3 114.772 133.247 112.788 161.44Z" fill="#E6E6E6"/>
<path d="M108.881 157.17C107.779 157.17 106.885 156.276 106.885 155.174V97.2092C106.885 96.1075 107.779 95.2148 108.881 95.2148C109.982 95.2148 110.875 96.1075 110.875 97.2092V155.174C110.875 156.276 109.982 157.17 108.881 157.17Z" fill="#CCCCCC"/>
<path d="M101.945 157.17C100.844 157.17 99.9512 156.276 99.9512 155.174V97.2092C99.9512 96.1075 100.844 95.2148 101.945 95.2148C103.047 95.2148 103.94 96.1075 103.94 97.2092V155.174C103.94 156.276 103.047 157.17 101.945 157.17Z" fill="#CCCCCC"/>
<path d="M94.426 157.17C93.3243 157.17 92.4316 156.276 92.4316 155.174V97.2092C92.4316 96.1075 93.3243 95.2148 94.426 95.2148C95.5276 95.2148 96.4203 96.1075 96.4203 97.2092V155.174C96.4203 156.276 95.5276 157.17 94.426 157.17Z" fill="#D8D8D8"/>
<path d="M118.752 76.6602V86.6241C118.752 89.7141 116.245 92.2195 113.152 92.2195H86.85C83.7555 92.2195 81.25 89.7141 81.25 86.6241V76.6602H118.752Z" fill="#CCCCCC"/>
<path d="M118.771 76.6602V86.6241C118.771 89.7141 116.264 92.2195 113.171 92.2195H97.641C94.5465 92.2195 92.041 89.7141 92.041 86.6241V76.6602H118.771Z" fill="#E6E6E6"/>
<path d="M118.752 175.52V165.558C118.752 162.468 116.245 159.961 113.152 159.961H86.85C83.7555 159.961 81.25 162.468 81.25 165.558V175.52H118.752Z" fill="#CCCCCC"/>
<path d="M118.771 175.52V165.558C118.771 162.468 116.264 159.961 113.171 159.961H97.641C94.5465 159.961 92.041 162.468 92.041 165.558V175.52H118.771Z" fill="#E6E6E6"/>
<path d="M178.679 161.373C175.287 163.916 171.9 165.459 168.512 166.01C163.263 166.858 158.014 165.312 152.761 161.373C150.772 133.18 150.772 117.233 152.761 89.0459C158.014 85.103 163.263 83.5558 168.512 84.4057C171.9 84.9565 175.287 86.5038 178.679 89.0459C180.663 117.233 180.663 133.18 178.679 161.373Z" fill="#CCCCCC"/>
<path d="M178.659 161.44C175.267 163.983 171.88 165.526 168.492 166.077C165.103 165.526 161.716 163.983 158.324 161.44C156.34 133.247 156.34 117.3 158.324 89.1129C161.716 86.5707 165.103 85.0235 168.492 84.4727C171.88 85.0235 175.267 86.5707 178.659 89.1129C180.643 117.3 180.643 133.247 178.659 161.44Z" fill="#E6E6E6"/>
<path d="M174.797 157.17C173.695 157.17 172.803 156.276 172.803 155.174V97.2092C172.803 96.1075 173.695 95.2148 174.797 95.2148C175.899 95.2148 176.793 96.1075 176.793 97.2092V155.174C176.793 156.276 175.899 157.17 174.797 157.17Z" fill="#CCCCCC"/>
<path d="M167.865 157.17C166.763 157.17 165.869 156.276 165.869 155.174V97.2092C165.869 96.1075 166.763 95.2148 167.865 95.2148C168.967 95.2148 169.859 96.1075 169.859 97.2092V155.174C169.859 156.276 168.965 157.17 167.865 157.17Z" fill="#CCCCCC"/>
<path d="M160.297 157.17C159.195 157.17 158.301 156.276 158.301 155.174V97.2092C158.301 96.1075 159.195 95.2148 160.297 95.2148C161.398 95.2148 162.291 96.1075 162.291 97.2092V155.174C162.291 156.276 161.398 157.17 160.297 157.17Z" fill="#D8D8D8"/>
<path d="M184.669 76.6602V86.6241C184.669 89.7141 182.164 92.2195 179.07 92.2195H152.768C149.673 92.2195 147.168 89.7141 147.168 86.6241V76.6602H184.669Z" fill="#CCCCCC"/>
<path d="M184.641 76.6602V86.6241C184.641 89.7141 182.135 92.2195 179.041 92.2195H163.51C160.417 92.2195 157.91 89.7141 157.91 86.6241V76.6602H184.641Z" fill="#E6E6E6"/>
<path d="M179.996 160.037C177.139 163.841 174.013 167.438 170.648 170.793C169.012 172.426 167.319 174.005 165.572 175.519H147.168V165.556C147.168 162.466 149.673 159.961 152.768 159.961H179.07C179.384 159.961 179.694 159.985 179.996 160.037Z" fill="#CCCCCC"/>
<path d="M179.967 160.037C177.11 163.841 173.984 167.438 170.619 170.793C168.983 172.426 167.29 174.005 165.543 175.519H157.91V165.556C157.91 162.466 160.416 159.961 163.51 159.961H179.041C179.355 159.961 179.665 159.985 179.967 160.037Z" fill="#E6E6E6"/>
<path d="M185.531 57.925L100.033 13.0383L14.5366 57.925C11.5413 59.4967 7.84105 58.3447 6.2694 55.3509C4.69774 52.3571 5.84978 48.6553 8.84356 47.0837L97.1874 0.701523C98.9696 -0.233841 101.098 -0.233841 102.879 0.701523L191.223 47.0837C194.216 48.6553 195.37 52.3571 193.797 55.3509C192.227 58.3447 188.525 59.4967 185.531 57.925Z" fill="#E6E6E6"/>
<path d="M12.6465 68.3594H186.977V76.8982H12.6465V68.3594Z" fill="#CCCCCC"/>
<path d="M187.567 71.582H12.0514C8.95538 71.582 6.44531 74.0906 6.44531 77.1866C6.44531 80.2826 8.95538 82.7927 12.0514 82.7927H187.567C190.663 82.7927 193.173 80.2826 193.173 77.1866C193.173 74.0906 190.663 71.582 187.567 71.582Z" fill="#E6E6E6"/>
<path d="M52.9785 40.9744C52.9785 39.7003 54.332 39.0625 55.687 39.0625H63.8535C67.8375 39.0625 71.8216 40.4968 71.8216 46.1533C71.8216 49.379 70.546 51.4908 68.4341 52.4078C70.8649 53.3234 72.5388 54.7974 72.5388 58.7814V59.6176C72.5388 65.9103 69.0323 68.1824 64.5309 68.1824H55.6885C54.0146 68.1824 52.9785 67.305 52.9785 66.3101V40.9744ZM59.1537 50.0183H63.3362C64.8499 50.0183 65.6067 48.6237 65.6067 47.2687C65.6067 45.874 64.8499 44.4809 63.3362 44.4809H59.1537V50.0183ZM63.1363 62.764C65.1276 62.764 66.3239 61.6486 66.3239 59.1003V58.4625C66.3239 55.7541 65.1276 54.7974 63.1363 54.7974H59.1522V62.764H63.1363Z" fill="#564D47"/>
<path d="M74.5605 65.6754C74.5605 65.5563 74.6002 65.3961 74.6399 65.2374L82.0496 40.9378C82.4875 39.5432 84.2789 38.8672 86.1115 38.8672C87.944 38.8672 89.7369 39.5432 90.1749 40.9378L97.6242 65.2374C97.6639 65.3961 97.7036 65.5563 97.7036 65.6754C97.7036 67.1494 95.433 68.2251 93.721 68.2251C92.7246 68.2251 91.9266 67.9062 91.6885 67.07L90.3336 62.0895H81.929L80.574 67.07C80.336 67.9062 79.5395 68.2251 78.5431 68.2251C76.8311 68.2251 74.5605 67.1494 74.5605 65.6754ZM89.0198 57.3105L86.113 46.6339L83.2047 57.3105H89.0198Z" fill="#564D47"/>
<path d="M114.612 66.5085L107.043 52.7267V66.2704C107.043 67.5446 105.49 68.1824 103.937 68.1824C102.383 68.1824 100.83 67.5446 100.83 66.2704V40.9744C100.83 39.6606 102.383 39.0625 103.937 39.0625C106.168 39.0625 107.004 39.2624 108.517 42.1707L114.972 54.48V40.9363C114.972 39.621 116.525 39.064 118.079 39.064C119.632 39.064 121.185 39.621 121.185 40.9363V66.2704C121.185 67.5446 119.632 68.1824 118.079 68.1824C116.644 68.1824 115.37 67.9031 114.612 66.5085Z" fill="#564D47"/>
<path d="M126.27 40.9348C126.27 39.621 127.823 39.0625 129.376 39.0625C130.93 39.0625 132.483 39.621 132.483 40.9348V50.4959L139.932 39.9399C140.37 39.3021 140.929 39.0625 141.566 39.0625C143.159 39.0625 145.23 40.6967 145.23 42.2501C145.23 42.569 145.151 43.0069 144.832 43.4448L138.3 51.651L146.545 64.2792C146.744 64.5966 146.863 64.9551 146.863 65.3137C146.863 66.8671 144.911 68.4219 143.118 68.4219C142.282 68.4219 141.486 68.103 140.968 67.2668L134.155 56.9092L132.483 59.0607V66.2704C132.483 67.5461 130.93 68.1824 129.376 68.1824C127.823 68.1824 126.27 67.5461 126.27 66.2704V40.9348Z" fill="#564D47"/>
<path d="M170.618 170.801C166.789 174.622 162.656 178.131 158.255 181.29C153.125 184.981 147.627 188.193 141.835 190.866C129.105 196.739 114.925 200.017 99.9817 200.017C85.0388 200.017 70.8588 196.739 58.1284 190.866C52.3361 188.193 46.8384 184.981 41.7084 181.29C37.3077 178.131 33.1741 174.622 29.3457 170.801H170.618Z" fill="#CCCCCC"/>
<path d="M158.295 181.25C153.165 184.941 147.667 188.153 141.875 190.826H58.168C52.3758 188.153 46.8781 184.941 41.748 181.25H158.295Z" fill="#E6E6E6"/>
</g>
<defs>
<clipPath id="clip0_2157_8941">
<rect width="200" height="200" fill="white"/>
</clipPath>
</defs>
</svg>
