<svg width="20" height="20" viewBox="0 0 20 20" fill="none" xmlns="http://www.w3.org/2000/svg">
<path d="M8.67978 7.42578H7.10791V17.4211H8.67978V7.42578Z" fill="#FEC93E"/>
<path d="M8.94955 9.05781H6.83885C6.68326 9.05781 6.55713 8.93168 6.55713 8.77609V7.81934H9.23126V8.77609C9.23126 8.93172 9.10513 9.05781 8.94955 9.05781Z" fill="#F7A738"/>
<path d="M9.23126 17.05H6.55713V16.0932C6.55713 15.9377 6.68326 15.8115 6.83885 15.8115H8.94955C9.10513 15.8115 9.23126 15.9377 9.23126 16.0932V17.05Z" fill="#F7A738"/>
<path d="M12.8917 7.42578H11.3198V17.4211H12.8917V7.42578Z" fill="#FEC93E"/>
<path d="M13.161 9.05781H11.0503C10.8947 9.05781 10.7686 8.93168 10.7686 8.77609V7.81934H13.4427V8.77609C13.4427 8.93172 13.3166 9.05781 13.161 9.05781Z" fill="#F7A738"/>
<path d="M13.4427 17.05H10.7686V16.0932C10.7686 15.9377 10.8947 15.8115 11.0503 15.8115H13.161C13.3166 15.8115 13.4427 15.9377 13.4427 16.0932V17.05Z" fill="#F7A738"/>
<path d="M17.1036 7.42578H15.5317V17.4211H17.1036V7.42578Z" fill="#FEC93E"/>
<path d="M17.3729 9.05781H15.2622C15.1066 9.05781 14.9805 8.93168 14.9805 8.77609V7.81934H17.6546V8.77609C17.6546 8.93172 17.5285 9.05781 17.3729 9.05781Z" fill="#F7A738"/>
<path d="M17.6546 17.05H14.9805V16.0932C14.9805 15.9377 15.1066 15.8115 15.2622 15.8115H17.3729C17.5285 15.8115 17.6546 15.9377 17.6546 16.0932V17.05Z" fill="#F7A738"/>
<path d="M4.46836 7.42578H2.89648V17.4211H4.46836V7.42578Z" fill="#FEC93E"/>
<path d="M4.73767 9.05781H2.62693C2.47135 9.05781 2.34521 8.93168 2.34521 8.77609V7.81934H5.01935V8.77609C5.01935 8.93172 4.89326 9.05781 4.73767 9.05781Z" fill="#F7A738"/>
<path d="M5.01935 17.05H2.34521V16.0932C2.34521 15.9377 2.47135 15.8115 2.62693 15.8115H4.73763C4.89322 15.8115 5.01935 15.9377 5.01935 16.0932V17.05Z" fill="#F7A738"/>
<path d="M18.7931 7.82097H1.20703C1.05492 7.82097 0.931641 7.69765 0.931641 7.54558V6.36914C0.931641 6.21703 1.05496 6.09375 1.20703 6.09375H18.7931C18.9452 6.09375 19.0684 6.21707 19.0684 6.36914V7.54558C19.0685 7.69765 18.9452 7.82097 18.7931 7.82097Z" fill="#FEC93E"/>
<path d="M18.7931 6.09375H16.8921V7.82101H18.7931C18.9452 7.82101 19.0685 7.69769 19.0685 7.54562V6.36918C19.0685 6.21707 18.9452 6.09375 18.7931 6.09375Z" fill="#EFB635"/>
<path d="M19.24 18.2489H0.760254V17.472C0.760254 17.2393 0.948808 17.0508 1.18143 17.0508H18.8189C19.0515 17.0508 19.24 17.2393 19.24 17.472V18.2489H19.24Z" fill="#FEC93E"/>
<path d="M18.8183 17.0508H17.063V18.2489H19.2394V17.472C19.2394 17.2393 19.0509 17.0508 18.8183 17.0508Z" fill="#EFB635"/>
<path d="M19.8553 19.4471H0.144687C0.0647655 19.4471 0 19.3823 0 19.3025V18.6702C0 18.4376 0.188554 18.249 0.421171 18.249H19.5788C19.8114 18.249 20 18.4376 20 18.6702V19.3025C20 19.3824 19.9352 19.4471 19.8553 19.4471Z" fill="#F7A738"/>
<path d="M19.5787 18.249H17.8335V19.4471H19.8551C19.9351 19.4471 19.9998 19.3823 19.9998 19.3024V18.6702C19.9999 18.4376 19.8113 18.249 19.5787 18.249Z" fill="#E8932E"/>
<path d="M10.0103 0.588023L0.112207 5.7802C0.0573241 5.80899 0.0229492 5.86583 0.0229492 5.92778V6.45946C0.0229492 6.55149 0.0975585 6.6261 0.18959 6.6261H19.8099C19.9019 6.6261 19.9765 6.55149 19.9765 6.45946V5.92633C19.9765 5.86512 19.943 5.80883 19.8891 5.77973L10.2921 0.589781C10.2043 0.54232 10.0987 0.541656 10.0103 0.588023Z" fill="#F7A738"/>
<path d="M19.8895 5.77878L10.2924 0.588825C10.2047 0.541364 10.099 0.540661 10.0106 0.587028L8.29443 1.48726L17.7952 6.62514H19.8102C19.9022 6.62514 19.9768 6.55053 19.9768 6.45846V5.92534C19.9768 5.86417 19.9433 5.80788 19.8895 5.77878Z" fill="#E8932E"/>
</svg>
