<svg width="57" height="62" viewBox="0 0 57 62" fill="none" xmlns="http://www.w3.org/2000/svg">
<path d="M27.3365 51.0671H4.07348C1.82506 51.0671 0.00244141 49.2444 0.00244141 46.9961V42.9248H31.247L27.3365 51.0671Z" fill="#D3DCFB"/>
<path d="M52.932 18.4994V35.6029V46.9976H4.07348C1.82506 46.9976 0.00244141 45.1749 0.00244141 42.9265V18.4994L28.5028 8.32129L52.932 18.4994Z" fill="#EBF5FC"/>
<path d="M7.19022 26.6415H5.02743C4.50048 26.6415 4.07324 26.2142 4.07324 25.6873V23.5245C4.07324 22.9976 4.50048 22.5703 5.02743 22.5703H7.19022C7.71717 22.5703 8.14441 22.9976 8.14441 23.5245V25.6873C8.14441 26.2142 7.71717 26.6415 7.19022 26.6415Z" fill="#3C58A0"/>
<path d="M15.3333 26.6395H13.1705C12.6435 26.6395 12.2163 26.2123 12.2163 25.6853V23.5225C12.2163 22.9956 12.6435 22.5684 13.1705 22.5684H15.3333C15.8602 22.5684 16.2875 22.9956 16.2875 23.5225V25.6853C16.2875 26.2123 15.8602 26.6395 15.3333 26.6395Z" fill="#3C58A0"/>
<path d="M23.4739 26.6395H21.3111C20.7842 26.6395 20.3569 26.2123 20.3569 25.6853V23.5225C20.3569 22.9956 20.7842 22.5684 21.3111 22.5684H23.4739C24.0009 22.5684 24.4281 22.9956 24.4281 23.5225V25.6853C24.4281 26.2123 24.001 26.6395 23.4739 26.6395Z" fill="#3C58A0"/>
<path d="M31.6194 26.6395H29.4566C28.9297 26.6395 28.5024 26.2123 28.5024 25.6853V23.5225C28.5024 22.9956 28.9297 22.5684 29.4566 22.5684H31.6194C32.1464 22.5684 32.5736 22.9956 32.5736 23.5225V25.6853C32.5736 26.2123 32.1464 26.6395 31.6194 26.6395Z" fill="#3C58A0"/>
<path d="M39.7591 26.6395H37.5963C37.0693 26.6395 36.6421 26.2123 36.6421 25.6853V23.5225C36.6421 22.9956 37.0693 22.5684 37.5963 22.5684H39.7591C40.286 22.5684 40.7132 22.9956 40.7132 23.5225V25.6853C40.7132 26.2123 40.2861 26.6395 39.7591 26.6395Z" fill="#3C58A0"/>
<path d="M47.9002 26.6395H45.7374C45.2104 26.6395 44.7832 26.2123 44.7832 25.6853V23.5225C44.7832 22.9956 45.2104 22.5684 45.7374 22.5684H47.9002C48.4271 22.5684 48.8544 22.9956 48.8544 23.5225V25.6853C48.8544 26.2123 48.4271 26.6395 47.9002 26.6395Z" fill="#3C58A0"/>
<path d="M7.19022 34.7831H5.02743C4.50048 34.7831 4.07324 34.3558 4.07324 33.8289V31.6661C4.07324 31.1392 4.50048 30.7119 5.02743 30.7119H7.19022C7.71717 30.7119 8.14441 31.1392 8.14441 31.6661V33.8289C8.14441 34.356 7.71717 34.7831 7.19022 34.7831Z" fill="#3C58A0"/>
<path d="M15.3333 34.7831H13.1705C12.6435 34.7831 12.2163 34.3558 12.2163 33.8289V31.6661C12.2163 31.1392 12.6435 30.7119 13.1705 30.7119H15.3333C15.8602 30.7119 16.2875 31.1392 16.2875 31.6661V33.8289C16.2875 34.356 15.8602 34.7831 15.3333 34.7831Z" fill="#3C58A0"/>
<path d="M23.4739 34.7831H21.3111C20.7842 34.7831 20.3569 34.3558 20.3569 33.8289V31.6661C20.3569 31.1392 20.7842 30.7119 21.3111 30.7119H23.4739C24.0009 30.7119 24.4281 31.1392 24.4281 31.6661V33.8289C24.4281 34.356 24.001 34.7831 23.4739 34.7831Z" fill="#3C58A0"/>
<path d="M32.5736 34.7831V31.7297C32.5736 31.1675 32.118 30.7119 31.5558 30.7119H29.5202C28.9581 30.7119 28.5024 31.1675 28.5024 31.7297V33.7653C28.5024 34.3275 28.9582 34.7831 29.5202 34.7831H32.5736Z" fill="#3C58A0"/>
<path d="M7.19022 42.9247H5.02743C4.50048 42.9247 4.07324 42.4974 4.07324 41.9705V39.8077C4.07324 39.2808 4.50048 38.8535 5.02743 38.8535H7.19022C7.71717 38.8535 8.14441 39.2808 8.14441 39.8077V41.9705C8.14441 42.4974 7.71717 42.9247 7.19022 42.9247Z" fill="#3C58A0"/>
<path d="M15.3333 42.9247H13.1705C12.6435 42.9247 12.2163 42.4974 12.2163 41.9705V39.8077C12.2163 39.2808 12.6435 38.8535 13.1705 38.8535H15.3333C15.8602 38.8535 16.2875 39.2808 16.2875 39.8077V41.9705C16.2875 42.4974 15.8602 42.9247 15.3333 42.9247Z" fill="#3C58A0"/>
<path d="M23.4739 42.9247H21.3111C20.7842 42.9247 20.3569 42.4974 20.3569 41.9705V39.8077C20.3569 39.2808 20.7842 38.8535 21.3111 38.8535H23.4739C24.0009 38.8535 24.4281 39.2808 24.4281 39.8077V41.9705C24.4281 42.4974 24.001 42.9247 23.4739 42.9247Z" fill="#3C58A0"/>
<path d="M47.8719 22.5684H45.7667C45.6393 22.5684 45.518 22.5934 45.4062 22.6374C45.7706 22.7813 46.0287 23.1357 46.0287 23.5513V25.6565C46.0287 26.072 45.7705 26.4265 45.4062 26.5703C45.518 26.6145 45.6393 26.6395 45.7667 26.6395H47.8719C48.4148 26.6395 48.8549 26.1994 48.8549 25.6566V23.5514C48.8548 23.0085 48.4147 22.5684 47.8719 22.5684Z" fill="#2A428C"/>
<path d="M39.7283 22.5684H37.6231C37.4958 22.5684 37.3745 22.5934 37.2627 22.6374C37.6271 22.7813 37.8852 23.1357 37.8852 23.5513V25.6565C37.8852 26.072 37.627 26.4265 37.2627 26.5703C37.3745 26.6145 37.4958 26.6395 37.6231 26.6395H39.7283C40.2713 26.6395 40.7113 26.1994 40.7113 25.6566V23.5514C40.7113 23.0085 40.2713 22.5684 39.7283 22.5684Z" fill="#2A428C"/>
<path d="M31.5882 22.5684H29.483C29.3556 22.5684 29.2343 22.5934 29.1226 22.6374C29.4869 22.7813 29.7452 23.1357 29.7452 23.5513V25.6565C29.7452 26.072 29.4869 26.4265 29.1226 26.5703C29.2343 26.6145 29.3556 26.6395 29.483 26.6395H31.5882C32.1311 26.6395 32.5712 26.1994 32.5712 25.6566V23.5514C32.5711 23.0085 32.131 22.5684 31.5882 22.5684Z" fill="#2A428C"/>
<path d="M23.4446 22.5684H21.3394C21.2121 22.5684 21.0908 22.5934 20.979 22.6374C21.3434 22.7813 21.6016 23.1357 21.6016 23.5513V25.6565C21.6016 26.072 21.3434 26.4265 20.979 26.5703C21.0908 26.6145 21.2121 26.6395 21.3394 26.6395H23.4446C23.9876 26.6395 24.4277 26.1994 24.4277 25.6566V23.5514C24.4276 23.0085 23.9876 22.5684 23.4446 22.5684Z" fill="#2A428C"/>
<path d="M15.303 22.5684H13.1978C13.0705 22.5684 12.9492 22.5934 12.8374 22.6374C13.2018 22.7813 13.4599 23.1357 13.4599 23.5513V25.6565C13.4599 26.072 13.2017 26.4265 12.8374 26.5703C12.9492 26.6145 13.0705 26.6395 13.1978 26.6395H15.303C15.8459 26.6395 16.2861 26.1994 16.2861 25.6566V23.5514C16.2861 23.0085 15.8459 22.5684 15.303 22.5684Z" fill="#2A428C"/>
<path d="M7.15946 22.5684H5.05429C4.92691 22.5684 4.80561 22.5934 4.69385 22.6374C5.05823 22.7813 5.31645 23.1357 5.31645 23.5513V25.6565C5.31645 26.072 5.05823 26.4265 4.69385 26.5703C4.80561 26.6145 4.92691 26.6395 5.05429 26.6395H7.15946C7.70239 26.6395 8.14251 26.1994 8.14251 25.6566V23.5514C8.14239 23.0085 7.70227 22.5684 7.15946 22.5684Z" fill="#2A428C"/>
<path d="M7.15946 30.7109H5.05429C4.92691 30.7109 4.80561 30.736 4.69385 30.78C5.05823 30.9238 5.31645 31.2783 5.31645 31.6939V33.7992C5.31645 34.2147 5.05823 34.5692 4.69385 34.713C4.80561 34.7572 4.92691 34.7822 5.05429 34.7822H7.15946C7.70239 34.7822 8.14251 34.3421 8.14251 33.7993V31.694C8.14239 31.1511 7.70227 30.7109 7.15946 30.7109Z" fill="#2A428C"/>
<path d="M7.15946 38.8545H5.05429C4.92691 38.8545 4.80561 38.8795 4.69385 38.9236C5.05823 39.0674 5.31645 39.4219 5.31645 39.8374V41.9427C5.31645 42.3583 5.05823 42.7128 4.69385 42.8566C4.80561 42.9007 4.92691 42.9258 5.05429 42.9258H7.15946C7.70239 42.9258 8.14251 42.4857 8.14251 41.9428V39.8375C8.14239 39.2945 7.70227 38.8545 7.15946 38.8545Z" fill="#2A428C"/>
<path d="M15.303 30.7109H13.1978C13.0705 30.7109 12.9492 30.736 12.8374 30.78C13.2018 30.9238 13.4599 31.2783 13.4599 31.6939V33.7992C13.4599 34.2147 13.2017 34.5692 12.8374 34.713C12.9492 34.7572 13.0705 34.7822 13.1978 34.7822H15.303C15.8459 34.7822 16.2861 34.3421 16.2861 33.7993V31.694C16.2861 31.1511 15.8459 30.7109 15.303 30.7109Z" fill="#2A428C"/>
<path d="M15.303 38.8545H13.1978C13.0705 38.8545 12.9492 38.8795 12.8374 38.9236C13.2018 39.0674 13.4599 39.4219 13.4599 39.8374V41.9427C13.4599 42.3583 13.2017 42.7128 12.8374 42.8566C12.9492 42.9007 13.0705 42.9258 13.1978 42.9258H15.303C15.8459 42.9258 16.2861 42.4857 16.2861 41.9428V39.8375C16.2861 39.2945 15.8459 38.8545 15.303 38.8545Z" fill="#2A428C"/>
<path d="M23.4446 30.7109H21.3394C21.2121 30.7109 21.0908 30.736 20.979 30.78C21.3434 30.9238 21.6016 31.2783 21.6016 31.6939V33.7992C21.6016 34.2147 21.3434 34.5692 20.979 34.713C21.0908 34.7572 21.2121 34.7822 21.3394 34.7822H23.4446C23.9876 34.7822 24.4277 34.3421 24.4277 33.7993V31.694C24.4276 31.1511 23.9876 30.7109 23.4446 30.7109Z" fill="#2A428C"/>
<path d="M32.5712 34.7821V31.6939C32.5712 31.1509 32.1311 30.7109 31.5882 30.7109H29.483C29.3556 30.7109 29.2343 30.736 29.1226 30.78C29.4869 30.9238 29.7452 31.2783 29.7452 31.6939V33.7992C29.7452 34.2147 29.4869 34.5692 29.1226 34.713C29.2343 34.7572 29.3556 34.7822 29.483 34.7822H32.5712V34.7821Z" fill="#2A428C"/>
<path d="M23.4446 38.8545H21.3394C21.2121 38.8545 21.0908 38.8795 20.979 38.9236C21.3434 39.0674 21.6016 39.4219 21.6016 39.8374V41.9427C21.6016 42.3583 21.3434 42.7128 20.979 42.8566C21.0908 42.9007 21.2121 42.9258 21.3394 42.9258H23.4446C23.9876 42.9258 24.4277 42.4857 24.4277 41.9428V39.8375C24.4276 39.2945 23.9876 38.8545 23.4446 38.8545Z" fill="#2A428C"/>
<path d="M50.1021 17.3203V35.6022V46.997H52.9301V35.6022V18.4986L50.1021 17.3203Z" fill="#D3DCFB"/>
<path d="M52.932 18.5001V8.32202C52.932 6.07359 51.1092 4.25098 48.8609 4.25098H4.07348C1.82506 4.25098 0.00244141 6.07359 0.00244141 8.32202V18.5001H52.932Z" fill="#FF3333"/>
<path d="M12.8273 9.24145H10.1774C9.66831 9.24145 9.25586 8.82888 9.25586 8.31994C9.25586 7.811 9.66843 7.39844 10.1774 7.39844H12.8273C13.3363 7.39844 13.7488 7.811 13.7488 8.31994C13.7488 8.82888 13.3362 9.24145 12.8273 9.24145Z" fill="#D80000"/>
<path d="M19.3385 9.24145H16.6886C16.1795 9.24145 15.7671 8.82888 15.7671 8.31994C15.7671 7.811 16.1797 7.39844 16.6886 7.39844H19.3385C19.8476 7.39844 20.26 7.811 20.26 8.31994C20.26 8.82888 19.8476 9.24145 19.3385 9.24145Z" fill="#D80000"/>
<path d="M36.238 9.24145H33.588C33.079 9.24145 32.6665 8.82888 32.6665 8.31994C32.6665 7.811 33.0791 7.39844 33.588 7.39844H36.238C36.7471 7.39844 37.1595 7.811 37.1595 8.31994C37.1595 8.82888 36.7471 9.24145 36.238 9.24145Z" fill="#D80000"/>
<path d="M42.7483 9.24145H40.0983C39.5892 9.24145 39.1768 8.82888 39.1768 8.31994C39.1768 7.811 39.5893 7.39844 40.0983 7.39844H42.7483C43.2573 7.39844 43.6698 7.811 43.6698 8.31994C43.6698 8.82888 43.2572 9.24145 42.7483 9.24145Z" fill="#D80000"/>
<path d="M17.3023 7.81124C17.3023 9.21652 16.1631 10.3557 14.7578 10.3557C13.3526 10.3557 12.2134 9.21652 12.2134 7.81124V2.7222C12.2133 1.31692 13.3524 0.177734 14.7577 0.177734C16.163 0.177734 17.3022 1.31692 17.3022 2.7222V7.81124H17.3023Z" fill="#EBF5FC"/>
<path d="M40.7121 7.81124C40.7121 9.21652 39.5729 10.3557 38.1676 10.3557C36.7623 10.3557 35.623 9.21652 35.623 7.81124V2.7222C35.623 1.31692 36.7622 0.177734 38.1675 0.177734C39.5728 0.177734 40.712 1.31692 40.712 2.7222V7.81124H40.7121Z" fill="#EBF5FC"/>
<path d="M38.1681 0.177734C37.6457 0.177734 37.1604 0.335652 36.7563 0.605688C37.4392 1.06203 37.8892 1.83933 37.8892 2.72231V7.81124C37.8892 8.6941 37.4392 9.47152 36.7563 9.92787C37.1603 10.1978 37.6457 10.3558 38.1681 10.3558C39.5734 10.3558 40.7125 9.21664 40.7125 7.81136V2.7222C40.7127 1.31692 39.5735 0.177734 38.1681 0.177734V0.177734Z" fill="#D3DCFB"/>
<path d="M14.7579 0.177734C14.2355 0.177734 13.7503 0.335652 13.3462 0.605688C14.029 1.06203 14.4791 1.83933 14.4791 2.72231V7.81124C14.4791 8.6941 14.029 9.47152 13.3462 9.92787C13.7502 10.1978 14.2355 10.3558 14.7579 10.3558C16.1632 10.3558 17.3024 9.21664 17.3024 7.81136V2.7222C17.3025 1.31692 16.1633 0.177734 14.7579 0.177734V0.177734Z" fill="#D3DCFB"/>
<path d="M48.8594 4.25098H46.0322C48.2807 4.25098 50.1033 6.07359 50.1033 8.32202V18.5002H52.9303V8.32214C52.9304 6.07371 51.1077 4.25098 48.8594 4.25098Z" fill="#D80000"/>
<path d="M0 13.5049H52.9296V15.348H0V13.5049Z" fill="#D80000"/>
<path d="M41.7328 61.2449C50.1645 61.2449 56.9998 54.4097 56.9998 45.9779C56.9998 37.5462 50.1645 30.7109 41.7328 30.7109C33.3011 30.7109 26.4658 37.5462 26.4658 45.9779C26.4658 54.4097 33.3011 61.2449 41.7328 61.2449Z" fill="#4FABF7"/>
<path d="M41.7325 57.1739C47.9158 57.1739 52.9283 52.1614 52.9283 45.9781C52.9283 39.7948 47.9158 34.7822 41.7325 34.7822C35.5492 34.7822 30.5366 39.7948 30.5366 45.9781C30.5366 52.1614 35.5492 57.1739 41.7325 57.1739Z" fill="#EBF5FC"/>
<path d="M41.7325 44.8647C41.2235 44.8647 40.811 44.4521 40.811 43.9432V38.8541C40.811 38.3452 41.2236 37.9326 41.7325 37.9326C42.2416 37.9326 42.654 38.3452 42.654 38.8541V43.9432C42.654 44.4521 42.2415 44.8647 41.7325 44.8647Z" fill="#3C58A0"/>
<path d="M46.8217 46.8987H43.7682C43.2591 46.8987 42.8467 46.4861 42.8467 45.9772C42.8467 45.4682 43.2592 45.0557 43.7682 45.0557H46.8217C47.3308 45.0557 47.7432 45.4682 47.7432 45.9772C47.7432 46.4861 47.3306 46.8987 46.8217 46.8987Z" fill="#3C58A0"/>
<path d="M41.732 30.7109C41.2555 30.7109 40.7844 30.734 40.319 30.7767C48.0881 31.4898 54.1728 38.0228 54.1728 45.9779C54.1728 53.9331 48.088 60.4661 40.3188 61.1792C40.7843 61.2219 41.2554 61.2449 41.7319 61.2449C50.1636 61.2449 56.9989 54.4096 56.9989 45.9779C56.9989 37.5463 50.1637 30.7109 41.732 30.7109Z" fill="#1886EA"/>
<path d="M41.7309 34.7822C41.2526 34.7822 40.7814 34.8124 40.3188 34.8706C45.8355 35.5649 50.1026 40.2731 50.1026 45.9781C50.1026 51.683 45.8355 56.3912 40.3188 57.0855C40.7814 57.1437 41.2526 57.1739 41.7309 57.1739C47.9142 57.1739 52.9268 52.1613 52.9268 45.9781C52.9268 39.7948 47.9142 34.7822 41.7309 34.7822Z" fill="#D3DCFB"/>
<path d="M41.7314 48.0146C42.8557 48.0146 43.7671 47.1033 43.7671 45.979C43.7671 44.8547 42.8557 43.9434 41.7314 43.9434C40.6072 43.9434 39.6958 44.8547 39.6958 45.979C39.6958 47.1033 40.6072 48.0146 41.7314 48.0146Z" fill="#FFDD40"/>
</svg>
