<svg width="359" height="180" viewBox="0 0 359 180" fill="none" xmlns="http://www.w3.org/2000/svg">
<g filter="url(#filter0_d)">
<rect x="53" y="46" width="258" height="79.7253" rx="39.8627" fill="white"/>
<circle cx="92.5751" cy="85.5751" r="26.5751" fill="#1D4ED8"/>
<g clip-path="url(#clip0)">
<rect x="132.725" y="67.0387" width="79.7253" height="17.7167" rx="8.85837" fill="#F4F5F7"/>
<rect x="132.725" y="95.8284" width="156.129" height="8.85837" rx="4.42918" fill="#F4F5F7"/>
</g>
<g clip-path="url(#clip1)">
<rect width="53.5" height="53.5" transform="translate(66 59)" fill="white" fill-opacity="0.01"/>
<path d="M119.5 86.0314V85.4686C119.499 80.8706 118.283 76.354 115.976 72.3734C113.668 68.3927 110.35 65.0885 106.355 62.7931L105.895 62.5014C101.896 60.2083 97.3632 59.0016 92.75 59.0016C88.1368 59.0016 83.6043 60.2083 79.6049 62.5014L79.1451 62.7931C75.1501 65.0885 71.8319 68.3927 69.5243 72.3734C67.2166 76.354 66.0011 80.8706 66 85.4686V86.0314C66.0011 90.6294 67.2166 95.146 69.5243 99.1266C71.8319 103.107 75.1501 106.412 79.1451 108.707L79.6049 108.999C83.6043 111.292 88.1368 112.498 92.75 112.498C97.3632 112.498 101.896 111.292 105.895 108.999L106.355 108.707C110.35 106.412 113.668 103.107 115.976 99.1266C118.283 95.146 119.499 90.6294 119.5 86.0314Z" fill="#FFAB00"/>
<path d="M93.2511 99.0781C95.947 93.2425 95.4246 86.0314 93.2511 80.9669C91.0777 86.0314 90.5553 93.2425 93.2511 99.0781Z" fill="#0C1F41"/>
<path d="M111.223 101.183C110.283 99.0573 108.799 98.8697 108.423 96.8272C108.047 94.7848 109.405 94.1595 110.304 90.7832C110.555 89.7828 111.432 86.2606 110.158 82.3841C109.758 80.9847 109.091 79.6755 108.193 78.5285C108.151 78.0699 108.13 77.5906 108.089 77.1321H78.4546C78.3919 77.4239 78.3292 77.9449 78.2665 78.6118C77.3993 79.7412 76.7476 81.0198 76.3439 82.3841C75.0691 86.2606 75.9468 89.7828 76.1976 90.7832C77.0962 94.1595 78.4755 94.7639 78.0784 96.8272C77.6814 98.8906 76.2185 99.0573 75.2989 101.183C74.7138 102.475 74.5466 104.059 74.7138 105.518C76.0703 106.738 77.5558 107.807 79.1443 108.707L79.604 108.999L81.1087 109.791C84.4525 108.832 88.5904 106.039 91.3907 102.225C92.582 102.246 93.8777 102.225 95.0689 102.163C97.7021 105.768 101.526 108.478 104.766 109.582L105.894 108.999L106.354 108.707C108.365 107.56 110.213 106.152 111.85 104.518C111.871 103.375 111.658 102.241 111.223 101.183Z" fill="#0C1F41"/>
<path d="M98.6 109.874C97.5842 109.875 96.5856 109.612 95.7025 109.112C94.8195 108.611 94.0823 107.89 93.5635 107.019C92.9112 108.124 91.9144 108.986 90.7251 109.473C89.5358 109.961 88.2192 110.047 86.9762 109.719C85.7331 109.391 84.6318 108.666 83.8403 107.656C83.0487 106.645 82.6102 105.404 82.5918 104.122L77.5344 107.477C77.4667 107.5 77.4081 107.544 77.3672 107.602C77.9314 107.977 78.5166 108.373 79.1436 108.707L79.6033 108.999C83.6027 111.292 88.1352 112.498 92.7484 112.498C97.3617 112.498 101.894 111.292 105.894 108.999L106.353 108.707C107.239 108.207 108.091 107.65 108.903 107.04L104.472 104.143C104.44 105.674 103.807 107.132 102.709 108.203C101.611 109.274 100.136 109.874 98.6 109.874Z" fill="#FFAB00"/>
<path d="M88.4852 109.916C89.5108 109.913 90.5183 109.645 91.4087 109.137C92.299 108.629 93.0416 107.899 93.5635 107.019C93.0113 106.115 92.7219 105.076 92.7275 104.018C92.7317 103.344 92.8446 102.675 93.0619 102.038L85.3713 102.454C85.216 102.454 85.0638 102.497 84.9324 102.579L82.5918 104.122C82.6083 105.668 83.2372 107.144 84.3412 108.23C85.4453 109.315 86.9349 109.921 88.4852 109.916Z" fill="#FFF0B2"/>
<path d="M93.5625 107.019C94.2167 108.108 95.2082 108.956 96.3877 109.434C97.5671 109.913 98.8705 109.996 100.101 109.672C101.332 109.347 102.424 108.632 103.213 107.635C104.001 106.638 104.443 105.412 104.471 104.143L102.131 102.579C102.001 102.495 101.848 102.451 101.692 102.454L94.0014 102.038C94.2957 102.85 94.4089 103.716 94.3331 104.576C94.2573 105.437 93.9943 106.27 93.5625 107.019Z" fill="#FFF0B2"/>
<path d="M93.5626 107.019C93.9944 106.27 94.2574 105.437 94.3332 104.576C94.409 103.716 94.2958 102.85 94.0014 102.038H93.061C92.8437 102.675 92.7308 103.344 92.7266 104.018C92.721 105.076 93.0105 106.115 93.5626 107.019Z" fill="#FFF0B2"/>
<path d="M100.9 102.996C100.712 103.246 97.5768 107.415 92.3939 107.019C88.1934 106.685 85.8318 103.622 85.4766 103.142C86.52 102.356 87.2643 101.238 87.5873 99.9743C88.1934 97.3066 86.5006 95.2642 86.3125 95.0349H99.4158C99.3322 95.16 97.3887 97.8277 98.6217 100.579C99.0953 101.611 99.8955 102.461 100.9 102.996Z" fill="url(#paint0_linear)"/>
<path d="M82.4465 89.2619C84.0393 89.2619 85.3305 87.9742 85.3305 86.3858C85.3305 84.7973 84.0393 83.5096 82.4465 83.5096C80.8537 83.5096 79.5625 84.7973 79.5625 86.3858C79.5625 87.9742 80.8537 89.2619 82.4465 89.2619Z" fill="#8E572A"/>
<path d="M103.847 89.2619C105.44 89.2619 106.731 87.9742 106.731 86.3858C106.731 84.7973 105.44 83.5096 103.847 83.5096C102.254 83.5096 100.963 84.7973 100.963 86.3858C100.963 87.9742 102.254 89.2619 103.847 89.2619Z" fill="#8E572A"/>
<path d="M82.9894 80.5919C82.9894 81.9258 82.9476 83.1971 82.8849 84.4059C82.8222 85.6147 82.8222 85.4271 82.7595 86.5734C82.5923 89.8247 82.7595 90.6583 82.049 91.4295C81.3384 92.2006 80.9205 92.3048 80.6488 92.1172C80.3771 91.9297 80.7742 91.1585 80.9414 90.0123C81.3384 87.1987 80.398 84.3434 80.3353 84.1141C80.1263 83.5306 79.8964 82.9679 79.9173 82.1342C79.9382 81.634 80.0009 80.5294 80.7742 80.1126C81.5474 79.6958 82.2998 79.9875 82.9894 80.5919Z" fill="#0C1F41"/>
<path d="M105.811 80.5919C105.811 81.9258 105.769 83.1971 105.707 84.4059C105.644 85.6147 105.623 85.4271 105.56 86.5734C105.393 89.8247 105.56 90.6583 104.871 91.4295C104.181 92.2006 103.721 92.3048 103.45 92.1172C103.178 91.9297 103.596 91.1585 103.742 90.0123C104.16 87.1987 103.22 84.3434 103.136 84.1141C102.948 83.5306 102.697 82.9679 102.739 82.1342C102.76 81.634 102.802 80.5294 103.596 80.1126C104.39 79.6958 105.101 79.9875 105.811 80.5919Z" fill="#0C1F41"/>
<path d="M104.891 85.3021C104.243 91.4503 98.1827 98.5989 93.188 98.5989C88.1933 98.5989 81.7356 91.492 81.4849 85.3021C81.2132 78.4452 86.3751 70.7339 93.188 70.7339C100.001 70.7339 106.041 74.2561 104.891 85.3021Z" fill="#AD6736"/>
<path d="M102.446 81.8221L102.007 81.6137L101.61 81.3844L101.192 81.176L100.774 81.0093C100.216 80.7867 99.6197 80.6735 99.0185 80.6758C98.4166 80.6865 97.8217 80.8066 97.263 81.0301C96.6989 81.2517 96.1814 81.5769 95.7374 81.9888C95.6761 82.0434 95.5958 82.0718 95.5137 82.0679C95.4317 82.064 95.3544 82.0281 95.2986 81.968C95.2472 81.9107 95.2188 81.8365 95.2188 81.7596C95.2188 81.6827 95.2472 81.6085 95.2986 81.5512C95.7709 81.0388 96.3482 80.6336 96.9913 80.3632C97.6334 80.0963 98.3229 79.9616 99.0185 79.9672C99.7112 79.9659 100.396 80.1153 101.025 80.4049C101.184 80.4687 101.338 80.5454 101.485 80.6341L101.923 80.9051L102.279 81.2802C102.4 81.4091 102.499 81.5569 102.571 81.7179C102.579 81.7373 102.578 81.7588 102.571 81.7781C102.563 81.7973 102.548 81.813 102.529 81.8221H102.446Z" fill="#091E42"/>
<path d="M83.9297 81.7173C84.0101 81.5607 84.1082 81.4139 84.2223 81.2796L84.5775 80.9045L85.0164 80.6336L85.4762 80.4043C86.1051 80.1147 86.7897 79.9654 87.4824 79.9666C88.1782 79.9587 88.8682 80.0935 89.5096 80.3626C90.1527 80.6331 90.73 81.0382 91.2023 81.5506C91.2571 81.6117 91.2856 81.6918 91.2816 81.7737C91.2777 81.8555 91.2418 81.9326 91.1814 81.9883C91.124 82.0395 91.0496 82.0679 90.9725 82.0679C90.8953 82.0679 90.8209 82.0395 90.7635 81.9883C90.3195 81.5764 89.8021 81.2512 89.2379 81.0296C88.6792 80.806 88.0843 80.686 87.4824 80.6752C86.8812 80.673 86.2852 80.7862 85.727 81.0087L85.309 81.1754L84.9119 81.3839L84.4939 81.6131L84.0551 81.8215H84.0342C84.0147 81.8288 83.9932 81.8286 83.9738 81.8208C83.9545 81.8131 83.9388 81.7985 83.9297 81.7798V81.7173Z" fill="#091E42"/>
<path style="mix-blend-mode:multiply" opacity="0.24" d="M93.25 90.4082C94.8659 90.4082 96.1758 89.1019 96.1758 87.4904C96.1758 85.879 94.8659 84.5726 93.25 84.5726C91.6341 84.5726 90.3242 85.879 90.3242 87.4904C90.3242 89.1019 91.6341 90.4082 93.25 90.4082Z" fill="url(#paint1_radial)"/>
<path d="M92.1631 83.1138C92.2713 83.398 92.3552 83.6908 92.4139 83.9891C92.4808 84.2832 92.5158 84.5837 92.5184 84.8853C92.5286 85.1854 92.5076 85.4857 92.4557 85.7815C92.4231 86.0789 92.3601 86.3722 92.2676 86.6568C92.249 86.6995 92.2153 86.7339 92.1728 86.7531C92.1303 86.7724 92.0821 86.7752 92.0377 86.761C92.018 86.7563 91.9996 86.7475 91.9835 86.7353C91.9674 86.7231 91.954 86.7077 91.9442 86.6901C91.9344 86.6725 91.9284 86.653 91.9265 86.6329C91.9246 86.6128 91.9269 86.5926 91.9332 86.5734C91.9807 86.2979 92.0086 86.0193 92.0168 85.7398C92.0446 85.4558 92.0516 85.1703 92.0377 84.8853C92.0376 84.6062 92.0167 84.3276 91.975 84.0516C91.9332 83.7807 91.8914 83.4889 91.8287 83.218C91.8214 83.174 91.83 83.129 91.853 83.0908C91.8759 83.0526 91.9118 83.0238 91.9541 83.0096C91.9954 83.0042 92.0373 83.0113 92.0746 83.0298C92.1118 83.0484 92.1426 83.0776 92.1631 83.1138Z" fill="#7D4921"/>
<path d="M91.2639 88.595C91.407 88.5148 91.5624 88.4584 91.7237 88.4282H91.9745C92.093 88.4383 92.2041 88.49 92.288 88.5741C92.3686 88.6802 92.4596 88.7779 92.5596 88.8659L92.6641 88.9076H92.8313C92.9308 88.9031 93.0261 88.8666 93.103 88.8034L93.2075 88.6575C93.2575 88.5635 93.3388 88.4899 93.4374 88.4491C93.5254 88.3951 93.6266 88.3663 93.7299 88.3657H93.9807C94.1424 88.3826 94.2988 88.4322 94.4405 88.5116C94.4586 88.5179 94.4749 88.5283 94.4883 88.5419C94.5018 88.5555 94.5119 88.572 94.518 88.5901C94.524 88.6082 94.5258 88.6274 94.5233 88.6463C94.5207 88.6652 94.5138 88.6833 94.5032 88.6992C94.4904 88.7264 94.4695 88.7491 94.4433 88.764C94.4171 88.7789 94.3869 88.7854 94.3569 88.7826H94.336C94.2081 88.7398 94.0739 88.7187 93.9389 88.72L93.6255 88.7617L93.5419 88.8659C93.5089 88.9393 93.4587 89.0036 93.3956 89.0535C93.3361 89.13 93.2601 89.1922 93.1733 89.2355C93.0865 89.2788 92.9911 89.302 92.894 89.3036H92.6014C92.4959 89.2838 92.396 89.2411 92.3089 89.1785C92.1855 89.0785 92.0796 88.9588 91.9954 88.8242L91.9327 88.7826H91.7446C91.6177 88.7932 91.4919 88.8142 91.3684 88.8451C91.3492 88.8514 91.3289 88.8537 91.3088 88.8518C91.2887 88.8499 91.2692 88.8439 91.2515 88.8341C91.2338 88.8243 91.2184 88.811 91.2061 88.7949C91.1939 88.7789 91.1851 88.7605 91.1803 88.7409C91.1775 88.7109 91.184 88.6808 91.199 88.6547C91.2139 88.6286 91.2366 88.6077 91.2639 88.595Z" fill="#7D4921"/>
<path d="M97.0131 92.0755C95.9055 91.9088 95.2158 91.0752 94.3799 91.2002H94.2127C93.9828 91.2627 93.7111 91.492 93.4603 91.4711C93.2096 91.4503 93.0424 91.2419 92.8543 91.2002H92.6871C91.9139 91.0752 91.2033 91.8671 90.0957 92.0547L89.0508 92.1798C90.2441 93.357 91.8549 94.0174 93.5335 94.0174C95.2121 94.0174 96.8229 93.357 98.0162 92.1798L97.0131 92.0755Z" fill="#713C1A"/>
<path d="M88.5268 91.8462C89.3243 92.0936 90.1428 92.268 90.972 92.3672C92.6224 92.5966 94.2973 92.5896 95.9458 92.3464C96.3638 92.3047 96.7608 92.2214 97.1788 92.138L98.3909 91.8254C98.4045 91.8174 98.42 91.8133 98.4357 91.8138C98.4515 91.8142 98.4668 91.819 98.4799 91.8277C98.493 91.8364 98.5034 91.8487 98.5098 91.863C98.5162 91.8773 98.5185 91.8932 98.5163 91.9087C98.5233 91.9207 98.5273 91.9343 98.5278 91.9481C98.5282 91.962 98.5252 91.9758 98.519 91.9882C98.5127 92.0007 98.5035 92.0113 98.4921 92.0193C98.4807 92.0272 98.4674 92.0322 98.4536 92.0338C97.665 92.3478 96.8454 92.5783 96.0085 92.7216C95.1668 92.8711 94.3138 92.9478 93.4589 92.9508C93.0409 92.9508 92.602 92.93 92.1841 92.8883C91.7569 92.8615 91.3314 92.8128 90.9093 92.7424C90.069 92.5937 89.2437 92.3705 88.4433 92.0755C88.4015 92.0338 88.3597 91.9713 88.3806 91.9296C88.3934 91.9023 88.4143 91.8797 88.4405 91.8648C88.4666 91.8499 88.4968 91.8434 88.5268 91.8462Z" fill="#4A0F00"/>
<path d="M85.6023 82.8428C86.2396 82.3929 86.9953 82.1393 87.7757 82.1134C88.5514 82.0906 89.316 82.3012 89.9701 82.7178C90.0121 82.7473 90.0418 82.7913 90.0533 82.8413C90.0649 82.8913 90.0576 82.9438 90.0327 82.9887C90.004 83.0257 89.9637 83.0519 89.9182 83.0633C89.8727 83.0746 89.8247 83.0704 89.782 83.0512C89.4676 82.889 89.1388 82.7564 88.7997 82.6552C88.4638 82.5746 88.1209 82.5258 87.7757 82.5093C87.4228 82.5155 87.0719 82.5645 86.7308 82.6552C86.3886 82.7474 86.0588 82.8803 85.7486 83.0512C85.7359 83.0624 85.7206 83.0704 85.7041 83.0744C85.6876 83.0784 85.6704 83.0784 85.654 83.0743C85.6375 83.0702 85.6223 83.0621 85.6096 83.0509C85.597 83.0396 85.5873 83.0254 85.5814 83.0095C85.5635 82.9841 85.5557 82.953 85.5596 82.9222C85.5634 82.8913 85.5787 82.863 85.6023 82.8428Z" fill="#172B4D"/>
<path d="M101.171 83.0512C100.861 82.8804 100.531 82.7474 100.189 82.6553C99.8472 82.5673 99.4966 82.5184 99.1439 82.5094C98.7918 82.5258 98.442 82.5747 98.099 82.6553C97.7667 82.7565 97.4448 82.8891 97.1377 83.0512C97.1148 83.0655 97.0891 83.0746 97.0624 83.0781C97.0357 83.0816 97.0085 83.0793 96.9827 83.0714C96.957 83.0635 96.9332 83.0502 96.9131 83.0323C96.8929 83.0144 96.8769 82.9925 96.866 82.9679C96.8468 82.9252 96.8425 82.8774 96.8539 82.832C96.8653 82.7866 96.8916 82.7464 96.9287 82.7178C97.5864 82.3024 98.3535 82.0924 99.1317 82.1146C99.9099 82.1369 100.664 82.3905 101.296 82.8428C101.316 82.8625 101.329 82.8883 101.333 82.9162C101.336 82.944 101.33 82.9722 101.316 82.9962C101.301 83.0203 101.279 83.0387 101.253 83.0487C101.227 83.0587 101.198 83.0596 101.171 83.0512Z" fill="#172B4D"/>
<path d="M98.9148 83.5931C99.2842 83.5931 99.5836 83.2945 99.5836 82.9262C99.5836 82.5579 99.2842 82.2593 98.9148 82.2593C98.5455 82.2593 98.2461 82.5579 98.2461 82.9262C98.2461 83.2945 98.5455 83.5931 98.9148 83.5931Z" fill="#172B4D"/>
<path d="M87.9012 83.5931C88.2705 83.5931 88.5699 83.2945 88.5699 82.9262C88.5699 82.5579 88.2705 82.2593 87.9012 82.2593C87.5318 82.2593 87.2324 82.5579 87.2324 82.9262C87.2324 83.2945 87.5318 83.5931 87.9012 83.5931Z" fill="#172B4D"/>
<path d="M84.8279 65.6276C88.126 63.4286 92.1649 62.6258 96.0564 63.3957C99.9479 64.1656 103.374 66.4453 105.58 69.7334C106.792 71.5466 107.712 74.6103 108.088 77.1321C108.192 77.8199 104.995 83.4888 105.016 84.0306C105.016 76.1317 102.738 78.2784 99.2687 73.4849C96.4684 79.1329 85.0578 73.5682 81.8812 81.4255C81.2125 81.3838 78.8092 79.2163 78.2031 79.1537C78.4748 74.6728 80.7736 68.337 84.8279 65.6276Z" fill="#0C1F41"/>
</g>
</g>
<defs>
<filter id="filter0_d" x="0.95708" y="0.600858" width="357.657" height="179.382" filterUnits="userSpaceOnUse" color-interpolation-filters="sRGB">
<feFlood flood-opacity="0" result="BackgroundImageFix"/>
<feColorMatrix in="SourceAlpha" type="matrix" values="0 0 0 0 0 0 0 0 0 0 0 0 0 0 0 0 0 0 127 0" result="hardAlpha"/>
<feOffset dx="-2.21459" dy="4.42918"/>
<feGaussianBlur stdDeviation="24.9142"/>
<feColorMatrix type="matrix" values="0 0 0 0 0.113725 0 0 0 0 0.305882 0 0 0 0 0.847059 0 0 0 0.1 0"/>
<feBlend mode="normal" in2="BackgroundImageFix" result="effect1_dropShadow"/>
<feBlend mode="normal" in="SourceGraphic" in2="effect1_dropShadow" result="shape"/>
</filter>
<linearGradient id="paint0_linear" x1="93.1881" y1="95.2725" x2="93.1881" y2="106.979" gradientUnits="userSpaceOnUse">
<stop stop-color="#8E572A"/>
<stop offset="1" stop-color="#AD6736"/>
</linearGradient>
<radialGradient id="paint1_radial" cx="0" cy="0" r="1" gradientUnits="userSpaceOnUse" gradientTransform="translate(93.2931 87.5772) scale(2.93485 2.92685)">
<stop stop-color="#AD6736" stop-opacity="0.5"/>
<stop offset="0.18" stop-color="#B37142" stop-opacity="0.45"/>
<stop offset="0.47" stop-color="#C48B62" stop-opacity="0.33"/>
<stop offset="0.82" stop-color="#DFB696" stop-opacity="0.12"/>
<stop offset="1" stop-color="#F0D0B6" stop-opacity="0"/>
</radialGradient>
<clipPath id="clip0">
<rect width="156.129" height="37.6481" fill="white" transform="translate(132.725 67.0387)"/>
</clipPath>
<clipPath id="clip1">
<rect width="53.5" height="53.5" fill="white" transform="translate(66 59)"/>
</clipPath>
</defs>
</svg>
