<svg width="20" height="20" viewBox="0 0 20 20" fill="none" xmlns="http://www.w3.org/2000/svg">
<path d="M10.0001 8.82166L13.5359 5.28582C13.8613 4.96043 14.3889 4.96043 14.7143 5.28582C15.0397 5.61121 15.0397 6.13877 14.7143 6.46416L11.1784 9.99999L14.7143 13.5358C15.0397 13.8612 15.0397 14.3888 14.7143 14.7142C14.3889 15.0395 13.8613 15.0395 13.5359 14.7142L10.0001 11.1783L6.46428 14.7142C6.13889 15.0395 5.61133 15.0395 5.28594 14.7142C4.96056 14.3888 4.96056 13.8612 5.28594 13.5358L8.82178 9.99999L5.28594 6.46416C4.96056 6.13877 4.96056 5.61121 5.28594 5.28582C5.61133 4.96043 6.13889 4.96043 6.46428 5.28582L10.0001 8.82166Z" fill="#1E944D"/>
</svg>
