<svg width="138" height="62" viewBox="0 0 138 62" fill="none" xmlns="http://www.w3.org/2000/svg">
<path fill-rule="evenodd" clip-rule="evenodd" d="M55.7415 50.7827L45.3664 54.5008C49.0414 53.8689 52.4935 52.5959 55.7415 50.7827ZM79.8168 48.9893C75.696 49.9527 71.6476 51.0478 67.47 51.5448C71.848 51.9045 75.8795 50.5702 79.8168 48.9893ZM69.5959 36.2767C69.6178 34.6477 68.5664 34.8519 67.6017 34.9911C64.3394 35.46 62.6623 37.9743 61.0821 40.3938C59.9301 42.157 58.9549 44.135 58.928 46.3621C58.9174 47.2112 59.1434 47.8861 60.2423 47.2799C63.2424 45.6241 65.9396 43.6117 67.8858 40.739C68.813 39.3704 69.4567 37.8694 69.5959 36.2767ZM67.4858 49.6183C70.1393 49.75 72.6855 49.0189 75.2273 48.3733C86.2099 45.583 95.4611 39.7383 103.846 32.2809C109.448 27.2991 114.519 21.8322 119.407 16.1754C119.853 15.6597 120.284 15.1202 120.956 14.8842C121.711 14.6195 122.244 14.68 121.889 15.6859C121.802 15.9338 121.458 16.1654 121.928 16.3096C123.549 16.8079 123.11 17.9892 122.822 19.0637C122.283 21.0804 120.933 22.67 119.778 24.3246C116.542 28.9605 113.128 33.4784 109.151 37.5093C105.458 41.2512 101.265 44.4161 96.9858 47.4617C94.2617 49.4004 91.4639 51.3347 88.2572 52.2107C86.1268 52.7926 84.4061 54.0938 82.3276 54.6856C78.3429 55.8201 74.3619 56.9078 70.198 57.1388C66.7709 57.3286 63.5335 56.6493 60.5522 54.9441C59.5694 54.3816 58.6454 54.3423 57.6476 54.7531C54.9585 55.8595 52.2256 56.8828 49.5015 57.8612C45.0698 59.4539 40.4058 60.3362 35.738 61.033C28.2931 62.1443 20.8375 62.4946 13.3907 61.018C9.01392 60.1501 4.75512 59.01 1.46846 55.6921C0.603087 54.8186 -0.0387614 53.8546 0.00182237 52.5566C0.0186802 51.9971 0.195376 51.5738 0.742944 51.3397C1.39041 51.0637 1.44723 51.5226 1.74568 51.9422C3.79172 54.8205 7.05278 55.1976 10.1515 55.8357C18.691 57.5946 27.1873 56.7891 35.6631 55.3069C42.149 54.1724 48.462 52.4161 54.562 49.923C55.0465 49.7251 55.7146 49.7419 55.3113 48.8272C53.9058 45.6405 54.1325 42.3819 55.2763 39.2107C57.0414 34.3157 59.9172 30.3472 65.2018 28.8313C68.0415 28.0165 69.9352 28.9393 71.601 31.3587C75.846 37.5218 73.5165 44.1582 68.6764 48.1311C68.2425 48.4863 67.8092 48.8416 67.3765 49.1962C67.4127 49.3373 67.4496 49.4778 67.4858 49.6183Z" fill="#FF9A62"/>
<path fill-rule="evenodd" clip-rule="evenodd" d="M122.16 7.09093C125.483 6.04449 128.592 4.57411 131.383 2.48248C128.309 4.01842 125.235 5.55499 122.16 7.09093ZM129.031 21.056C129.109 17.5271 129.787 14.0731 130.33 10.6016C130.411 10.0828 130.781 9.51711 130.129 9.06382C129.503 8.62864 129.019 9.07318 128.595 9.35228C126.283 10.8714 123.655 11.6268 121.136 12.6695C119.545 13.3289 118.066 14.2941 116.411 14.9216C113.862 15.8869 111.383 17.0445 108.904 18.1846C107.648 18.7621 106.176 18.7265 105.083 19.8273C104.011 20.9068 102.849 20.5815 101.53 18.7827C100.856 17.8649 100.58 16.6411 101.726 15.7701C102.669 15.054 103.684 14.3984 104.747 13.8808C111.78 10.4562 118.841 7.08833 125.878 3.6718C127.458 2.90508 128.988 2.03096 130.53 1.18807C133.334 -0.344748 134.521 0.0667091 136.019 2.90508C137.182 5.10846 137.275 7.28313 136.493 9.63012C134.988 14.148 133.611 18.709 132.98 23.4511C132.854 24.4014 132.862 25.3685 132.772 26.325C132.67 27.4327 132.151 27.7155 131.2 27.0637C129.091 25.6201 128.913 25.1337 129.031 21.056Z" fill="#FF9A62"/>
</svg>
