<svg width="24" height="24" viewBox="0 0 24 24" fill="none" xmlns="http://www.w3.org/2000/svg">
<path d="M4.59999 19.5251H5.52499L16.5 8.5251L15.55 7.6001L4.59999 18.5751V19.5251ZM19.9 7.4751L16.625 4.2001L17.4 3.4501C17.7833 3.0501 18.2458 2.8501 18.7875 2.8501C19.3292 2.8501 19.7917 3.03343 20.175 3.4001L20.925 4.1501C21.2583 4.48343 21.4125 4.8751 21.3875 5.3251C21.3625 5.7751 21.1917 6.15843 20.875 6.4751L19.9 7.4751ZM18.85 8.5001L6.17499 21.1751H2.92499V17.9251L15.575 5.2501L18.85 8.5001ZM16.05 8.0501L15.55 7.6001L16.5 8.5251L16.05 8.0501Z" fill="#1D4ED8"/>
</svg>
