<svg width="100" height="100" viewBox="0 0 100 100" fill="none" xmlns="http://www.w3.org/2000/svg">
<g clip-path="url(#clip0)">
<path d="M90.0148 33.0825H43.09C41.5263 33.0823 40.0324 32.4352 38.963 31.2945L32.9152 24.8468C31.8439 23.7051 30.3477 23.0582 28.782 23.0601H9.08255C5.95737 23.0601 3.42383 25.5936 3.42383 28.7188V91.8285C3.42383 94.9572 5.96006 97.4935 9.08876 97.4935H90.0039C93.1326 97.4935 95.6688 94.9572 95.6688 91.8285V38.7414C95.6688 35.6179 93.1382 33.0852 90.0148 33.0825Z" fill="#EAB54E"/>
<path d="M16.9678 3.791C16.9678 3.08124 17.5432 2.50586 18.2529 2.50586H84.4536C85.1634 2.50586 85.7387 3.08124 85.7387 3.791V62.7962C85.7387 63.506 85.1634 64.0814 84.4536 64.0814H18.2529C17.5431 64.0814 16.9678 63.506 16.9678 62.7962V3.791Z" fill="#D4E1F4"/>
<path d="M13.3579 9.50828C13.3579 8.79852 13.9333 8.22314 14.6431 8.22314H78.7497C79.4595 8.22314 80.0349 8.79852 80.0349 9.50829V66.4207C80.0349 67.1305 79.4595 67.7059 78.7497 67.7059H14.643C13.9333 67.7059 13.3579 67.1305 13.3579 66.4207V9.50828Z" fill="#F3F7FC"/>
<path d="M20.8975 16.7871C20.8975 16.2348 21.3452 15.7871 21.8975 15.7871H71.4981C72.0504 15.7871 72.4981 16.2348 72.4981 16.7871V17.4945C72.4981 18.0468 72.0504 18.4945 71.4981 18.4945H21.8975C21.3452 18.4945 20.8975 18.0468 20.8975 17.4945V16.7871Z" fill="#D4E1F4"/>
<path d="M20.8975 25.3877C20.8975 24.8354 21.3452 24.3877 21.8975 24.3877H71.4981C72.0504 24.3877 72.4981 24.8354 72.4981 25.3877V26.0951C72.4981 26.6474 72.0504 27.0951 71.4981 27.0951H21.8975C21.3452 27.0951 20.8975 26.6474 20.8975 26.0951V25.3877Z" fill="#D4E1F4"/>
<path d="M20.8975 33.9878C20.8975 33.4355 21.3452 32.9878 21.8975 32.9878H71.4981C72.0504 32.9878 72.4981 33.4355 72.4981 33.9878V34.6952C72.4981 35.2474 72.0504 35.6952 71.4981 35.6952H21.8975C21.3452 35.6952 20.8975 35.2474 20.8975 34.6952V33.9878Z" fill="#D4E1F4"/>
<path d="M94.3442 42.1611H43.0837C41.524 42.1611 40.0334 42.8049 38.964 43.9404L32.9137 50.3637C31.8445 51.4992 30.3539 52.143 28.794 52.143H5.65893C2.53375 52.1432 0.000206938 54.6765 0 57.8017C0 57.9737 0.00786365 58.1455 0.023384 58.3166L2.95032 92.3422C3.21644 95.2594 5.66266 97.4925 8.59207 97.4925H90.4976C93.4272 97.4925 95.8736 95.2588 96.1394 92.3412L99.976 48.3358C100.261 45.2236 97.9689 42.4697 94.8568 42.1847C94.6862 42.1692 94.5153 42.1613 94.3442 42.1611Z" fill="#F6C863"/>
</g>
<defs>
<clipPath id="clip0">
<rect width="100" height="100" fill="white"/>
</clipPath>
</defs>
</svg>
