<svg width="14" height="14" viewBox="0 0 14 14" fill="none" xmlns="http://www.w3.org/2000/svg">
<path d="M3.11325 10.9998C3.25099 10.6095 3.50641 10.2715 3.84432 10.0324C4.18223 9.79327 4.58598 9.66488 4.99992 9.66488C5.41386 9.66488 5.81761 9.79327 6.15552 10.0324C6.49343 10.2715 6.74885 10.6095 6.88659 10.9998H13.6666V12.3332H6.88659C6.74885 12.7235 6.49343 13.0616 6.15552 13.3007C5.81761 13.5397 5.41386 13.6681 4.99992 13.6681C4.58598 13.6681 4.18223 13.5397 3.84432 13.3007C3.50641 13.0616 3.25099 12.7235 3.11325 12.3332H0.333252V10.9998H3.11325ZM7.11325 6.33318C7.25099 5.94282 7.50641 5.6048 7.84432 5.3657C8.18223 5.12661 8.58598 4.99821 8.99992 4.99821C9.41386 4.99821 9.81761 5.12661 10.1555 5.3657C10.4934 5.6048 10.7489 5.94282 10.8866 6.33318H13.6666V7.66651H10.8866C10.7489 8.05687 10.4934 8.39489 10.1555 8.63398C9.81761 8.87308 9.41386 9.00148 8.99992 9.00148C8.58598 9.00148 8.18223 8.87308 7.84432 8.63398C7.50641 8.39489 7.25099 8.05687 7.11325 7.66651H0.333252V6.33318H7.11325ZM3.11325 1.66651C3.25099 1.27615 3.50641 0.938133 3.84432 0.699036C4.18223 0.45994 4.58598 0.331543 4.99992 0.331543C5.41386 0.331543 5.81761 0.45994 6.15552 0.699036C6.49343 0.938133 6.74885 1.27615 6.88659 1.66651H13.6666V2.99984H6.88659C6.74885 3.3902 6.49343 3.72822 6.15552 3.96732C5.81761 4.20641 5.41386 4.33481 4.99992 4.33481C4.58598 4.33481 4.18223 4.20641 3.84432 3.96732C3.50641 3.72822 3.25099 3.3902 3.11325 2.99984H0.333252V1.66651H3.11325ZM4.99992 2.99984C5.17673 2.99984 5.3463 2.92961 5.47132 2.80458C5.59635 2.67956 5.66659 2.50999 5.66659 2.33318C5.66659 2.15637 5.59635 1.9868 5.47132 1.86177C5.3463 1.73675 5.17673 1.66651 4.99992 1.66651C4.82311 1.66651 4.65354 1.73675 4.52851 1.86177C4.40349 1.9868 4.33325 2.15637 4.33325 2.33318C4.33325 2.50999 4.40349 2.67956 4.52851 2.80458C4.65354 2.92961 4.82311 2.99984 4.99992 2.99984ZM8.99992 7.66651C9.17673 7.66651 9.3463 7.59627 9.47132 7.47125C9.59635 7.34622 9.66659 7.17665 9.66659 6.99984C9.66659 6.82303 9.59635 6.65346 9.47132 6.52844C9.3463 6.40342 9.17673 6.33318 8.99992 6.33318C8.82311 6.33318 8.65354 6.40342 8.52851 6.52844C8.40349 6.65346 8.33325 6.82303 8.33325 6.99984C8.33325 7.17665 8.40349 7.34622 8.52851 7.47125C8.65354 7.59627 8.82311 7.66651 8.99992 7.66651ZM4.99992 12.3332C5.17673 12.3332 5.3463 12.2629 5.47132 12.1379C5.59635 12.0129 5.66659 11.8433 5.66659 11.6665C5.66659 11.4897 5.59635 11.3201 5.47132 11.1951C5.3463 11.0701 5.17673 10.9998 4.99992 10.9998C4.82311 10.9998 4.65354 11.0701 4.52851 11.1951C4.40349 11.3201 4.33325 11.4897 4.33325 11.6665C4.33325 11.8433 4.40349 12.0129 4.52851 12.1379C4.65354 12.2629 4.82311 12.3332 4.99992 12.3332Z" fill="#3A434B"/>
</svg>
