<svg width="29" height="24" viewBox="0 0 29 24" fill="none" xmlns="http://www.w3.org/2000/svg">
<rect x="0.799805" width="28" height="24" rx="8" fill="#1AA551"/>
<path fill-rule="evenodd" clip-rule="evenodd" d="M13.1334 12.3229C14.9697 12.3229 16.4418 11.0182 16.4418 9.39058C16.4418 7.76295 14.9697 6.45825 13.1334 6.45825C11.297 6.45825 9.82495 7.76295 9.82495 9.39058C9.82495 11.0182 11.297 12.3229 13.1334 12.3229ZM13.1333 13.7588C10.4361 13.7588 8.1333 14.1361 8.1333 15.6437C8.1333 17.1507 10.4221 17.5416 13.1333 17.5416C15.8298 17.5416 18.1333 17.1643 18.1333 15.6567C18.1333 14.1492 15.8445 13.7588 13.1333 13.7588ZM20.0653 10.5928H20.8673C21.1975 10.5928 21.4666 10.8317 21.4666 11.1246C21.4666 11.4175 21.1975 11.6564 20.8673 11.6564H20.0653V12.3431C20.0653 12.6361 19.7968 12.8749 19.466 12.8749C19.1358 12.8749 18.8666 12.6361 18.8666 12.3431V11.6564H18.066C17.7351 11.6564 17.4666 11.4175 17.4666 11.1246C17.4666 10.8317 17.7351 10.5928 18.066 10.5928H18.8666V9.9067C18.8666 9.61376 19.1358 9.37492 19.466 9.37492C19.7968 9.37492 20.0653 9.61376 20.0653 9.9067V10.5928Z" fill="white"/>
</svg>
