<svg width="28" height="24" viewBox="0 0 28 24" fill="none" xmlns="http://www.w3.org/2000/svg">
<rect width="28" height="24" rx="8" fill="#1AA551"/>
<path fill-rule="evenodd" clip-rule="evenodd" d="M13.1364 7.05281C12.6895 7.05281 12.3093 7.32454 12.2026 7.69078H15.7911C15.6843 7.32454 15.3042 7.05281 14.8573 7.05281H13.1364ZM16.8049 7.69079H18.1256C19.5263 7.69079 20.6668 8.70091 20.6668 9.94141C20.6668 9.94141 20.6268 10.4666 20.6135 11.1979C20.6121 11.2558 20.5801 11.3125 20.5274 11.3467C20.2066 11.5541 19.9131 11.7254 19.8864 11.7372C18.7792 12.387 17.4926 12.8442 16.1219 13.0716C16.0325 13.087 15.9445 13.0462 15.8991 12.9765C15.5149 12.3941 14.7972 12.0148 13.9968 12.0148C13.2018 12.0148 12.4774 12.3899 12.0819 12.973C12.0358 13.0415 11.9491 13.0811 11.8604 13.0663C10.5011 12.8383 9.21444 12.3817 8.11389 11.7431L7.47357 11.3532C7.42021 11.3237 7.38686 11.2705 7.38686 11.2114C7.36685 10.9102 7.3335 9.94141 7.3335 9.94141C7.3335 8.70091 8.47407 7.69079 9.87477 7.69079H11.1888C11.3155 6.83426 12.1359 6.16675 13.1364 6.16675H14.8573C15.8578 6.16675 16.6782 6.83426 16.8049 7.69079ZM20.4401 12.4756L20.4135 12.4875C19.0661 13.279 17.4453 13.8047 15.7445 14.0233C15.5043 14.0528 15.2642 13.917 15.1975 13.7043C15.0508 13.2199 14.5772 12.901 14.0103 12.901H14.0036H13.9902C13.4233 12.901 12.9497 13.2199 12.803 13.7043C12.7363 13.917 12.4962 14.0528 12.256 14.0233C10.5552 13.8047 8.93438 13.279 7.58704 12.4875C7.58037 12.4815 7.51367 12.4461 7.46031 12.4756C7.40028 12.5052 7.40028 12.5761 7.40028 12.5761L7.44697 15.5887C7.44697 16.8292 8.58087 17.8334 9.98157 17.8334H18.0123C19.413 17.8334 20.5469 16.8292 20.5469 15.5887L20.6002 12.5761C20.6002 12.5761 20.6002 12.5052 20.5402 12.4756C20.5068 12.4579 20.4668 12.4638 20.4401 12.4756ZM14.4972 14.9507C14.4972 15.1988 14.2771 15.3938 13.9969 15.3938C13.7234 15.3938 13.4967 15.1988 13.4967 14.9507V14.1887C13.4967 13.9465 13.7234 13.7457 13.9969 13.7457C14.2771 13.7457 14.4972 13.9465 14.4972 14.1887V14.9507Z" fill="white"/>
</svg>
