<svg width="28" height="24" viewBox="0 0 28 24" fill="none" xmlns="http://www.w3.org/2000/svg">
<rect width="28" height="24" rx="8" fill="#1AA551"/>
<path fill-rule="evenodd" clip-rule="evenodd" d="M17.8461 9.88938H20.6668C20.6668 7.90768 19.3098 6.75 17.0105 6.75H10.9898C8.69053 6.75 7.3335 7.90768 7.3335 9.86411V14.1359C7.3335 16.0923 8.69053 17.25 10.9898 17.25H17.0105C19.3098 17.25 20.6668 16.0923 20.6668 14.1359V13.9539H17.8461C16.537 13.9539 15.4757 13.0486 15.4757 11.9318C15.4757 10.815 16.537 9.90961 17.8461 9.90961V9.88938ZM17.846 10.7589H20.169C20.4439 10.7589 20.6668 10.9491 20.6668 11.1836V12.6598C20.6636 12.8932 20.4426 13.0817 20.169 13.0844H17.8993C17.2366 13.092 16.6571 12.7049 16.5068 12.1542C16.4315 11.8124 16.5372 11.4596 16.7955 11.1905C17.0538 10.9214 17.4383 10.7634 17.846 10.7589ZM17.9466 12.3109H18.1659C18.4473 12.3109 18.6755 12.1163 18.6755 11.8762C18.6755 11.6361 18.4473 11.4414 18.1659 11.4414H17.9466C17.812 11.4401 17.6823 11.4847 17.5866 11.5655C17.4908 11.6462 17.437 11.7563 17.437 11.8711C17.4369 12.1121 17.6642 12.3082 17.9466 12.3109ZM10.4919 9.88941H14.2549C14.5363 9.88941 14.7645 9.69477 14.7645 9.45465C14.7645 9.21454 14.5363 9.01989 14.2549 9.01989H10.4919C10.2128 9.01988 9.98553 9.21146 9.98229 9.4496C9.98227 9.69054 10.2095 9.88665 10.4919 9.88941Z" fill="white"/>
</svg>
