<svg width="28" height="24" viewBox="0 0 28 24" fill="none" xmlns="http://www.w3.org/2000/svg">
<rect width="28" height="24" rx="8" fill="#1AA551"/>
<path fill-rule="evenodd" clip-rule="evenodd" d="M11.2067 6.16675H16.794C18.8533 6.16675 20 7.20508 20 8.98425V15.0101C20 16.8184 18.8533 17.8334 16.794 17.8334H11.2067C9.18 17.8334 8 16.8184 8 15.0101V8.98425C8 7.20508 9.18 6.16675 11.2067 6.16675ZM11.3867 8.88512V8.87929H13.3794C13.6667 8.87929 13.9 9.08345 13.9 9.3337C13.9 9.59095 13.6667 9.79512 13.3794 9.79512H11.3867C11.0994 9.79512 10.8667 9.59095 10.8667 9.34012C10.8667 9.08929 11.0994 8.88512 11.3867 8.88512ZM11.3867 12.4318H16.6134C16.9 12.4318 17.1334 12.2276 17.1334 11.9768C17.1334 11.7259 16.9 11.5212 16.6134 11.5212H11.3867C11.0994 11.5212 10.8667 11.7259 10.8667 11.9768C10.8667 12.2276 11.0994 12.4318 11.3867 12.4318ZM11.3867 15.0976H16.6133C16.8793 15.0743 17.08 14.8754 17.08 14.6426C17.08 14.4035 16.8793 14.2051 16.6133 14.1818H11.3867C11.1867 14.1643 10.9933 14.246 10.8867 14.3976C10.78 14.5435 10.78 14.736 10.8867 14.8876C10.9933 15.0335 11.1867 15.121 11.3867 15.0976Z" fill="white"/>
</svg>
