<svg width="321" height="196" viewBox="0 0 321 196" fill="none" xmlns="http://www.w3.org/2000/svg">
<path d="M3.67395 7.34791C5.70303 7.34791 7.34791 5.70303 7.34791 3.67395C7.34791 1.64488 5.70303 0 3.67395 0C1.64488 0 0 1.64488 0 3.67395C0 5.70303 1.64488 7.34791 3.67395 7.34791Z" fill="#DDE5EE"/>
<path d="M35.0216 7.34791C37.0507 7.34791 38.6956 5.70303 38.6956 3.67395C38.6956 1.64488 37.0507 0 35.0216 0C32.9925 0 31.3477 1.64488 31.3477 3.67395C31.3477 5.70303 32.9925 7.34791 35.0216 7.34791Z" fill="#DDE5EE"/>
<path d="M66.3693 7.34791C68.3983 7.34791 70.0432 5.70303 70.0432 3.67395C70.0432 1.64488 68.3983 0 66.3693 0C64.3402 0 62.6953 1.64488 62.6953 3.67395C62.6953 5.70303 64.3402 7.34791 66.3693 7.34791Z" fill="#DDE5EE"/>
<path d="M97.7169 7.34791C99.746 7.34791 101.391 5.70303 101.391 3.67395C101.391 1.64488 99.746 0 97.7169 0C95.6879 0 94.043 1.64488 94.043 3.67395C94.043 5.70303 95.6879 7.34791 97.7169 7.34791Z" fill="#DDE5EE"/>
<path d="M129.065 7.34791C131.094 7.34791 132.739 5.70303 132.739 3.67395C132.739 1.64488 131.094 0 129.065 0C127.036 0 125.391 1.64488 125.391 3.67395C125.391 5.70303 127.036 7.34791 129.065 7.34791Z" fill="#DDE5EE"/>
<path d="M160.412 7.34791C162.441 7.34791 164.086 5.70303 164.086 3.67395C164.086 1.64488 162.441 0 160.412 0C158.383 0 156.738 1.64488 156.738 3.67395C156.738 5.70303 158.383 7.34791 160.412 7.34791Z" fill="#DDE5EE"/>
<path d="M191.76 7.34791C193.789 7.34791 195.434 5.70303 195.434 3.67395C195.434 1.64488 193.789 0 191.76 0C189.731 0 188.086 1.64488 188.086 3.67395C188.086 5.70303 189.731 7.34791 191.76 7.34791Z" fill="#DDE5EE"/>
<path d="M223.108 7.34791C225.137 7.34791 226.782 5.70303 226.782 3.67395C226.782 1.64488 225.137 0 223.108 0C221.078 0 219.434 1.64488 219.434 3.67395C219.434 5.70303 221.078 7.34791 223.108 7.34791Z" fill="#DDE5EE"/>
<path d="M254.455 7.34791C256.484 7.34791 258.129 5.70303 258.129 3.67395C258.129 1.64488 256.484 0 254.455 0C252.426 0 250.781 1.64488 250.781 3.67395C250.781 5.70303 252.426 7.34791 254.455 7.34791Z" fill="#DDE5EE"/>
<path d="M285.803 7.34791C287.832 7.34791 289.477 5.70303 289.477 3.67395C289.477 1.64488 287.832 0 285.803 0C283.774 0 282.129 1.64488 282.129 3.67395C282.129 5.70303 283.774 7.34791 285.803 7.34791Z" fill="#DDE5EE"/>
<path d="M317.151 7.34791C319.18 7.34791 320.824 5.70303 320.824 3.67395C320.824 1.64488 319.18 0 317.151 0C315.121 0 313.477 1.64488 313.477 3.67395C313.477 5.70303 315.121 7.34791 317.151 7.34791Z" fill="#DDE5EE"/>
<path d="M3.67395 38.6958C5.70303 38.6958 7.34791 37.0509 7.34791 35.0219C7.34791 32.9928 5.70303 31.3479 3.67395 31.3479C1.64488 31.3479 0 32.9928 0 35.0219C0 37.0509 1.64488 38.6958 3.67395 38.6958Z" fill="#DDE5EE"/>
<path d="M35.0216 38.6958C37.0507 38.6958 38.6956 37.0509 38.6956 35.0219C38.6956 32.9928 37.0507 31.3479 35.0216 31.3479C32.9925 31.3479 31.3477 32.9928 31.3477 35.0219C31.3477 37.0509 32.9925 38.6958 35.0216 38.6958Z" fill="#DDE5EE"/>
<path d="M66.3693 38.6958C68.3983 38.6958 70.0432 37.0509 70.0432 35.0219C70.0432 32.9928 68.3983 31.3479 66.3693 31.3479C64.3402 31.3479 62.6953 32.9928 62.6953 35.0219C62.6953 37.0509 64.3402 38.6958 66.3693 38.6958Z" fill="#DDE5EE"/>
<path d="M97.7169 38.6958C99.746 38.6958 101.391 37.0509 101.391 35.0219C101.391 32.9928 99.746 31.3479 97.7169 31.3479C95.6879 31.3479 94.043 32.9928 94.043 35.0219C94.043 37.0509 95.6879 38.6958 97.7169 38.6958Z" fill="#DDE5EE"/>
<path d="M129.065 38.6958C131.094 38.6958 132.739 37.0509 132.739 35.0219C132.739 32.9928 131.094 31.3479 129.065 31.3479C127.036 31.3479 125.391 32.9928 125.391 35.0219C125.391 37.0509 127.036 38.6958 129.065 38.6958Z" fill="#DDE5EE"/>
<path d="M160.412 38.6958C162.441 38.6958 164.086 37.0509 164.086 35.0219C164.086 32.9928 162.441 31.3479 160.412 31.3479C158.383 31.3479 156.738 32.9928 156.738 35.0219C156.738 37.0509 158.383 38.6958 160.412 38.6958Z" fill="#DDE5EE"/>
<path d="M191.76 38.6958C193.789 38.6958 195.434 37.0509 195.434 35.0219C195.434 32.9928 193.789 31.3479 191.76 31.3479C189.731 31.3479 188.086 32.9928 188.086 35.0219C188.086 37.0509 189.731 38.6958 191.76 38.6958Z" fill="#DDE5EE"/>
<path d="M223.108 38.6958C225.137 38.6958 226.782 37.0509 226.782 35.0219C226.782 32.9928 225.137 31.3479 223.108 31.3479C221.078 31.3479 219.434 32.9928 219.434 35.0219C219.434 37.0509 221.078 38.6958 223.108 38.6958Z" fill="#DDE5EE"/>
<path d="M254.455 38.6958C256.484 38.6958 258.129 37.0509 258.129 35.0219C258.129 32.9928 256.484 31.3479 254.455 31.3479C252.426 31.3479 250.781 32.9928 250.781 35.0219C250.781 37.0509 252.426 38.6958 254.455 38.6958Z" fill="#DDE5EE"/>
<path d="M285.803 38.6958C287.832 38.6958 289.477 37.0509 289.477 35.0219C289.477 32.9928 287.832 31.3479 285.803 31.3479C283.774 31.3479 282.129 32.9928 282.129 35.0219C282.129 37.0509 283.774 38.6958 285.803 38.6958Z" fill="#DDE5EE"/>
<path d="M317.151 38.6958C319.18 38.6958 320.824 37.0509 320.824 35.0219C320.824 32.9928 319.18 31.3479 317.151 31.3479C315.121 31.3479 313.477 32.9928 313.477 35.0219C313.477 37.0509 315.121 38.6958 317.151 38.6958Z" fill="#DDE5EE"/>
<path d="M3.67395 70.0437C5.70303 70.0437 7.34791 68.3988 7.34791 66.3698C7.34791 64.3407 5.70303 62.6958 3.67395 62.6958C1.64488 62.6958 0 64.3407 0 66.3698C0 68.3988 1.64488 70.0437 3.67395 70.0437Z" fill="#DDE5EE"/>
<path d="M35.0216 70.0437C37.0507 70.0437 38.6956 68.3988 38.6956 66.3698C38.6956 64.3407 37.0507 62.6958 35.0216 62.6958C32.9925 62.6958 31.3477 64.3407 31.3477 66.3698C31.3477 68.3988 32.9925 70.0437 35.0216 70.0437Z" fill="#DDE5EE"/>
<path d="M66.3693 70.0437C68.3983 70.0437 70.0432 68.3988 70.0432 66.3698C70.0432 64.3407 68.3983 62.6958 66.3693 62.6958C64.3402 62.6958 62.6953 64.3407 62.6953 66.3698C62.6953 68.3988 64.3402 70.0437 66.3693 70.0437Z" fill="#DDE5EE"/>
<path d="M97.7169 70.0437C99.746 70.0437 101.391 68.3988 101.391 66.3698C101.391 64.3407 99.746 62.6958 97.7169 62.6958C95.6879 62.6958 94.043 64.3407 94.043 66.3698C94.043 68.3988 95.6879 70.0437 97.7169 70.0437Z" fill="#DDE5EE"/>
<path d="M129.065 70.0437C131.094 70.0437 132.739 68.3988 132.739 66.3698C132.739 64.3407 131.094 62.6958 129.065 62.6958C127.036 62.6958 125.391 64.3407 125.391 66.3698C125.391 68.3988 127.036 70.0437 129.065 70.0437Z" fill="#DDE5EE"/>
<path d="M160.412 70.0437C162.441 70.0437 164.086 68.3988 164.086 66.3698C164.086 64.3407 162.441 62.6958 160.412 62.6958C158.383 62.6958 156.738 64.3407 156.738 66.3698C156.738 68.3988 158.383 70.0437 160.412 70.0437Z" fill="#DDE5EE"/>
<path d="M191.76 70.0437C193.789 70.0437 195.434 68.3988 195.434 66.3698C195.434 64.3407 193.789 62.6958 191.76 62.6958C189.731 62.6958 188.086 64.3407 188.086 66.3698C188.086 68.3988 189.731 70.0437 191.76 70.0437Z" fill="#DDE5EE"/>
<path d="M223.108 70.0437C225.137 70.0437 226.782 68.3988 226.782 66.3698C226.782 64.3407 225.137 62.6958 223.108 62.6958C221.078 62.6958 219.434 64.3407 219.434 66.3698C219.434 68.3988 221.078 70.0437 223.108 70.0437Z" fill="#DDE5EE"/>
<path d="M254.455 70.0437C256.484 70.0437 258.129 68.3988 258.129 66.3698C258.129 64.3407 256.484 62.6958 254.455 62.6958C252.426 62.6958 250.781 64.3407 250.781 66.3698C250.781 68.3988 252.426 70.0437 254.455 70.0437Z" fill="#DDE5EE"/>
<path d="M285.803 70.0437C287.832 70.0437 289.477 68.3988 289.477 66.3698C289.477 64.3407 287.832 62.6958 285.803 62.6958C283.774 62.6958 282.129 64.3407 282.129 66.3698C282.129 68.3988 283.774 70.0437 285.803 70.0437Z" fill="#DDE5EE"/>
<path d="M317.151 70.0437C319.18 70.0437 320.824 68.3988 320.824 66.3698C320.824 64.3407 319.18 62.6958 317.151 62.6958C315.121 62.6958 313.477 64.3407 313.477 66.3698C313.477 68.3988 315.121 70.0437 317.151 70.0437Z" fill="#DDE5EE"/>
<path d="M3.67395 101.392C5.70303 101.392 7.34791 99.7467 7.34791 97.7177C7.34791 95.6886 5.70303 94.0437 3.67395 94.0437C1.64488 94.0437 0 95.6886 0 97.7177C0 99.7467 1.64488 101.392 3.67395 101.392Z" fill="#DDE5EE"/>
<path d="M35.0216 101.392C37.0507 101.392 38.6956 99.7467 38.6956 97.7177C38.6956 95.6886 37.0507 94.0437 35.0216 94.0437C32.9925 94.0437 31.3477 95.6886 31.3477 97.7177C31.3477 99.7467 32.9925 101.392 35.0216 101.392Z" fill="#DDE5EE"/>
<path d="M66.3693 101.392C68.3983 101.392 70.0432 99.7467 70.0432 97.7177C70.0432 95.6886 68.3983 94.0437 66.3693 94.0437C64.3402 94.0437 62.6953 95.6886 62.6953 97.7177C62.6953 99.7467 64.3402 101.392 66.3693 101.392Z" fill="#DDE5EE"/>
<path d="M97.7169 101.392C99.746 101.392 101.391 99.7467 101.391 97.7177C101.391 95.6886 99.746 94.0437 97.7169 94.0437C95.6879 94.0437 94.043 95.6886 94.043 97.7177C94.043 99.7467 95.6879 101.392 97.7169 101.392Z" fill="#DDE5EE"/>
<path d="M129.065 101.392C131.094 101.392 132.739 99.7467 132.739 97.7177C132.739 95.6886 131.094 94.0437 129.065 94.0437C127.036 94.0437 125.391 95.6886 125.391 97.7177C125.391 99.7467 127.036 101.392 129.065 101.392Z" fill="#DDE5EE"/>
<path d="M160.412 101.392C162.441 101.392 164.086 99.7467 164.086 97.7177C164.086 95.6886 162.441 94.0437 160.412 94.0437C158.383 94.0437 156.738 95.6886 156.738 97.7177C156.738 99.7467 158.383 101.392 160.412 101.392Z" fill="#DDE5EE"/>
<path d="M191.76 101.392C193.789 101.392 195.434 99.7467 195.434 97.7177C195.434 95.6886 193.789 94.0437 191.76 94.0437C189.731 94.0437 188.086 95.6886 188.086 97.7177C188.086 99.7467 189.731 101.392 191.76 101.392Z" fill="#DDE5EE"/>
<path d="M223.108 101.392C225.137 101.392 226.782 99.7467 226.782 97.7177C226.782 95.6886 225.137 94.0437 223.108 94.0437C221.078 94.0437 219.434 95.6886 219.434 97.7177C219.434 99.7467 221.078 101.392 223.108 101.392Z" fill="#DDE5EE"/>
<path d="M254.455 101.392C256.484 101.392 258.129 99.7467 258.129 97.7177C258.129 95.6886 256.484 94.0437 254.455 94.0437C252.426 94.0437 250.781 95.6886 250.781 97.7177C250.781 99.7467 252.426 101.392 254.455 101.392Z" fill="#DDE5EE"/>
<path d="M285.803 101.392C287.832 101.392 289.477 99.7467 289.477 97.7177C289.477 95.6886 287.832 94.0437 285.803 94.0437C283.774 94.0437 282.129 95.6886 282.129 97.7177C282.129 99.7467 283.774 101.392 285.803 101.392Z" fill="#DDE5EE"/>
<path d="M317.151 101.392C319.18 101.392 320.824 99.7467 320.824 97.7177C320.824 95.6886 319.18 94.0437 317.151 94.0437C315.121 94.0437 313.477 95.6886 313.477 97.7177C313.477 99.7467 315.121 101.392 317.151 101.392Z" fill="#DDE5EE"/>
<path d="M3.67395 132.74C5.70303 132.74 7.34791 131.095 7.34791 129.066C7.34791 127.036 5.70303 125.392 3.67395 125.392C1.64488 125.392 0 127.036 0 129.066C0 131.095 1.64488 132.74 3.67395 132.74Z" fill="#DDE5EE"/>
<path d="M35.0216 132.74C37.0507 132.74 38.6956 131.095 38.6956 129.066C38.6956 127.036 37.0507 125.392 35.0216 125.392C32.9925 125.392 31.3477 127.036 31.3477 129.066C31.3477 131.095 32.9925 132.74 35.0216 132.74Z" fill="#DDE5EE"/>
<path d="M66.3693 132.74C68.3983 132.74 70.0432 131.095 70.0432 129.066C70.0432 127.036 68.3983 125.392 66.3693 125.392C64.3402 125.392 62.6953 127.036 62.6953 129.066C62.6953 131.095 64.3402 132.74 66.3693 132.74Z" fill="#DDE5EE"/>
<path d="M97.7169 132.74C99.746 132.74 101.391 131.095 101.391 129.066C101.391 127.036 99.746 125.392 97.7169 125.392C95.6879 125.392 94.043 127.036 94.043 129.066C94.043 131.095 95.6879 132.74 97.7169 132.74Z" fill="#DDE5EE"/>
<path d="M129.065 132.74C131.094 132.74 132.739 131.095 132.739 129.066C132.739 127.036 131.094 125.392 129.065 125.392C127.036 125.392 125.391 127.036 125.391 129.066C125.391 131.095 127.036 132.74 129.065 132.74Z" fill="#DDE5EE"/>
<path d="M160.412 132.74C162.441 132.74 164.086 131.095 164.086 129.066C164.086 127.036 162.441 125.392 160.412 125.392C158.383 125.392 156.738 127.036 156.738 129.066C156.738 131.095 158.383 132.74 160.412 132.74Z" fill="#DDE5EE"/>
<path d="M191.76 132.74C193.789 132.74 195.434 131.095 195.434 129.066C195.434 127.036 193.789 125.392 191.76 125.392C189.731 125.392 188.086 127.036 188.086 129.066C188.086 131.095 189.731 132.74 191.76 132.74Z" fill="#DDE5EE"/>
<path d="M223.108 132.74C225.137 132.74 226.782 131.095 226.782 129.066C226.782 127.036 225.137 125.392 223.108 125.392C221.078 125.392 219.434 127.036 219.434 129.066C219.434 131.095 221.078 132.74 223.108 132.74Z" fill="#DDE5EE"/>
<path d="M254.455 132.74C256.484 132.74 258.129 131.095 258.129 129.066C258.129 127.036 256.484 125.392 254.455 125.392C252.426 125.392 250.781 127.036 250.781 129.066C250.781 131.095 252.426 132.74 254.455 132.74Z" fill="#DDE5EE"/>
<path d="M285.803 132.74C287.832 132.74 289.477 131.095 289.477 129.066C289.477 127.036 287.832 125.392 285.803 125.392C283.774 125.392 282.129 127.036 282.129 129.066C282.129 131.095 283.774 132.74 285.803 132.74Z" fill="#DDE5EE"/>
<path d="M317.151 132.74C319.18 132.74 320.824 131.095 320.824 129.066C320.824 127.036 319.18 125.392 317.151 125.392C315.121 125.392 313.477 127.036 313.477 129.066C313.477 131.095 315.121 132.74 317.151 132.74Z" fill="#DDE5EE"/>
<path d="M3.67395 164.087C5.70303 164.087 7.34791 162.443 7.34791 160.413C7.34791 158.384 5.70303 156.74 3.67395 156.74C1.64488 156.74 0 158.384 0 160.413C0 162.443 1.64488 164.087 3.67395 164.087Z" fill="#DDE5EE"/>
<path d="M35.0216 164.087C37.0507 164.087 38.6956 162.443 38.6956 160.413C38.6956 158.384 37.0507 156.74 35.0216 156.74C32.9925 156.74 31.3477 158.384 31.3477 160.413C31.3477 162.443 32.9925 164.087 35.0216 164.087Z" fill="#DDE5EE"/>
<path d="M66.3693 164.087C68.3983 164.087 70.0432 162.443 70.0432 160.413C70.0432 158.384 68.3983 156.74 66.3693 156.74C64.3402 156.74 62.6953 158.384 62.6953 160.413C62.6953 162.443 64.3402 164.087 66.3693 164.087Z" fill="#DDE5EE"/>
<path d="M97.7169 164.087C99.746 164.087 101.391 162.443 101.391 160.413C101.391 158.384 99.746 156.74 97.7169 156.74C95.6879 156.74 94.043 158.384 94.043 160.413C94.043 162.443 95.6879 164.087 97.7169 164.087Z" fill="#DDE5EE"/>
<path d="M129.065 164.087C131.094 164.087 132.739 162.443 132.739 160.413C132.739 158.384 131.094 156.74 129.065 156.74C127.036 156.74 125.391 158.384 125.391 160.413C125.391 162.443 127.036 164.087 129.065 164.087Z" fill="#DDE5EE"/>
<path d="M160.412 164.087C162.441 164.087 164.086 162.443 164.086 160.413C164.086 158.384 162.441 156.74 160.412 156.74C158.383 156.74 156.738 158.384 156.738 160.413C156.738 162.443 158.383 164.087 160.412 164.087Z" fill="#DDE5EE"/>
<path d="M191.76 164.087C193.789 164.087 195.434 162.443 195.434 160.413C195.434 158.384 193.789 156.74 191.76 156.74C189.731 156.74 188.086 158.384 188.086 160.413C188.086 162.443 189.731 164.087 191.76 164.087Z" fill="#DDE5EE"/>
<path d="M223.108 164.087C225.137 164.087 226.782 162.443 226.782 160.413C226.782 158.384 225.137 156.74 223.108 156.74C221.078 156.74 219.434 158.384 219.434 160.413C219.434 162.443 221.078 164.087 223.108 164.087Z" fill="#DDE5EE"/>
<path d="M254.455 164.087C256.484 164.087 258.129 162.443 258.129 160.413C258.129 158.384 256.484 156.74 254.455 156.74C252.426 156.74 250.781 158.384 250.781 160.413C250.781 162.443 252.426 164.087 254.455 164.087Z" fill="#DDE5EE"/>
<path d="M285.803 164.087C287.832 164.087 289.477 162.443 289.477 160.413C289.477 158.384 287.832 156.74 285.803 156.74C283.774 156.74 282.129 158.384 282.129 160.413C282.129 162.443 283.774 164.087 285.803 164.087Z" fill="#DDE5EE"/>
<path d="M317.151 164.087C319.18 164.087 320.824 162.443 320.824 160.413C320.824 158.384 319.18 156.74 317.151 156.74C315.121 156.74 313.477 158.384 313.477 160.413C313.477 162.443 315.121 164.087 317.151 164.087Z" fill="#DDE5EE"/>
<path d="M3.67395 195.435C5.70303 195.435 7.34791 193.79 7.34791 191.761C7.34791 189.732 5.70303 188.087 3.67395 188.087C1.64488 188.087 0 189.732 0 191.761C0 193.79 1.64488 195.435 3.67395 195.435Z" fill="#DDE5EE"/>
<path d="M35.0216 195.435C37.0507 195.435 38.6956 193.79 38.6956 191.761C38.6956 189.732 37.0507 188.087 35.0216 188.087C32.9925 188.087 31.3477 189.732 31.3477 191.761C31.3477 193.79 32.9925 195.435 35.0216 195.435Z" fill="#DDE5EE"/>
<path d="M66.3693 195.435C68.3983 195.435 70.0432 193.79 70.0432 191.761C70.0432 189.732 68.3983 188.087 66.3693 188.087C64.3402 188.087 62.6953 189.732 62.6953 191.761C62.6953 193.79 64.3402 195.435 66.3693 195.435Z" fill="#DDE5EE"/>
<path d="M97.7169 195.435C99.746 195.435 101.391 193.79 101.391 191.761C101.391 189.732 99.746 188.087 97.7169 188.087C95.6879 188.087 94.043 189.732 94.043 191.761C94.043 193.79 95.6879 195.435 97.7169 195.435Z" fill="#DDE5EE"/>
<path d="M129.065 195.435C131.094 195.435 132.739 193.79 132.739 191.761C132.739 189.732 131.094 188.087 129.065 188.087C127.036 188.087 125.391 189.732 125.391 191.761C125.391 193.79 127.036 195.435 129.065 195.435Z" fill="#DDE5EE"/>
<path d="M160.412 195.435C162.441 195.435 164.086 193.79 164.086 191.761C164.086 189.732 162.441 188.087 160.412 188.087C158.383 188.087 156.738 189.732 156.738 191.761C156.738 193.79 158.383 195.435 160.412 195.435Z" fill="#DDE5EE"/>
<path d="M191.76 195.435C193.789 195.435 195.434 193.79 195.434 191.761C195.434 189.732 193.789 188.087 191.76 188.087C189.731 188.087 188.086 189.732 188.086 191.761C188.086 193.79 189.731 195.435 191.76 195.435Z" fill="#DDE5EE"/>
<path d="M223.108 195.435C225.137 195.435 226.782 193.79 226.782 191.761C226.782 189.732 225.137 188.087 223.108 188.087C221.078 188.087 219.434 189.732 219.434 191.761C219.434 193.79 221.078 195.435 223.108 195.435Z" fill="#DDE5EE"/>
<path d="M254.455 195.435C256.484 195.435 258.129 193.79 258.129 191.761C258.129 189.732 256.484 188.087 254.455 188.087C252.426 188.087 250.781 189.732 250.781 191.761C250.781 193.79 252.426 195.435 254.455 195.435Z" fill="#DDE5EE"/>
<path d="M285.803 195.435C287.832 195.435 289.477 193.79 289.477 191.761C289.477 189.732 287.832 188.087 285.803 188.087C283.774 188.087 282.129 189.732 282.129 191.761C282.129 193.79 283.774 195.435 285.803 195.435Z" fill="#DDE5EE"/>
<path d="M317.151 195.435C319.18 195.435 320.824 193.79 320.824 191.761C320.824 189.732 319.18 188.087 317.151 188.087C315.121 188.087 313.477 189.732 313.477 191.761C313.477 193.79 315.121 195.435 317.151 195.435Z" fill="#DDE5EE"/>
</svg>
