<svg width="161" height="160" viewBox="0 0 161 160" fill="none" xmlns="http://www.w3.org/2000/svg">
<g clip-path="url(#clip0)">
<path d="M0.5 63.7501L80.5 16.25L160.5 63.7501V133.75H0.5V63.7501Z" fill="#E59D1F"/>
<path d="M17.9985 19.7499H142.998C145.748 19.7499 147.998 21.9998 147.998 24.7499V112.25C147.998 115 145.748 117.25 142.998 117.25H17.9985C15.2483 117.25 12.9984 115 12.9984 112.25V24.7499C12.9987 22.0001 15.2487 19.7499 17.9985 19.7499Z" fill="#F4FCFF"/>
<path d="M132.5 29.75L140.5 19.7499H143C145.75 19.7499 148 21.9998 148 24.7499V29.75H132.5ZM67.5004 29.75L75.5003 19.7499H93.0002L85.0002 29.75H67.5004ZM13.0005 29.75V24.7499C13.0005 21.9998 15.2504 19.7499 18.0005 19.7499H30.5006L22.5004 29.75H13.0005Z" fill="#89B4FF"/>
<path d="M51.3748 64.125L52.3749 69.3752L44.3749 56.8751L33.125 74.3749C33 75.9999 40.2499 77.2497 49.2499 77.2497C58.2499 77.2497 65.4999 75.9999 65.4999 74.3749L55.6249 59.7499L51.3748 64.125ZM52.3749 57.2499C54.1249 57.2499 55.4998 55.875 55.4998 54.1249C55.4998 52.3749 54.1249 51 52.3749 51C50.6248 51 49.2499 52.3749 49.2499 54.1249C49.2499 55.875 50.6248 57.2499 52.3749 57.2499ZM78 56H128C129.375 56 130.5 54.8749 130.5 53.5C130.5 52.1251 129.375 51 128 51H78C76.6251 51 75.5 52.1251 75.5 53.5C75.5 54.8749 76.6248 56 78 56ZM128 61.0001H78C76.6251 61.0001 75.5 62.1252 75.5 63.5001C75.5 64.875 76.6251 66.0001 78 66.0001H128C129.375 66.0001 130.5 64.875 130.5 63.5001C130.5 62.1249 129.375 61.0001 128 61.0001ZM115.5 70.9998H78C76.6251 70.9998 75.5 72.125 75.5 73.4999C75.5 74.8748 76.6251 75.9999 78 75.9999H115.5C116.875 75.9999 118 74.8748 118 73.4999C118 72.125 116.875 70.9998 115.5 70.9998Z" fill="#D0DBE8"/>
<path d="M100.001 29.75L108.001 19.7499H125.501L117.501 29.75H100.001ZM35.001 29.75L43.0009 19.7499H60.5007L52.5008 29.75H35.001Z" fill="#EE7875"/>
<path d="M160.5 148.75C160.5 152.875 157.125 156.25 153 156.25H8.00006C3.87504 156.25 0.5 152.875 0.5 148.75V63.75L80.5 98.75L160.5 63.75V148.75H160.5Z" fill="#FEDE98"/>
<path d="M160.5 148.75C160.5 152.875 157.125 156.25 153 156.25H8.00006C3.87504 156.25 0.5 152.875 0.5 148.75V133.75L160.5 63.7498V148.75Z" fill="#FECA57"/>
</g>
<defs>
<clipPath id="clip0">
<rect width="160" height="160" fill="white" transform="translate(0.5)"/>
</clipPath>
</defs>
</svg>
