<svg width="3" height="12" viewBox="0 0 3 12" fill="none" xmlns="http://www.w3.org/2000/svg">
<path d="M1.30621 0.5C0.633984 0.5 0.0839844 1.05 0.0839844 1.72222C0.0839844 2.39444 0.633984 2.94444 1.30621 2.94444C1.97843 2.94444 2.52843 2.39444 2.52843 1.72222C2.52843 1.05 1.97843 0.5 1.30621 0.5ZM1.30621 9.05556C0.633984 9.05556 0.0839844 9.60556 0.0839844 10.2778C0.0839844 10.95 0.633984 11.5 1.30621 11.5C1.97843 11.5 2.52843 10.95 2.52843 10.2778C2.52843 9.60556 1.97843 9.05556 1.30621 9.05556ZM1.30621 4.77778C0.633984 4.77778 0.0839844 5.32778 0.0839844 6C0.0839844 6.67222 0.633984 7.22222 1.30621 7.22222C1.97843 7.22222 2.52843 6.67222 2.52843 6C2.52843 5.32778 1.97843 4.77778 1.30621 4.77778Z" fill="#0D0F11"/>
</svg>
