<svg width="138" height="39" viewBox="0 0 138 39" fill="none" xmlns="http://www.w3.org/2000/svg">
<path d="M17.2249 0L2.75661 14.4683C-0.918871 18.1438 -0.918871 24.1054 2.75661 27.7808L3.01554 28.0398C4.79644 29.8207 7.68251 29.8207 9.46342 28.0398L15.785 21.7182L15.5261 21.4593C13.7452 19.6784 10.8591 19.6784 9.0782 21.4593L17.2249 13.3126C20.9004 9.63709 20.9004 3.67548 17.2249 0Z" fill="#1D4ED8"/>
<path d="M28.492 11.2255L28.2331 10.9665C26.4522 9.18563 23.5661 9.18563 21.7852 10.9665L15.2931 17.4586L15.552 17.7176C17.3329 19.4985 20.219 19.4985 21.9999 17.7176L14.03 25.6874C10.3546 29.3629 10.3546 35.3245 14.03 39L28.4983 24.5317C32.1675 20.8626 32.1675 14.9009 28.492 11.2255Z" fill="#1D4ED8"/>
<path d="M46.024 14.1549C47.1166 14.6475 47.9565 15.3548 48.5501 16.2642C49.1438 17.1736 49.4343 18.2535 49.4343 19.4976C49.4343 20.7291 49.1374 21.8027 48.5501 22.7184C47.9565 23.6341 47.1166 24.3414 46.024 24.8277C44.9315 25.314 43.6432 25.5603 42.1591 25.5603H38.7804V30.183H34.9028V13.4223H42.1591C43.6432 13.4097 44.9315 13.656 46.024 14.1549ZM44.6031 21.6385C45.2094 21.1333 45.5125 20.4196 45.5125 19.4976C45.5125 18.5566 45.2094 17.8304 44.6031 17.3315C43.9968 16.8263 43.1127 16.58 41.9444 16.58H38.7804V22.3963H41.9444C43.1064 22.39 43.9968 22.1374 44.6031 21.6385Z" fill="#1D4ED8"/>
<path d="M61.6017 18.5259C62.6689 19.4732 63.2057 20.9067 63.2057 22.8266V30.1775H59.7071V28.5735C59.0061 29.7734 57.6988 30.367 55.779 30.367C54.7875 30.367 53.9286 30.1965 53.2024 29.8618C52.4761 29.5271 51.9204 29.0661 51.5351 28.4724C51.1499 27.8788 50.9604 27.2094 50.9604 26.4578C50.9604 25.2579 51.4088 24.317 52.3119 23.6349C53.215 22.9466 54.6043 22.6055 56.4926 22.6055H59.4608C59.4608 21.7909 59.2145 21.1657 58.7156 20.7236C58.223 20.2815 57.4778 20.0668 56.4863 20.0668C55.7979 20.0668 55.1222 20.1742 54.4654 20.3889C53.8023 20.6036 53.2402 20.8941 52.7792 21.2604L51.4404 18.6522C52.1414 18.1596 52.9876 17.7744 53.9665 17.5028C54.9454 17.2313 55.9558 17.0986 56.9978 17.0986C58.9998 17.0986 60.5281 17.5723 61.6017 18.5259ZM58.4188 27.4114C58.9114 27.1146 59.265 26.6789 59.4734 26.1042V24.7843H56.9094C55.3748 24.7843 54.6107 25.2895 54.6107 26.2937C54.6107 26.7736 54.8001 27.1525 55.1727 27.4304C55.5453 27.7083 56.0632 27.8472 56.72 27.8472C57.3515 27.8535 57.9199 27.7019 58.4188 27.4114Z" fill="#1D4ED8"/>
<path d="M71.9597 17.5786C72.7175 17.2565 73.5891 17.0986 74.5805 17.0986V20.5468C74.1637 20.5152 73.8859 20.4962 73.7406 20.4962C72.6733 20.4962 71.8334 20.7931 71.2271 21.393C70.6209 21.993 70.3177 22.8897 70.3177 24.0896V30.1712H66.5791V17.2881H70.1472V18.9869C70.5956 18.368 71.2019 17.9007 71.9597 17.5786Z" fill="#1D4ED8"/>
<path d="M82.3417 25.1169L80.5482 26.8915V30.1691H76.8096V12.3979H80.5482V22.4582L86.0109 17.286H90.4632L85.1015 22.7487L90.9431 30.1691H86.4151L82.3417 25.1169Z" fill="#1D4ED8"/>
<path d="M104.004 14.1549C105.096 14.6475 105.942 15.3548 106.53 16.2642C107.117 17.1736 107.414 18.2535 107.414 19.4976C107.414 20.7291 107.117 21.8027 106.53 22.7184C105.936 23.6341 105.096 24.3414 104.004 24.8277C102.911 25.314 101.623 25.5603 100.139 25.5603H96.7599V30.183H92.8823V13.4223H100.139C101.616 13.4097 102.905 13.656 104.004 14.1549ZM102.576 21.6385C103.183 21.1333 103.486 20.4196 103.486 19.4976C103.486 18.5566 103.183 17.8304 102.576 17.3315C101.97 16.8263 101.086 16.58 99.9175 16.58H96.7536V22.3963H99.9175C101.08 22.39 101.97 22.1374 102.576 21.6385Z" fill="#1D4ED8"/>
<path d="M119.576 18.5259C120.644 19.4732 121.18 20.9067 121.18 22.8266V30.1775H117.682V28.5735C116.981 29.7734 115.673 30.367 113.754 30.367C112.762 30.367 111.903 30.1965 111.177 29.8618C110.451 29.5271 109.895 29.0661 109.516 28.4724C109.131 27.8788 108.941 27.2094 108.941 26.4578C108.941 25.2579 109.39 24.317 110.293 23.6349C111.196 22.9466 112.585 22.6055 114.474 22.6055H117.442C117.442 21.7909 117.195 21.1657 116.697 20.7236C116.204 20.2815 115.459 20.0668 114.467 20.0668C113.779 20.0668 113.103 20.1742 112.446 20.3889C111.79 20.6036 111.221 20.8941 110.76 21.2604L109.421 18.6522C110.122 18.1596 110.969 17.7744 111.947 17.5028C112.926 17.2313 113.937 17.0986 114.979 17.0986C116.974 17.0986 118.509 17.5723 119.576 18.5259ZM116.393 27.4114C116.886 27.1146 117.24 26.6789 117.448 26.1042V24.7843H114.884C113.349 24.7843 112.585 25.2895 112.585 26.2937C112.585 26.7736 112.775 27.1525 113.147 27.4304C113.52 27.7083 114.038 27.8472 114.695 27.8472C115.332 27.8535 115.895 27.7019 116.393 27.4114Z" fill="#1D4ED8"/>
<path d="M137.111 17.2925L131.294 30.965C130.701 32.4491 129.975 33.4974 129.103 34.1037C128.232 34.71 127.183 35.0131 125.952 35.0131C125.282 35.0131 124.619 34.9121 123.962 34.7037C123.306 34.4953 122.775 34.2111 122.358 33.8385L123.722 31.1797C124.013 31.4323 124.341 31.6344 124.714 31.7797C125.087 31.9249 125.459 31.9944 125.825 31.9944C126.337 31.9944 126.754 31.8681 127.07 31.6218C127.392 31.3755 127.676 30.965 127.935 30.3903L127.985 30.2703L122.403 17.2925H126.261L129.88 26.0328L133.517 17.2925H137.111V17.2925Z" fill="#1D4ED8"/>
</svg>
