<svg width="92" height="23" viewBox="0 0 92 23" fill="none" xmlns="http://www.w3.org/2000/svg">
<path d="M5.79239 15.8307C6.83856 15.8307 7.60011 15.6538 8.07704 15.3C8.55397 14.9461 8.79244 14.4461 8.79244 13.7999C8.79244 13.4153 8.70782 13.0845 8.53859 12.8076C8.38474 12.5307 8.15397 12.2845 7.84627 12.0691C7.55396 11.8384 7.19241 11.6307 6.76164 11.4461C6.33086 11.2461 5.83855 11.0537 5.28469 10.8691C4.73084 10.6691 4.19237 10.4537 3.66928 10.223C3.16158 9.97681 2.70773 9.6768 2.30773 9.32295C1.9231 8.9691 1.60772 8.54602 1.36156 8.0537C1.13079 7.56139 1.0154 6.96907 1.0154 6.27675C1.0154 4.83058 1.51541 3.69979 2.51542 2.88439C3.51544 2.05361 4.87699 1.63822 6.6001 1.63822C7.60011 1.63822 8.48474 1.75361 9.25398 1.98438C10.0386 2.19977 10.654 2.43823 11.1002 2.69978L10.2001 5.05366C9.67706 4.76134 9.10013 4.53826 8.46935 4.38442C7.85396 4.23057 7.21549 4.15364 6.55394 4.15364C5.76931 4.15364 5.15392 4.31518 4.70776 4.63827C4.27699 4.96135 4.0616 5.4152 4.0616 5.99982C4.0616 6.35368 4.13083 6.66137 4.26929 6.92292C4.42314 7.16907 4.63084 7.39215 4.89238 7.59216C5.16931 7.79216 5.4847 7.97678 5.83855 8.14601C6.20778 8.31524 6.60779 8.47678 7.03856 8.63063C7.79242 8.90756 8.46166 9.19218 9.04629 9.48449C9.64629 9.76142 10.1463 10.0999 10.5463 10.4999C10.9617 10.8845 11.2771 11.3461 11.4925 11.8845C11.7079 12.4076 11.8156 13.0461 11.8156 13.7999C11.8156 15.2461 11.3002 16.3692 10.2694 17.1692C9.25398 17.9538 7.76165 18.3462 5.79239 18.3462C5.13084 18.3462 4.52314 18.3 3.96929 18.2077C3.43082 18.1308 2.9462 18.0308 2.51542 17.9077C2.10003 17.7846 1.73849 17.6615 1.43079 17.5385C1.12309 17.4 0.876936 17.2769 0.692318 17.1692L1.54618 14.7923C1.96157 15.023 2.52311 15.2538 3.23082 15.4846C3.93852 15.7154 4.79238 15.8307 5.79239 15.8307ZM21.3243 12.023C21.3243 10.7768 21.0397 9.80757 20.4704 9.11525C19.9166 8.42294 19.0166 8.07678 17.7704 8.07678C17.5088 8.07678 17.2319 8.09216 16.9396 8.12293C16.6627 8.13832 16.3858 8.18447 16.1088 8.2614V15.1615C16.355 15.3307 16.6781 15.4923 17.0781 15.6461C17.4935 15.7846 17.9319 15.8538 18.3935 15.8538C19.4089 15.8538 20.1473 15.5077 20.6089 14.8153C21.0858 14.123 21.3243 13.1922 21.3243 12.023ZM24.1859 11.9768C24.1859 12.8999 24.0628 13.7461 23.8166 14.5153C23.5859 15.2846 23.2474 15.9461 22.8012 16.5C22.3551 17.0538 21.7935 17.4846 21.1166 17.7923C20.455 18.1 19.7012 18.2538 18.855 18.2538C18.2858 18.2538 17.7627 18.1846 17.2858 18.0462C16.8088 17.9077 16.4165 17.7538 16.1088 17.5846V22.2693H13.3165V6.32291C13.8857 6.16906 14.5857 6.0229 15.4165 5.88444C16.2473 5.74597 17.1242 5.67674 18.0473 5.67674C19.0012 5.67674 19.855 5.8229 20.6089 6.11521C21.3628 6.40752 22.0012 6.83061 22.5243 7.38446C23.0628 7.92293 23.4705 8.58448 23.7474 9.3691C24.0397 10.1383 24.1859 11.0076 24.1859 11.9768ZM30.3868 16.0384C31.2484 16.0384 31.9022 15.9923 32.3484 15.9V12.8076C32.1945 12.7615 31.9714 12.7153 31.6791 12.6692C31.3868 12.623 31.0637 12.5999 30.7099 12.5999C30.4022 12.5999 30.0868 12.623 29.7637 12.6692C29.456 12.7153 29.1714 12.7999 28.9099 12.923C28.6637 13.0461 28.4637 13.223 28.3098 13.4538C28.156 13.6692 28.0791 13.9461 28.0791 14.2846C28.0791 14.9461 28.2868 15.4077 28.7022 15.6692C29.1176 15.9154 29.6791 16.0384 30.3868 16.0384ZM30.156 5.63059C31.0791 5.63059 31.8561 5.74598 32.4868 5.97675C33.1176 6.20752 33.6176 6.5306 33.9869 6.94599C34.3715 7.36138 34.6407 7.86908 34.7946 8.46909C34.9638 9.05372 35.0484 9.69988 35.0484 10.4076V17.7231C34.6176 17.8154 33.9638 17.9231 33.0868 18.0462C32.2253 18.1846 31.2484 18.2538 30.156 18.2538C29.4329 18.2538 28.7714 18.1846 28.1714 18.0462C27.5714 17.9077 27.056 17.6846 26.6252 17.3769C26.2098 17.0692 25.879 16.6692 25.6329 16.1769C25.4021 15.6846 25.2867 15.0769 25.2867 14.3538C25.2867 13.6615 25.4175 13.0769 25.679 12.5999C25.956 12.123 26.3252 11.7384 26.7867 11.4461C27.2483 11.1384 27.7791 10.923 28.3791 10.7999C28.9945 10.6614 29.6329 10.5922 30.2945 10.5922C30.6022 10.5922 30.9253 10.6153 31.2637 10.6614C31.6022 10.6922 31.9637 10.7537 32.3484 10.846V10.3845C32.3484 10.0614 32.3099 9.75373 32.233 9.46141C32.1561 9.1691 32.0176 8.91525 31.8176 8.69986C31.633 8.46909 31.3791 8.29217 31.056 8.16909C30.7483 8.04601 30.356 7.98447 29.8791 7.98447C29.2329 7.98447 28.6406 8.03062 28.1022 8.12293C27.5637 8.21524 27.1252 8.32294 26.7867 8.44601L26.4406 6.18444C26.7944 6.06136 27.3098 5.93829 27.9868 5.81521C28.6637 5.69213 29.3868 5.63059 30.156 5.63059ZM44.4219 8.44601C44.1911 8.36909 43.8681 8.29217 43.4527 8.21524C43.0527 8.12293 42.5834 8.07678 42.045 8.07678C41.7373 8.07678 41.4065 8.10755 41.0526 8.16909C40.7142 8.23063 40.4757 8.28447 40.3372 8.33063V18H37.5449V6.50752C38.0834 6.30752 38.7526 6.1229 39.5526 5.95367C40.368 5.76905 41.268 5.67674 42.2527 5.67674C42.4373 5.67674 42.6527 5.69213 42.8988 5.7229C43.145 5.73828 43.3911 5.76905 43.6373 5.81521C43.8835 5.84598 44.1219 5.89213 44.3527 5.95367C44.5835 5.99982 44.7681 6.04598 44.9065 6.09213L44.4219 8.44601ZM48.7217 10.6384C49.0755 10.2691 49.4525 9.8768 49.8525 9.46141C50.2525 9.03064 50.6448 8.60755 51.0294 8.19216C51.414 7.76139 51.7756 7.35369 52.114 6.96907C52.4679 6.56906 52.7679 6.22291 53.0141 5.93059H56.3141C55.5449 6.79214 54.7295 7.68447 53.8679 8.60756C53.0217 9.53065 52.1679 10.4307 51.3063 11.3076C51.7679 11.6922 52.2525 12.1615 52.7602 12.7153C53.2679 13.2538 53.7602 13.8307 54.2371 14.4461C54.7141 15.0615 55.1602 15.6769 55.5756 16.2923C55.991 16.9077 56.3372 17.4769 56.6141 18H53.3833C53.1064 17.5231 52.7833 17.0231 52.414 16.5C52.0602 15.9769 51.6756 15.4692 51.2602 14.9769C50.8448 14.4846 50.4217 14.023 49.9909 13.5922C49.5602 13.1461 49.1371 12.7692 48.7217 12.4615V18H45.9293V0.553591L48.7217 0.0920464V10.6384ZM62.3784 1.84592C64.7015 1.84592 66.4784 2.269 67.7092 3.11517C68.9554 3.96133 69.5785 5.28443 69.5785 7.08446C69.5785 8.02293 69.4092 8.83064 69.0708 9.50757C68.7477 10.1691 68.2708 10.7153 67.64 11.1461C67.0092 11.5614 66.24 11.8691 65.3323 12.0691C64.4246 12.2691 63.3861 12.3691 62.2168 12.3691H60.763V18H57.8552V2.23823C58.5322 2.08438 59.2783 1.98438 60.0937 1.93823C60.9245 1.87669 61.6861 1.84592 62.3784 1.84592ZM62.5861 4.36134C61.8476 4.36134 61.2399 4.38442 60.763 4.43057V9.8768H62.1707C63.5707 9.8768 64.6476 9.68449 65.4015 9.29987C66.1554 8.89987 66.5323 8.1537 66.5323 7.06138C66.5323 6.53829 66.4323 6.09983 66.2323 5.74598C66.0323 5.39212 65.7553 5.1152 65.4015 4.91519C65.0476 4.71519 64.6246 4.57673 64.1322 4.4998C63.6553 4.40749 63.1399 4.36134 62.5861 4.36134ZM75.035 16.0384C75.8965 16.0384 76.5504 15.9923 76.9966 15.9V12.8076C76.8427 12.7615 76.6196 12.7153 76.3273 12.6692C76.035 12.623 75.7119 12.5999 75.3581 12.5999C75.0504 12.5999 74.735 12.623 74.4119 12.6692C74.1042 12.7153 73.8196 12.7999 73.558 12.923C73.3119 13.0461 73.1119 13.223 72.958 13.4538C72.8042 13.6692 72.7273 13.9461 72.7273 14.2846C72.7273 14.9461 72.935 15.4077 73.3504 15.6692C73.7657 15.9154 74.3273 16.0384 75.035 16.0384ZM74.8042 5.63059C75.7273 5.63059 76.5042 5.74598 77.135 5.97675C77.7658 6.20752 78.2658 6.5306 78.635 6.94599C79.0197 7.36138 79.2889 7.86908 79.4427 8.46909C79.612 9.05372 79.6966 9.69988 79.6966 10.4076V17.7231C79.2658 17.8154 78.612 17.9231 77.735 18.0462C76.8735 18.1846 75.8965 18.2538 74.8042 18.2538C74.0811 18.2538 73.4196 18.1846 72.8196 18.0462C72.2196 17.9077 71.7042 17.6846 71.2734 17.3769C70.858 17.0692 70.5272 16.6692 70.2811 16.1769C70.0503 15.6846 69.9349 15.0769 69.9349 14.3538C69.9349 13.6615 70.0657 13.0769 70.3272 12.5999C70.6042 12.123 70.9734 11.7384 71.4349 11.4461C71.8965 11.1384 72.4273 10.923 73.0273 10.7999C73.6427 10.6614 74.2811 10.5922 74.9427 10.5922C75.2504 10.5922 75.5735 10.6153 75.9119 10.6614C76.2504 10.6922 76.6119 10.7537 76.9966 10.846V10.3845C76.9966 10.0614 76.9581 9.75373 76.8812 9.46141C76.8042 9.1691 76.6658 8.91525 76.4658 8.69986C76.2812 8.46909 76.0273 8.29217 75.7042 8.16909C75.3965 8.04601 75.0042 7.98447 74.5273 7.98447C73.8811 7.98447 73.2888 8.03062 72.7503 8.12293C72.2119 8.21524 71.7734 8.32294 71.4349 8.44601L71.0888 6.18444C71.4426 6.06136 71.958 5.93829 72.635 5.81521C73.3119 5.69213 74.035 5.63059 74.8042 5.63059ZM91.7541 5.93059C90.5079 10.5153 89.0618 14.6692 87.4156 18.3923C87.1079 19.0846 86.7925 19.6769 86.4694 20.1693C86.1463 20.6616 85.7848 21.0693 85.3848 21.3924C84.9848 21.7154 84.5386 21.9462 84.0463 22.0847C83.554 22.2385 82.9847 22.3154 82.3386 22.3154C81.9078 22.3154 81.477 22.2693 81.0463 22.177C80.6309 22.0847 80.3155 21.9847 80.1001 21.877L80.6078 19.6385C81.1616 19.8539 81.7078 19.9616 82.2463 19.9616C82.9694 19.9616 83.5309 19.7846 83.9309 19.4308C84.3463 19.0923 84.7078 18.5615 85.0155 17.8385C84.1386 16.1461 83.2924 14.2999 82.477 12.2999C81.677 10.2999 80.9616 8.17678 80.3309 5.93059H83.3078C83.4617 6.57676 83.6463 7.27677 83.8617 8.03062C84.0924 8.78448 84.3386 9.55372 84.6001 10.3383C84.8617 11.1076 85.1386 11.8768 85.4309 12.6461C85.7232 13.4153 86.0156 14.1307 86.3079 14.7923C86.8002 13.423 87.2617 11.9691 87.6925 10.4307C88.1233 8.87679 88.5156 7.37677 88.8694 5.93059H91.7541Z" fill="#1D4ED8"/>
</svg>
