<svg width="88" height="26" viewBox="0 0 88 26" fill="none" xmlns="http://www.w3.org/2000/svg">
<g clip-path="url(#clip0_1067:18377)">
<path d="M11.0101 0L1.76202 9.24807C-0.587339 11.5974 -0.587339 15.4081 1.76202 17.7574L1.92752 17.9229C3.06587 19.0613 4.91064 19.0613 6.04899 17.9229L10.0897 13.8822L9.92422 13.7167C8.78587 12.5783 6.9411 12.5783 5.80275 13.7167L11.0101 8.50936C13.3594 6.16 13.3594 2.34936 11.0101 0Z" fill="#1D4ED8"/>
<path d="M18.2111 7.17326L18.0456 7.00775C16.9073 5.8694 15.0625 5.8694 13.9242 7.00775L9.77444 11.1575L9.93994 11.323C11.0783 12.4613 12.9231 12.4613 14.0614 11.323L8.9671 16.4173C6.61774 18.7667 6.61774 22.5773 8.9671 24.9267L18.2152 15.6786C20.5605 13.3333 20.5605 9.52262 18.2111 7.17326Z" fill="#1D4ED8"/>
<path d="M29.4173 9.04613C30.1156 9.36099 30.6525 9.8131 31.0319 10.3944C31.4114 10.9757 31.597 11.6659 31.597 12.4612C31.597 13.2483 31.4074 13.9346 31.0319 14.5199C30.6525 15.1052 30.1156 15.5573 29.4173 15.8681C28.7189 16.179 27.8954 16.3364 26.9468 16.3364H24.7872V19.2912H22.3086V8.57787H26.9468C27.8954 8.5698 28.7189 8.72723 29.4173 9.04613ZM28.509 13.8296C28.8965 13.5066 29.0903 13.0505 29.0903 12.4612C29.0903 11.8597 28.8965 11.3955 28.509 11.0766C28.1215 10.7537 27.5563 10.5962 26.8096 10.5962H24.7872V14.314H26.8096C27.5523 14.31 28.1215 14.1485 28.509 13.8296Z" fill="#1D4ED8"/>
<path d="M39.3761 11.8396C40.0583 12.4451 40.4013 13.3614 40.4013 14.5886V19.2873H38.165V18.262C37.717 19.029 36.8814 19.4084 35.6542 19.4084C35.0205 19.4084 34.4715 19.2994 34.0072 19.0855C33.543 18.8715 33.1878 18.5768 32.9416 18.1974C32.6953 17.8179 32.5742 17.3901 32.5742 16.9097C32.5742 16.1427 32.8608 15.5413 33.4381 15.1053C34.0153 14.6653 34.9034 14.4473 36.1104 14.4473H38.0076C38.0076 13.9266 37.8502 13.5269 37.5313 13.2444C37.2164 12.9618 36.7401 12.8246 36.1063 12.8246C35.6663 12.8246 35.2344 12.8932 34.8146 13.0304C34.3907 13.1677 34.0315 13.3534 33.7368 13.5875L32.881 11.9203C33.3291 11.6055 33.87 11.3592 34.4957 11.1857C35.1214 11.0121 35.7672 10.9273 36.4333 10.9273C37.7129 10.9273 38.6898 11.2301 39.3761 11.8396ZM37.3416 17.5192C37.6564 17.3295 37.8825 17.051 38.0157 16.6836V15.84H36.3768C35.3959 15.84 34.9074 16.1629 34.9074 16.8047C34.9074 17.1115 35.0285 17.3537 35.2667 17.5313C35.5049 17.709 35.8359 17.7978 36.2557 17.7978C36.6594 17.8018 37.0227 17.7049 37.3416 17.5192Z" fill="#1D4ED8"/>
<path d="M45.9959 11.2341C46.4803 11.0282 47.0374 10.9273 47.6711 10.9273V13.1313C47.4047 13.1112 47.2271 13.099 47.1343 13.099C46.4521 13.099 45.9152 13.2888 45.5277 13.6723C45.1401 14.0557 44.9464 14.629 44.9464 15.3959V19.2833H42.5566V11.0484H44.8374V12.1343C45.124 11.7387 45.5115 11.44 45.9959 11.2341Z" fill="#1D4ED8"/>
<path d="M52.6318 16.0539L51.4854 17.1882V19.2833H49.0957V7.92401H51.4854V14.3545L54.9772 11.0484H57.823L54.3959 14.5402L58.1298 19.2833H55.2355L52.6318 16.0539Z" fill="#1D4ED8"/>
<path d="M66.4778 9.04613C67.1761 9.36099 67.717 9.8131 68.0924 10.3944C68.4679 10.9757 68.6576 11.6659 68.6576 12.4612C68.6576 13.2483 68.4679 13.9346 68.0924 14.5199C67.713 15.1052 67.1761 15.5573 66.4778 15.8681C65.7794 16.179 64.9559 16.3364 64.0073 16.3364H61.8477V19.2912H59.3691V8.57787H64.0073C64.9519 8.5698 65.7754 8.72723 66.4778 9.04613ZM65.5655 13.8296C65.953 13.5066 66.1468 13.0505 66.1468 12.4612C66.1468 11.8597 65.953 11.3955 65.5655 11.0766C65.178 10.7537 64.6128 10.5962 63.866 10.5962H61.8436V14.314H63.866C64.6088 14.31 65.178 14.1485 65.5655 13.8296Z" fill="#1D4ED8"/>
<path d="M76.4326 11.8396C77.1148 12.4451 77.4579 13.3614 77.4579 14.5886V19.2873H75.2216V18.262C74.7735 19.029 73.9379 19.4084 72.7107 19.4084C72.077 19.4084 71.528 19.2994 71.0638 19.0855C70.5995 18.8715 70.2443 18.5768 70.0021 18.1974C69.7559 17.8179 69.6348 17.3901 69.6348 16.9097C69.6348 16.1427 69.9214 15.5413 70.4986 15.1053C71.0759 14.6653 71.9639 14.4473 73.1709 14.4473H75.0682C75.0682 13.9266 74.9107 13.5269 74.5918 13.2444C74.277 12.9618 73.8006 12.8246 73.1669 12.8246C72.7269 12.8246 72.2949 12.8932 71.8751 13.0304C71.4553 13.1677 71.092 13.3534 70.7973 13.5875L69.9416 11.9203C70.3896 11.6055 70.9305 11.3592 71.5562 11.1857C72.1819 11.0121 72.8278 10.9273 73.4938 10.9273C74.7694 10.9273 75.7504 11.2301 76.4326 11.8396ZM74.3981 17.5192C74.7129 17.3295 74.939 17.051 75.0722 16.6836V15.84H73.4333C72.4524 15.84 71.9639 16.1629 71.9639 16.8047C71.9639 17.1115 72.085 17.3537 72.3232 17.5313C72.5614 17.709 72.8924 17.7978 73.3122 17.7978C73.7199 17.8018 74.0792 17.7049 74.3981 17.5192Z" fill="#1D4ED8"/>
<path d="M87.6387 11.0524L83.9209 19.7919C83.5415 20.7405 83.0772 21.4106 82.5202 21.7981C81.9631 22.1856 81.293 22.3794 80.5059 22.3794C80.078 22.3794 79.6541 22.3148 79.2343 22.1816C78.8145 22.0484 78.4754 21.8667 78.209 21.6286L79.0809 19.9291C79.2666 20.0906 79.4765 20.2198 79.7147 20.3126C79.9528 20.4055 80.191 20.4499 80.4251 20.4499C80.7521 20.4499 81.0185 20.3691 81.2204 20.2117C81.4262 20.0543 81.6079 19.7919 81.7734 19.4245L81.8057 19.3478L78.2372 11.0524H80.7037L83.0167 16.6392L85.3418 11.0524H87.6387Z" fill="#1D4ED8"/>
</g>
<defs>
<clipPath id="clip0_1067:18377">
<rect width="88" height="25.0275" fill="white"/>
</clipPath>
</defs>
</svg>
