<svg width="90" height="90" viewBox="0 0 90 90" fill="none" xmlns="http://www.w3.org/2000/svg">
<circle cx="45" cy="45.0005" r="44.1176" fill="#17B054"/>
<mask id="mask0_717_18675" style="mask-type:alpha" maskUnits="userSpaceOnUse" x="0" y="0" width="90" height="90">
<circle cx="45" cy="45.0005" r="44.1176" fill="#F88600"/>
</mask>
<g mask="url(#mask0_717_18675)">
<path d="M44.4741 104.715C40.5941 104.715 36.8731 103.174 34.1296 100.431C31.386 97.6871 29.8447 93.966 29.8447 90.0861V58.9375H59.1203V90.0861C59.1203 92.0087 58.7414 93.9124 58.0051 95.6884C57.2689 97.4644 56.1898 99.0779 54.8295 100.437C53.4693 101.795 51.8546 102.872 50.0777 103.607C48.3008 104.341 46.3967 104.718 44.4741 104.715Z" fill="#CC8070"/>
<path d="M29.8594 68.8417C29.8594 68.8417 37.9081 83.7917 47.1041 83.0661C61.3285 81.9356 58.9156 64.3027 58.9156 64.3027C58.9156 64.3027 53.398 76.1142 44.6744 76.1142C41.8188 76.0844 39.006 75.4157 36.4425 74.1573C33.8789 72.8989 31.6296 71.0826 29.8594 68.8417Z" fill="#B76456"/>
<path d="M22.6535 48.1552L21.2023 33.3571C19.3294 23.8911 26.7031 18.8965 33.1657 18.8965H55.5063C62.3569 18.8965 70.5068 23.8573 67.0478 34.5214L65.0398 50.6356L22.6535 48.1552Z" fill="#070924"/>
<path d="M63.5404 56.2534C67.9613 59.5268 75.6219 44.6444 71.3023 41.0672C66.9826 37.49 64.131 44.0032 64.131 44.0032L64.0298 49.4702L63.4054 54.5323L63.1523 56.1015L63.5404 56.2534Z" fill="#CC8070"/>
<path d="M70.1194 45.6063C70.1194 45.6063 66.8966 44.5433 64.6187 49.2679" stroke="#070924" stroke-width="0.52" stroke-linecap="round" stroke-linejoin="round"/>
<path d="M66.1895 47.0078C66.1895 47.0078 69.6823 48.8808 67.3706 51.6818" stroke="#070924" stroke-width="0.52" stroke-linecap="round" stroke-linejoin="round"/>
<path d="M24.848 56.2531C20.4103 59.5266 12.7497 44.6441 17.0693 41.0669C21.3889 37.4897 24.0887 44.1379 24.0887 44.1379L24.3418 49.5374L24.983 54.5995L25.2192 56.1688L24.848 56.2531Z" fill="#CC8070"/>
<path d="M18.2695 45.6063C18.2695 45.6063 21.4755 44.5433 23.7534 49.2679" stroke="#070924" stroke-width="0.52" stroke-linecap="round" stroke-linejoin="round"/>
<path d="M22.2 47.0078C22.2 47.0078 18.6903 48.8808 21.002 51.6818" stroke="#070924" stroke-width="0.52" stroke-linecap="round" stroke-linejoin="round"/>
<path d="M64.9907 37.0528C64.9786 44.7219 64.1585 52.3685 62.5441 59.8658C61.3342 65.4193 57.9807 70.2706 53.213 73.3647L52.3356 73.9384C49.8625 75.5445 46.984 76.4146 44.0354 76.4475C41.0868 76.4804 38.1896 75.6745 35.6814 74.124C33.128 72.5586 30.9296 70.4773 29.227 68.0134C27.5243 65.5494 26.3548 62.7571 25.7935 59.8152C24.4991 52.2915 23.7491 44.6843 23.5493 37.0528C23.5493 37.0528 21.6257 13.801 43.9831 14.2566C66.3406 14.7122 64.9907 37.0528 64.9907 37.0528Z" fill="#CC8070"/>
<path d="M65.2949 10.6951C58.1911 5.63308 44.1692 9.1934 36.5086 12.7031C36.6773 10.4083 35.2768 10.6614 35.2768 10.6614C21.778 14.2723 25.3552 24.8689 25.3552 24.8689H25.4733C24.0728 27.923 22.2504 34.4194 23.9715 46.1802C23.9715 46.1802 27.5487 33.4576 27.6331 25.932C33.6063 28.5642 49.9568 34.9593 60.6209 31.3821C61.5728 36.417 62.8581 41.3831 64.4681 46.2477C65.4131 40.7052 65.3788 35.0399 64.3668 29.5091C65.0328 29.0515 65.6493 28.5256 66.206 27.9399C66.206 27.9399 75.3515 17.8158 65.2949 10.6951Z" fill="#070924"/>
<path d="M42.3115 45.9609V53.4697C42.3139 53.7175 42.3596 53.9631 42.4465 54.1952C42.638 54.6095 42.9706 54.9422 43.3848 55.1338C43.799 55.3255 44.2678 55.3636 44.7076 55.2414L46.6649 54.7183" stroke="#070924" stroke-width="0.52" stroke-linecap="round" stroke-linejoin="round"/>
<path d="M34.8711 45.8106C35.9428 45.8106 36.8116 44.9418 36.8116 43.8701C36.8116 42.7985 35.9428 41.9297 34.8711 41.9297C33.7994 41.9297 32.9307 42.7985 32.9307 43.8701C32.9307 44.9418 33.7994 45.8106 34.8711 45.8106Z" fill="#070924"/>
<path d="M52.8418 45.8106C53.9135 45.8106 54.7823 44.9418 54.7823 43.8701C54.7823 42.7985 53.9135 41.9297 52.8418 41.9297C51.7701 41.9297 50.9014 42.7985 50.9014 43.8701C50.9014 44.9418 51.7701 45.8106 52.8418 45.8106Z" fill="#070924"/>
<path d="M38.3991 45.9961L33.5732 49.1852" stroke="#070924" stroke-width="0.39" stroke-linecap="round" stroke-linejoin="round"/>
<path d="M49.7891 45.9785L54.0581 49.2014" stroke="#070924" stroke-width="0.39" stroke-linecap="round" stroke-linejoin="round"/>
<path d="M38.5674 58.9375C40.1971 59.8409 42.0604 60.2347 43.9163 60.068C45.8826 60.1124 47.8348 59.7266 49.6364 58.9375" stroke="#070924" stroke-width="0.52" stroke-linecap="round" stroke-linejoin="round"/>
<path d="M44.0674 69.3984V71.5076" stroke="#070924" stroke-width="0.39" stroke-linecap="round" stroke-linejoin="round"/>
<path d="M39.7992 39.4294V35.6328L32.7798 35.7678C31.8979 35.7868 31.0481 36.1018 30.3669 36.6621L27.5996 39.8849L32.2398 39.1931L39.7992 39.4294Z" fill="#070924"/>
<path d="M48.017 39.4294L47.9326 35.6328L54.952 35.7678C55.8344 35.7841 56.6851 36.0994 57.3649 36.6621L60.1659 39.8849L55.5088 39.1931L48.017 39.4294Z" fill="#070924"/>
<path opacity="0.19" d="M63.0337 45.8586C63.0337 47.5273 62.5389 49.1585 61.6119 50.5459C60.6848 51.9333 59.3672 53.0147 57.8256 53.6532C56.2839 54.2918 54.5876 54.4588 52.951 54.1333C51.3144 53.8078 49.8111 53.0043 48.6312 51.8244C47.4513 50.6444 46.6478 49.1412 46.3223 47.5046C45.9967 45.868 46.1638 44.1717 46.8024 42.63C47.4409 41.0884 48.5223 39.7708 49.9097 38.8437C51.2971 37.9167 52.9283 37.4219 54.5969 37.4219C56.8345 37.4219 58.9804 38.3107 60.5626 39.8929C62.1448 41.4752 63.0337 43.6211 63.0337 45.8586Z" fill="#E1FBEB"/>
<path opacity="0.19" d="M42.3482 45.8586C42.3482 47.5273 41.8534 49.1585 40.9263 50.5459C39.9993 51.9333 38.6816 53.0147 37.14 53.6532C35.5984 54.2918 33.902 54.4588 32.2655 54.1333C30.6289 53.8078 29.1256 53.0043 27.9457 51.8244C26.7658 50.6444 25.9623 49.1412 25.6367 47.5046C25.3112 45.868 25.4783 44.1717 26.1168 42.63C26.7554 41.0884 27.8367 39.7708 29.2242 38.8437C30.6116 37.9167 32.2428 37.4219 33.9114 37.4219C36.149 37.4219 38.2949 38.3107 39.8771 39.8929C41.4593 41.4752 42.3482 43.6211 42.3482 45.8586Z" fill="#E1FBEB"/>
<path d="M42.3482 45.8586C42.3482 47.5273 41.8534 49.1584 40.9263 50.5459C39.9993 51.9333 38.6816 53.0147 37.14 53.6532C35.5984 54.2918 33.902 54.4588 32.2655 54.1333C30.6289 53.8078 29.1256 53.0043 27.9457 51.8244C26.7658 50.6444 25.9623 49.1412 25.6367 47.5046C25.3112 45.868 25.4783 44.1717 26.1168 42.63C26.7554 41.0884 27.8367 39.7708 29.2242 38.8437C30.6116 37.9167 32.2428 37.4219 33.9114 37.4219C36.149 37.4219 38.2949 38.3107 39.8771 39.8929C41.4593 41.4752 42.3482 43.6211 42.3482 45.8586Z" stroke="#1A1A1A" stroke-width="0.33" stroke-linecap="round" stroke-linejoin="round"/>
<path d="M63.0337 45.8586C63.0337 47.5273 62.5389 49.1584 61.6119 50.5459C60.6848 51.9333 59.3672 53.0147 57.8256 53.6532C56.2839 54.2918 54.5876 54.4588 52.951 54.1333C51.3144 53.8078 49.8111 53.0043 48.6312 51.8244C47.4513 50.6444 46.6478 49.1412 46.3223 47.5046C45.9967 45.868 46.1638 44.1717 46.8024 42.63C47.4409 41.0884 48.5223 39.7708 49.9097 38.8437C51.2971 37.9167 52.9283 37.4219 54.5969 37.4219C56.8345 37.4219 58.9804 38.3107 60.5626 39.8929C62.1448 41.4752 63.0337 43.6211 63.0337 45.8586V45.8586Z" stroke="#1A1A1A" stroke-width="0.33" stroke-linecap="round" stroke-linejoin="round"/>
<path d="M42.3477 45.8592C42.8588 45.3574 43.5465 45.0762 44.2628 45.0762C44.9791 45.0762 45.6668 45.3574 46.178 45.8592" stroke="#1A1A1A" stroke-width="0.33" stroke-linecap="round" stroke-linejoin="round"/>
<path d="M25.5568 45.8594H24.1562" stroke="#1A1A1A" stroke-width="0.33" stroke-miterlimit="10"/>
<path d="M64.6193 45.8594H63.2188" stroke="#1A1A1A" stroke-width="0.33" stroke-miterlimit="10"/>
</g>
</svg>
