<svg width="184" height="94" viewBox="0 0 184 94" fill="none" xmlns="http://www.w3.org/2000/svg">
<path d="M1.40347 45.8191C-1.03011 50.706 8.41944 51.8083 12.3459 54.5189C18.9557 59.08 27.408 61.9991 36.4489 64.2483C55.5316 69.0025 76.042 70.8357 98.1916 68.9524C114.001 67.607 129.393 64.1025 143.767 57.1922C156.329 51.1519 166.953 43.7744 175.277 34.9488C176.137 34.0363 176.867 33.0742 177.533 32.1098C177.937 31.5207 178.276 30.858 178.307 30.2705C178.334 29.7104 178.403 28.8731 177.712 28.6762C177.022 28.4792 175.946 29.1056 175.262 29.495C174.384 29.9944 173.683 30.6593 172.959 31.281C169.236 34.4843 165.609 37.7421 161.798 40.9001C150.733 50.0729 137.185 56.1921 121.53 59.7188C107.496 62.8836 93.6845 64.1094 80.0846 63.6475C63.6127 63.0885 48.1239 60.9794 34.3099 56.1383C25.7172 53.1271 12.7995 43.9277 12.7995 43.9277C12.7995 43.9277 12.2631 43.413 11.8778 43.1359C8.44959 40.6707 3.28576 42.0393 1.40347 45.8191Z" fill="#00C681"/>
</svg>
