<svg width="20" height="20" viewBox="0 0 20 20" fill="none" xmlns="http://www.w3.org/2000/svg">
<path fill-rule="evenodd" clip-rule="evenodd" d="M13.4654 6.86063C13.4654 8.8187 11.9044 10.3888 9.95769 10.3888C8.01093 10.3888 6.44995 8.8187 6.44995 6.86063C6.44995 4.90181 8.01093 3.33325 9.95769 3.33325C11.9044 3.33325 13.4654 4.90181 13.4654 6.86063ZM9.95772 16.6666C7.0984 16.6666 4.65694 16.2133 4.65694 14.4001C4.65694 12.5861 7.08273 12.1163 9.95772 12.1163C12.817 12.1163 15.2585 12.5696 15.2585 14.3835C15.2585 16.1968 12.8327 16.6666 9.95772 16.6666ZM14.9644 6.92428C14.9644 7.92245 14.6667 8.85232 14.1443 9.62535C14.0906 9.7049 14.1384 9.81222 14.2331 9.82873C14.3637 9.85125 14.4988 9.86401 14.6361 9.86776C16.0053 9.90378 17.2342 9.01744 17.5737 7.68304C18.0766 5.70095 16.6 3.9215 14.7196 3.9215C14.5152 3.9215 14.3197 3.94327 14.1294 3.98229C14.1033 3.9883 14.0757 4.00031 14.0608 4.02357C14.0429 4.05209 14.0563 4.09037 14.0742 4.11513C14.639 4.91142 14.9644 5.88257 14.9644 6.92428ZM17.232 11.2604C18.152 11.4413 18.7572 11.8105 19.0079 12.3471C19.2198 12.7877 19.2198 13.2988 19.0079 13.7386C18.6243 14.5709 17.3879 14.8381 16.9074 14.9071C16.8082 14.9221 16.7283 14.8358 16.7388 14.736C16.9843 12.4297 15.0315 11.3362 14.5264 11.0848C14.5047 11.0735 14.5003 11.0563 14.5025 11.0458C14.504 11.0382 14.513 11.0262 14.5294 11.024C15.6225 11.0037 16.7977 11.1538 17.232 11.2604ZM5.36441 9.86768C5.5017 9.86393 5.63601 9.85192 5.76734 9.82865C5.8621 9.81214 5.90986 9.70482 5.85613 9.62527C5.33381 8.85224 5.03609 7.92237 5.03609 6.9242C5.03609 5.88249 5.36142 4.91134 5.92627 4.11505C5.94418 4.09029 5.95687 4.05201 5.9397 4.02349C5.92478 4.00098 5.89643 3.98822 5.87106 3.98221C5.68004 3.94319 5.48454 3.92142 5.28009 3.92142C3.39974 3.92142 1.92308 5.70087 2.42674 7.68296C2.76625 9.01736 3.99519 9.9037 5.36441 9.86768ZM5.49761 11.0453C5.49985 11.0566 5.49537 11.0731 5.47448 11.0851C4.96858 11.3365 3.01585 12.43 3.26134 14.7355C3.27179 14.8361 3.1927 14.9217 3.09346 14.9074C2.61292 14.8384 1.37652 14.5712 0.99299 13.7389C0.780332 13.2983 0.780332 12.788 0.99299 12.3474C1.2437 11.8108 1.8481 11.4416 2.76813 11.2599C3.20314 11.1541 4.37761 11.004 5.4715 11.0243C5.48791 11.0265 5.49612 11.0385 5.49761 11.0453Z" fill="#B9C8D4"/>
</svg>
