<svg width="20" height="20" viewBox="0 0 20 20" fill="none" xmlns="http://www.w3.org/2000/svg">
<path fill-rule="evenodd" clip-rule="evenodd" d="M7.91647 10.4613C10.2119 10.4613 12.052 8.59746 12.052 6.27229C12.052 3.94711 10.2119 2.08325 7.91647 2.08325C5.62099 2.08325 3.78094 3.94711 3.78094 6.27229C3.78094 8.59746 5.62099 10.4613 7.91647 10.4613ZM7.9165 12.5126C4.54502 12.5126 1.6665 13.0516 1.6665 15.2053C1.6665 17.3581 4.52751 17.9166 7.9165 17.9166C11.2871 17.9166 14.1665 17.3775 14.1665 15.2239C14.1665 13.0702 11.3055 12.5126 7.9165 12.5126ZM16.5815 7.9898H17.584C17.9967 7.9898 18.3332 8.33101 18.3332 8.74948C18.3332 9.16796 17.9967 9.50917 17.584 9.50917H16.5815V10.4902C16.5815 10.9087 16.2458 11.2499 15.8323 11.2499C15.4196 11.2499 15.0832 10.9087 15.0832 10.4902V9.50917H14.0823C13.6688 9.50917 13.3332 9.16796 13.3332 8.74948C13.3332 8.33101 13.6688 7.9898 14.0823 7.9898H15.0832V7.0096C15.0832 6.59112 15.4196 6.24992 15.8323 6.24992C16.2458 6.24992 16.5815 6.59112 16.5815 7.0096V7.9898Z" fill="#B9C8D4"/>
</svg>
