<svg width="20" height="28" viewBox="0 0 20 28" fill="none" xmlns="http://www.w3.org/2000/svg">
<path d="M9.82115 33.3028C8.50197 33.3028 7.23682 32.7787 6.30401 31.8459C5.37121 30.9131 4.84717 29.648 4.84717 28.3288V17.7383H14.8009V28.3288C14.8009 28.9825 14.672 29.6297 14.4217 30.2336C14.1714 30.8374 13.8045 31.386 13.342 31.848C12.8795 32.3099 12.3305 32.6762 11.7264 32.9258C11.1222 33.1754 10.4748 33.3035 9.82115 33.3028Z" fill="#CC8070"/>
<path d="M4.85254 21.1058C4.85254 21.1058 7.58909 26.1887 10.7158 25.9421C15.5521 25.5577 14.7317 19.5625 14.7317 19.5625C14.7317 19.5625 12.8557 23.5784 9.88963 23.5784C8.91873 23.5683 7.9624 23.3409 7.0908 22.9131C6.21919 22.4852 5.45441 21.8677 4.85254 21.1058Z" fill="#B76456"/>
<path d="M2.40215 14.0725L1.90877 9.04113C1.27196 5.82267 3.77904 4.12451 5.97631 4.12451H13.5721C15.9013 4.12451 18.6723 5.81119 17.4962 9.43698L16.8135 14.9158L2.40215 14.0725Z" fill="#070924"/>
<path d="M16.3038 16.826C17.8069 17.939 20.4115 12.8789 18.9429 11.6627C17.4742 10.4464 16.5046 12.6609 16.5046 12.6609L16.4702 14.5197L16.2579 16.2408L16.1719 16.7744L16.3038 16.826Z" fill="#CC8070"/>
<path d="M18.5407 13.2057C18.5407 13.2057 17.4449 12.8443 16.6704 14.4506" stroke="#070924" stroke-width="0.52" stroke-linecap="round" stroke-linejoin="round"/>
<path d="M17.2046 13.6821C17.2046 13.6821 18.3921 14.3189 17.6062 15.2713" stroke="#070924" stroke-width="0.52" stroke-linecap="round" stroke-linejoin="round"/>
<path d="M3.14839 16.826C1.63955 17.9389 -0.965047 12.8789 0.503627 11.6627C1.9723 10.4464 2.89022 12.7068 2.89022 12.7068L2.97628 14.5426L3.19428 16.2637L3.2746 16.7973L3.14839 16.826Z" fill="#CC8070"/>
<path d="M0.911621 13.2057C0.911621 13.2057 2.00165 12.8443 2.77615 14.4506" stroke="#070924" stroke-width="0.52" stroke-linecap="round" stroke-linejoin="round"/>
<path d="M2.24804 13.6821C2.24804 13.6821 1.05474 14.3189 1.84071 15.2713" stroke="#070924" stroke-width="0.52" stroke-linecap="round" stroke-linejoin="round"/>
<path d="M16.7966 10.2979C16.7924 12.9054 16.5136 15.5052 15.9647 18.0543C15.5533 19.9425 14.4132 21.5919 12.7921 22.6439L12.4938 22.839C11.653 23.385 10.6743 23.6809 9.67176 23.6921C8.66923 23.7032 7.68418 23.4293 6.83139 22.9021C5.96325 22.3698 5.2158 21.6622 4.63689 20.8245C4.05798 19.9867 3.66037 19.0373 3.4695 18.0371C3.02942 15.479 2.77442 12.8926 2.70648 10.2979C2.70648 10.2979 2.05246 2.39227 9.654 2.54717C17.2555 2.70207 16.7966 10.2979 16.7966 10.2979Z" fill="#CC8070"/>
<path d="M16.9003 1.33608C14.485 -0.385027 9.71752 0.825481 7.11292 2.01878C7.17029 1.23855 6.69412 1.3246 6.69412 1.3246C2.10451 2.55232 3.32076 6.15516 3.32076 6.15516H3.36092C2.88475 7.19356 2.26515 9.40231 2.85032 13.401C2.85032 13.401 4.06657 9.0753 4.09526 6.51659C6.12616 7.41157 11.6853 9.58589 15.3111 8.36965C15.6348 10.0815 16.0717 11.77 16.6191 13.4239C16.9405 11.5395 16.9288 9.61328 16.5847 7.73284C16.8112 7.57724 17.0207 7.39842 17.2101 7.1993C17.2101 7.1993 20.3195 3.75709 16.9003 1.33608Z" fill="#070924"/>
<path d="M9.08594 13.3262V15.8791C9.08674 15.9634 9.10227 16.0469 9.13183 16.1258C9.19695 16.2667 9.31002 16.3798 9.45085 16.4449C9.59168 16.5101 9.75109 16.5231 9.90059 16.4815L10.5661 16.3037" stroke="#070924" stroke-width="0.52" stroke-linecap="round" stroke-linejoin="round"/>
<path d="M6.55624 13.2751C6.92061 13.2751 7.216 12.9797 7.216 12.6153C7.216 12.2509 6.92061 11.9556 6.55624 11.9556C6.19187 11.9556 5.89648 12.2509 5.89648 12.6153C5.89648 12.9797 6.19187 13.2751 6.55624 13.2751Z" fill="#070924"/>
<path d="M12.6666 13.2751C13.031 13.2751 13.3263 12.9797 13.3263 12.6153C13.3263 12.2509 13.031 11.9556 12.6666 11.9556C12.3022 11.9556 12.0068 12.2509 12.0068 12.6153C12.0068 12.9797 12.3022 13.2751 12.6666 13.2751Z" fill="#070924"/>
<path d="M7.75602 13.3384L6.11523 14.4227" stroke="#070924" stroke-width="0.39" stroke-linecap="round" stroke-linejoin="round"/>
<path d="M11.6284 13.3325L13.0799 14.4283" stroke="#070924" stroke-width="0.39" stroke-linecap="round" stroke-linejoin="round"/>
<path d="M7.81299 17.7383C8.3671 18.0454 9.00061 18.1793 9.63162 18.1227C10.3002 18.1377 10.9639 18.0066 11.5765 17.7383" stroke="#070924" stroke-width="0.52" stroke-linecap="round" stroke-linejoin="round"/>
<path d="M9.68311 21.2954V22.0125" stroke="#070924" stroke-width="0.39" stroke-linecap="round" stroke-linejoin="round"/>
<path d="M8.23184 11.1058V9.81494L5.84525 9.86084C5.54542 9.86729 5.25647 9.97439 5.02485 10.1649L4.08398 11.2607L5.66166 11.0255L8.23184 11.1058Z" fill="#070924"/>
<path d="M11.0258 11.1058L10.9971 9.81494L13.3837 9.86084C13.6837 9.8664 13.9729 9.97359 14.2041 10.1649L15.1564 11.2607L13.573 11.0255L11.0258 11.1058Z" fill="#070924"/>
<path opacity="0.19" d="M16.1315 13.2918C16.1315 13.8592 15.9633 14.4138 15.6481 14.8855C15.3329 15.3572 14.8849 15.7249 14.3608 15.942C13.8366 16.1591 13.2599 16.2159 12.7034 16.1052C12.147 15.9945 11.6359 15.7213 11.2347 15.3202C10.8335 14.919 10.5603 14.4079 10.4497 13.8515C10.339 13.295 10.3958 12.7183 10.6129 12.1941C10.83 11.67 11.1977 11.222 11.6694 10.9068C12.1411 10.5916 12.6957 10.4233 13.263 10.4233C14.0238 10.4233 14.7534 10.7256 15.2914 11.2635C15.8293 11.8015 16.1315 12.5311 16.1315 13.2918Z" fill="#FFF8E8"/>
<path opacity="0.19" d="M9.09834 13.2918C9.09834 13.8592 8.9301 14.4138 8.61491 14.8855C8.29971 15.3572 7.85171 15.7249 7.32756 15.942C6.80341 16.1591 6.22665 16.2159 5.67022 16.1052C5.11378 15.9945 4.60266 15.7213 4.20149 15.3202C3.80033 14.919 3.52713 14.4079 3.41645 13.8515C3.30577 13.295 3.36257 12.7183 3.57968 12.1941C3.79679 11.67 4.16445 11.222 4.63618 10.9068C5.1079 10.5916 5.6625 10.4233 6.22983 10.4233C6.99061 10.4233 7.72022 10.7256 8.25817 11.2635C8.79612 11.8015 9.09834 12.5311 9.09834 13.2918Z" fill="#FFF8E8"/>
<path d="M9.09834 13.2918C9.09834 13.8592 8.9301 14.4138 8.61491 14.8855C8.29971 15.3572 7.85171 15.7249 7.32756 15.942C6.80341 16.1591 6.22665 16.2159 5.67022 16.1052C5.11378 15.9945 4.60266 15.7213 4.20149 15.3202C3.80033 14.919 3.52713 14.4079 3.41645 13.8515C3.30577 13.295 3.36257 12.7183 3.57968 12.1941C3.79679 11.67 4.16445 11.222 4.63618 10.9068C5.1079 10.5916 5.6625 10.4233 6.22983 10.4233C6.99061 10.4233 7.72022 10.7256 8.25817 11.2635C8.79612 11.8015 9.09834 12.5311 9.09834 13.2918Z" stroke="#1A1A1A" stroke-width="0.33" stroke-linecap="round" stroke-linejoin="round"/>
<path d="M16.1315 13.2918C16.1315 13.8592 15.9633 14.4138 15.6481 14.8855C15.3329 15.3572 14.8849 15.7249 14.3608 15.942C13.8366 16.1591 13.2599 16.2159 12.7034 16.1052C12.147 15.9945 11.6359 15.7213 11.2347 15.3202C10.8335 14.919 10.5603 14.4079 10.4497 13.8515C10.339 13.295 10.3958 12.7183 10.6129 12.1941C10.83 11.67 11.1977 11.222 11.6694 10.9068C12.1411 10.5916 12.6957 10.4233 13.263 10.4233C14.0238 10.4233 14.7534 10.7256 15.2914 11.2635C15.8293 11.8015 16.1315 12.5311 16.1315 13.2918V13.2918Z" stroke="#1A1A1A" stroke-width="0.33" stroke-linecap="round" stroke-linejoin="round"/>
<path d="M9.09863 13.2921C9.27241 13.1215 9.50623 13.0259 9.74978 13.0259C9.99333 13.0259 10.2272 13.1215 10.4009 13.2921" stroke="#1A1A1A" stroke-width="0.33" stroke-linecap="round" stroke-linejoin="round"/>
<path d="M3.38926 13.292H2.91309" stroke="#1A1A1A" stroke-width="0.33" stroke-miterlimit="10"/>
<path d="M16.6705 13.292H16.1943" stroke="#1A1A1A" stroke-width="0.33" stroke-miterlimit="10"/>
</svg>
