<svg width="20" height="20" viewBox="0 0 20 20" fill="none" xmlns="http://www.w3.org/2000/svg">
<path fill-rule="evenodd" clip-rule="evenodd" d="M7.43797 13.6584H11.9264C12.2647 13.6584 12.5452 13.3751 12.5452 13.0334C12.5452 12.6917 12.2647 12.4167 11.9264 12.4167H7.43797C7.09968 12.4167 6.81915 12.6917 6.81915 13.0334C6.81915 13.3751 7.09968 13.6584 7.43797 13.6584ZM10.2267 8.25006H7.43797C7.09968 8.25006 6.81915 8.53339 6.81915 8.87506C6.81915 9.21672 7.09968 9.49172 7.43797 9.49172H10.2267C10.565 9.49172 10.8456 9.21672 10.8456 8.87506C10.8456 8.53339 10.565 8.25006 10.2267 8.25006ZM16.1149 7.52142C16.3088 7.51919 16.52 7.51675 16.7119 7.51675C16.9182 7.51675 17.0832 7.68341 17.0832 7.89175V14.5917C17.0832 16.6584 15.4248 18.3334 13.3786 18.3334H6.81089C4.66568 18.3334 2.9165 16.5751 2.9165 14.4084V5.42508C2.9165 3.35842 4.58317 1.66675 6.63763 1.66675H11.0436C11.2581 1.66675 11.4231 1.84175 11.4231 2.05008V4.73341C11.4231 6.25842 12.669 7.50841 14.1789 7.51675C14.5316 7.51675 14.8425 7.51938 15.1146 7.52169C15.3263 7.52349 15.5145 7.52508 15.6805 7.52508C15.798 7.52508 15.9502 7.52332 16.1149 7.52142ZM16.3424 6.30509C15.6642 6.30759 14.8647 6.30509 14.2896 6.29926C13.3771 6.29926 12.6254 5.54009 12.6254 4.61842V2.42176C12.6254 2.06259 13.0569 1.88426 13.3036 2.14342C13.7506 2.61284 14.3651 3.25829 14.9765 3.9006C15.5851 4.53993 16.1908 5.17615 16.6254 5.63259C16.8663 5.88509 16.6898 6.30426 16.3424 6.30509Z" fill="#B9C8D4"/>
</svg>
