<svg width="34" height="34" viewBox="0 0 34 34" fill="none" xmlns="http://www.w3.org/2000/svg">
<circle cx="17" cy="17" r="17" fill="#FFF8E8"/>
<circle cx="17" cy="17" r="15" fill="#FFE19C"/>
<mask id="mask0" style="mask-type:alpha" maskUnits="userSpaceOnUse" x="2" y="2" width="30" height="30">
<circle cx="17" cy="17" r="15" fill="#F88600"/>
</mask>
<g mask="url(#mask0)">
<path d="M16.8212 37.3028C15.502 37.3028 14.2368 36.7787 13.304 35.8459C12.3712 34.9131 11.8472 33.648 11.8472 32.3288V21.7383H21.8009V32.3288C21.8009 32.9825 21.672 33.6297 21.4217 34.2336C21.1714 34.8374 20.8045 35.386 20.342 35.848C19.8795 36.3099 19.3305 36.6762 18.7264 36.9258C18.1222 37.1754 17.4748 37.3035 16.8212 37.3028Z" fill="#CC8070"/>
<path d="M11.8525 25.1058C11.8525 25.1058 14.5891 30.1887 17.7158 29.9421C22.5521 29.5577 21.7317 23.5625 21.7317 23.5625C21.7317 23.5625 19.8557 27.5784 16.8896 27.5784C15.9187 27.5683 14.9624 27.3409 14.0908 26.9131C13.2192 26.4852 12.4544 25.8677 11.8525 25.1058Z" fill="#B76456"/>
<path d="M9.40215 18.0725L8.90877 13.0411C8.27196 9.82267 10.779 8.12451 12.9763 8.12451H20.5721C22.9013 8.12451 25.6723 9.81119 24.4962 13.437L23.8135 18.9158L9.40215 18.0725Z" fill="#070924"/>
<path d="M23.3038 20.826C24.8069 21.939 27.4115 16.8789 25.9429 15.6627C24.4742 14.4464 23.5046 16.6609 23.5046 16.6609L23.4702 18.5197L23.2579 20.2408L23.1719 20.7744L23.3038 20.826Z" fill="#CC8070"/>
<path d="M25.5407 17.2057C25.5407 17.2057 24.4449 16.8443 23.6704 18.4506" stroke="#070924" stroke-width="0.52" stroke-linecap="round" stroke-linejoin="round"/>
<path d="M24.2046 17.6821C24.2046 17.6821 25.3921 18.3189 24.6062 19.2713" stroke="#070924" stroke-width="0.52" stroke-linecap="round" stroke-linejoin="round"/>
<path d="M10.1484 20.826C8.63955 21.9389 6.03495 16.8789 7.50363 15.6627C8.9723 14.4464 9.89022 16.7068 9.89022 16.7068L9.97628 18.5426L10.1943 20.2637L10.2746 20.7973L10.1484 20.826Z" fill="#CC8070"/>
<path d="M7.91162 17.2057C7.91162 17.2057 9.00165 16.8443 9.77615 18.4506" stroke="#070924" stroke-width="0.52" stroke-linecap="round" stroke-linejoin="round"/>
<path d="M9.24804 17.6821C9.24804 17.6821 8.05474 18.3189 8.84071 19.2713" stroke="#070924" stroke-width="0.52" stroke-linecap="round" stroke-linejoin="round"/>
<path d="M23.7966 14.2979C23.7924 16.9054 23.5136 19.5052 22.9647 22.0543C22.5533 23.9425 21.4132 25.5919 19.7921 26.6439L19.4938 26.839C18.653 27.385 17.6743 27.6809 16.6718 27.6921C15.6692 27.7032 14.6842 27.4293 13.8314 26.9021C12.9632 26.3698 12.2158 25.6622 11.6369 24.8245C11.058 23.9867 10.6604 23.0373 10.4695 22.0371C10.0294 19.479 9.77442 16.8926 9.70648 14.2979C9.70648 14.2979 9.05246 6.39227 16.654 6.54717C24.2555 6.70207 23.7966 14.2979 23.7966 14.2979Z" fill="#CC8070"/>
<path d="M23.9003 5.33608C21.485 3.61497 16.7175 4.82548 14.1129 6.01878C14.1703 5.23855 13.6941 5.3246 13.6941 5.3246C9.10451 6.55232 10.3208 10.1552 10.3208 10.1552H10.3609C9.88475 11.1936 9.26515 13.4023 9.85032 17.401C9.85032 17.401 11.0666 13.0753 11.0953 10.5166C13.1262 11.4116 18.6853 13.5859 22.3111 12.3696C22.6348 14.0815 23.0717 15.77 23.6191 17.4239C23.9405 15.5395 23.9288 13.6133 23.5847 11.7328C23.8112 11.5772 24.0207 11.3984 24.2101 11.1993C24.2101 11.1993 27.3195 7.75709 23.9003 5.33608Z" fill="#070924"/>
<path d="M16.0859 17.3262V19.8791C16.0867 19.9634 16.1023 20.0469 16.1318 20.1258C16.1969 20.2667 16.31 20.3798 16.4508 20.4449C16.5917 20.5101 16.7511 20.5231 16.9006 20.4815L17.5661 20.3037" stroke="#070924" stroke-width="0.52" stroke-linecap="round" stroke-linejoin="round"/>
<path d="M13.5562 17.2751C13.9206 17.2751 14.216 16.9797 14.216 16.6153C14.216 16.2509 13.9206 15.9556 13.5562 15.9556C13.1919 15.9556 12.8965 16.2509 12.8965 16.6153C12.8965 16.9797 13.1919 17.2751 13.5562 17.2751Z" fill="#070924"/>
<path d="M19.6666 17.2751C20.031 17.2751 20.3263 16.9797 20.3263 16.6153C20.3263 16.2509 20.031 15.9556 19.6666 15.9556C19.3022 15.9556 19.0068 16.2509 19.0068 16.6153C19.0068 16.9797 19.3022 17.2751 19.6666 17.2751Z" fill="#070924"/>
<path d="M14.756 17.3384L13.1152 18.4227" stroke="#070924" stroke-width="0.39" stroke-linecap="round" stroke-linejoin="round"/>
<path d="M18.6284 17.3325L20.0799 18.4283" stroke="#070924" stroke-width="0.39" stroke-linecap="round" stroke-linejoin="round"/>
<path d="M14.813 21.7383C15.3671 22.0454 16.0006 22.1793 16.6316 22.1227C17.3002 22.1377 17.9639 22.0066 18.5765 21.7383" stroke="#070924" stroke-width="0.52" stroke-linecap="round" stroke-linejoin="round"/>
<path d="M16.6831 25.2954V26.0125" stroke="#070924" stroke-width="0.39" stroke-linecap="round" stroke-linejoin="round"/>
<path d="M15.2318 15.1058V13.8149L12.8452 13.8608C12.5454 13.8673 12.2565 13.9744 12.0249 14.1649L11.084 15.2607L12.6617 15.0255L15.2318 15.1058Z" fill="#070924"/>
<path d="M18.0258 15.1058L17.9971 13.8149L20.3837 13.8608C20.6837 13.8664 20.9729 13.9736 21.2041 14.1649L22.1564 15.2607L20.573 15.0255L18.0258 15.1058Z" fill="#070924"/>
<path opacity="0.19" d="M23.1315 17.2918C23.1315 17.8592 22.9633 18.4138 22.6481 18.8855C22.3329 19.3572 21.8849 19.7249 21.3608 19.942C20.8366 20.1591 20.2599 20.2159 19.7034 20.1052C19.147 19.9945 18.6359 19.7213 18.2347 19.3202C17.8335 18.919 17.5603 18.4079 17.4497 17.8515C17.339 17.295 17.3958 16.7183 17.6129 16.1941C17.83 15.67 18.1977 15.222 18.6694 14.9068C19.1411 14.5916 19.6957 14.4233 20.263 14.4233C21.0238 14.4233 21.7534 14.7256 22.2914 15.2635C22.8293 15.8015 23.1315 16.5311 23.1315 17.2918Z" fill="#FFF8E8"/>
<path opacity="0.19" d="M16.0983 17.2918C16.0983 17.8592 15.9301 18.4138 15.6149 18.8855C15.2997 19.3572 14.8517 19.7249 14.3276 19.942C13.8034 20.1591 13.2267 20.2159 12.6702 20.1052C12.1138 19.9945 11.6027 19.7213 11.2015 19.3202C10.8003 18.919 10.5271 18.4079 10.4164 17.8515C10.3058 17.295 10.3626 16.7183 10.5797 16.1941C10.7968 15.67 11.1645 15.222 11.6362 14.9068C12.1079 14.5916 12.6625 14.4233 13.2298 14.4233C13.9906 14.4233 14.7202 14.7256 15.2582 15.2635C15.7961 15.8015 16.0983 16.5311 16.0983 17.2918Z" fill="#FFF8E8"/>
<path d="M16.0983 17.2918C16.0983 17.8592 15.9301 18.4138 15.6149 18.8855C15.2997 19.3572 14.8517 19.7249 14.3276 19.942C13.8034 20.1591 13.2267 20.2159 12.6702 20.1052C12.1138 19.9945 11.6027 19.7213 11.2015 19.3202C10.8003 18.919 10.5271 18.4079 10.4164 17.8515C10.3058 17.295 10.3626 16.7183 10.5797 16.1941C10.7968 15.67 11.1645 15.222 11.6362 14.9068C12.1079 14.5916 12.6625 14.4233 13.2298 14.4233C13.9906 14.4233 14.7202 14.7256 15.2582 15.2635C15.7961 15.8015 16.0983 16.5311 16.0983 17.2918Z" stroke="#1A1A1A" stroke-width="0.33" stroke-linecap="round" stroke-linejoin="round"/>
<path d="M23.1315 17.2918C23.1315 17.8592 22.9633 18.4138 22.6481 18.8855C22.3329 19.3572 21.8849 19.7249 21.3608 19.942C20.8366 20.1591 20.2599 20.2159 19.7034 20.1052C19.147 19.9945 18.6359 19.7213 18.2347 19.3202C17.8335 18.919 17.5603 18.4079 17.4497 17.8515C17.339 17.295 17.3958 16.7183 17.6129 16.1941C17.83 15.67 18.1977 15.222 18.6694 14.9068C19.1411 14.5916 19.6957 14.4233 20.263 14.4233C21.0238 14.4233 21.7534 14.7256 22.2914 15.2635C22.8293 15.8015 23.1315 16.5311 23.1315 17.2918V17.2918Z" stroke="#1A1A1A" stroke-width="0.33" stroke-linecap="round" stroke-linejoin="round"/>
<path d="M16.0986 17.2921C16.2724 17.1215 16.5062 17.0259 16.7498 17.0259C16.9933 17.0259 17.2272 17.1215 17.4009 17.2921" stroke="#1A1A1A" stroke-width="0.33" stroke-linecap="round" stroke-linejoin="round"/>
<path d="M10.3893 17.292H9.91309" stroke="#1A1A1A" stroke-width="0.33" stroke-miterlimit="10"/>
<path d="M23.6705 17.292H23.1943" stroke="#1A1A1A" stroke-width="0.33" stroke-miterlimit="10"/>
</g>
</svg>
