<svg width="20" height="20" viewBox="0 0 20 20" fill="none" xmlns="http://www.w3.org/2000/svg">
<path d="M4.64286 2.5C3.45939 2.5 2.5 3.45939 2.5 4.64286V8.48214C2.5 9.66561 3.45939 10.625 4.64286 10.625H6.78571C7.96918 10.625 8.92857 9.66561 8.92857 8.48214V4.64286C8.92857 3.45939 7.96918 2.5 6.78571 2.5H4.64286Z" fill="#0D0F11"/>
<path d="M4.64286 12.2321C3.45939 12.2321 2.5 13.1915 2.5 14.375V15.3571C2.5 16.5406 3.45939 17.5 4.64286 17.5H6.78571C7.96918 17.5 8.92857 16.5406 8.92857 15.3571V14.375C8.92857 13.1915 7.96918 12.2321 6.78571 12.2321H4.64286Z" fill="#0D0F11"/>
<path d="M11.0714 4.64286C11.0714 3.45939 12.0308 2.5 13.2143 2.5H15.3571C16.5406 2.5 17.5 3.45939 17.5 4.64286V5.50742C17.5 6.69088 16.5406 7.65027 15.3571 7.65027H13.2143C12.0308 7.65027 11.0714 6.69088 11.0714 5.50742V4.64286Z" fill="#0D0F11"/>
<path d="M11.0714 11.5179C11.0714 10.3344 12.0308 9.375 13.2143 9.375H15.3571C16.5406 9.375 17.5 10.3344 17.5 11.5179V15.3571C17.5 16.5406 16.5406 17.5 15.3571 17.5H13.2143C12.0308 17.5 11.0714 16.5406 11.0714 15.3571V11.5179Z" fill="#0D0F11"/>
</svg>
