<svg width="20" height="20" viewBox="0 0 20 20" fill="none" xmlns="http://www.w3.org/2000/svg">
<path fill-rule="evenodd" clip-rule="evenodd" d="M17.0016 11.3167C17.2997 11.4751 17.5296 11.7251 17.6915 11.9751C18.0066 12.4917 17.981 13.1251 17.6744 13.6834L17.0783 14.6834C16.7632 15.2167 16.1755 15.5501 15.5709 15.5501C15.2728 15.5501 14.9407 15.4667 14.6682 15.3001C14.4467 15.1584 14.1912 15.1084 13.9187 15.1084C13.0756 15.1084 12.3688 15.8001 12.3432 16.6251C12.3432 17.5834 11.5597 18.3334 10.5803 18.3334H9.42211C8.43422 18.3334 7.65072 17.5834 7.65072 16.6251C7.63369 15.8001 6.92683 15.1084 6.08372 15.1084C5.80268 15.1084 5.54719 15.1584 5.33428 15.3001C5.06176 15.4667 4.72111 15.5501 4.43155 15.5501C3.81838 15.5501 3.23075 15.2167 2.91565 14.6834L2.32802 13.6834C2.01292 13.1417 1.99589 12.4917 2.31099 11.9751C2.44725 11.7251 2.70274 11.4751 2.9923 11.3167C3.23075 11.2001 3.38405 11.0084 3.52882 10.7834C3.95464 10.0667 3.69915 9.12508 2.97526 8.70008C2.13215 8.22508 1.85963 7.16675 2.34506 6.34175L2.91565 5.35841C3.4096 4.53341 4.46562 4.24175 5.31725 4.72508C6.05817 5.12508 7.02051 4.85841 7.45484 4.15008C7.5911 3.91675 7.66775 3.66675 7.65072 3.41675C7.63369 3.09175 7.72737 2.78341 7.88918 2.53341C8.20428 2.01675 8.77487 1.68341 9.39656 1.66675H10.5974C11.2276 1.66675 11.7982 2.01675 12.1133 2.53341C12.2666 2.78341 12.3688 3.09175 12.3432 3.41675C12.3262 3.66675 12.4028 3.91675 12.5391 4.15008C12.9734 4.85841 13.9358 5.12508 14.6852 4.72508C15.5283 4.24175 16.5928 4.53341 17.0783 5.35841L17.6489 6.34175C18.1428 7.16675 17.8703 8.22508 17.0187 8.70008C16.2948 9.12508 16.0393 10.0667 16.4736 10.7834C16.6099 11.0084 16.7632 11.2001 17.0016 11.3167ZM7.59108 10.0084C7.59108 11.3167 8.67265 12.3584 10.0097 12.3584C11.3468 12.3584 12.4028 11.3167 12.4028 10.0084C12.4028 8.70008 11.3468 7.65008 10.0097 7.65008C8.67265 7.65008 7.59108 8.70008 7.59108 10.0084Z" fill="#B9C8D4"/>
</svg>
