<svg width="105" height="23" viewBox="0 0 105 23" fill="none" xmlns="http://www.w3.org/2000/svg">
<path d="M43.0525 0.0553852C44.2931 -0.225564 45.6485 0.592613 45.9708 1.82416C46.371 3.0844 45.5755 4.54957 44.3087 4.9141C43.0711 5.34912 41.6014 4.59287 41.1916 3.35729C40.8029 2.31607 41.2188 1.05936 42.1422 0.443584C42.4175 0.256272 42.7267 0.12441 43.0525 0.0553852ZM51.4316 8.19033C52.1788 7.3782 53.2316 6.86916 54.3162 6.70703C55.0397 6.63633 55.7698 6.68258 56.4787 6.84399C56.4696 7.98742 56.4766 9.12934 56.4746 10.2733C55.3624 9.98579 54.1581 9.92637 53.0665 10.3282C52.4736 10.5441 51.9391 10.8952 51.5057 11.3538C51.412 11.4338 51.4347 11.5632 51.4261 11.6745C51.4326 14.8692 51.4211 18.0643 51.4306 21.2585C51.4196 21.3813 51.4493 21.5198 51.3949 21.6351C50.1613 21.6638 48.9263 21.6406 47.6922 21.6452C47.6927 16.7749 47.6882 11.9036 47.6952 7.0333C48.7344 7.03783 49.7741 7.02927 50.8139 7.03532C51.0424 7.02222 51.2861 7.13954 51.3697 7.36258C51.4518 7.62943 51.4256 7.91391 51.4316 8.19033ZM78.0302 8.20342C79.0175 7.18183 80.4485 6.67935 81.8527 6.67633C83.3365 6.63907 84.857 7.07761 86.0035 8.04029C86.7659 8.6383 87.3158 9.46566 87.5719 10.4002C87.8981 11.5386 87.8689 12.7344 87.8649 13.907C87.8659 16.4869 87.8649 19.0673 87.8659 21.6477C86.6218 21.6457 85.3782 21.6558 84.134 21.6422C84.135 19.0638 84.134 16.4854 84.135 13.906C84.135 12.9478 84.1804 11.9142 83.6708 11.0607C83.3159 10.4485 82.6135 10.1434 81.9363 10.0724C80.6463 9.86595 79.299 10.379 78.4098 11.3195C78.3152 11.4142 78.2341 11.534 78.2447 11.677C78.2326 12.0758 78.293 12.4761 78.2588 12.8753C78.2099 13.4176 78.286 13.9599 78.2683 14.5036C78.2524 15.5288 78.251 16.5542 78.2643 17.5795C78.1938 18.9354 78.3167 20.2958 78.2356 21.6502C76.9965 21.6462 75.7584 21.6492 74.5193 21.6487C74.5188 16.7759 74.5103 11.9041 74.5239 7.03179C75.482 7.03934 76.4422 7.03179 77.3998 7.03481C77.6475 7.0192 77.9184 7.15766 77.9824 7.40941C78.0408 7.6682 78.0231 7.93757 78.0302 8.20342ZM41.688 21.6482C41.6875 16.7759 41.6805 11.9041 41.6906 7.0323C42.9251 7.03532 44.1592 7.03431 45.3933 7.0333C45.4028 11.9051 45.3958 16.7769 45.3968 21.6477C44.1607 21.6477 42.9246 21.6467 41.688 21.6482ZM39.3886 7.0338C38.4103 7.03179 37.432 7.03682 36.4527 7.02826C36.1939 7.02675 35.8636 7.03935 35.7373 7.31123C35.624 7.59067 35.6673 7.90082 35.6572 8.19486C34.8431 7.32835 33.6956 6.81378 32.5184 6.702C30.7008 6.53887 28.8172 7.04287 27.3576 8.14653C26.1553 9.03469 25.2666 10.3191 24.8014 11.7339C24.5773 12.397 24.4651 13.0928 24.3936 13.7882V14.7886C24.4978 16.8826 25.4292 18.954 27.054 20.3039C28.2795 21.3421 29.8544 21.9221 31.45 22.0233H32.2818C33.5466 21.9382 34.7952 21.4151 35.6582 20.4725C35.6663 20.7681 35.6245 21.0813 35.7352 21.3642C35.8505 21.5933 36.1224 21.6563 36.3586 21.6472C37.3681 21.6447 38.3791 21.6482 39.3896 21.6427C39.3896 16.7744 39.3926 11.9041 39.3886 7.0338ZM35.5429 17.0951C34.7877 17.9994 33.608 18.5341 32.4298 18.4968C31.167 18.5064 29.8565 18.0225 29.0383 17.0322C28.2402 16.0866 27.9991 14.7715 28.1803 13.5696C28.3158 12.5969 28.8117 11.6639 29.5951 11.0602C30.3056 10.4994 31.2013 10.2103 32.098 10.1479C33.4338 10.0311 34.842 10.6202 35.6456 11.6987C35.6909 13.2867 35.6466 14.8787 35.6668 16.4693C35.6537 16.6787 35.7116 16.931 35.5429 17.0951ZM72.3865 11.2143C71.8115 9.80805 70.7915 8.58557 69.4985 7.78804C68.1668 6.95929 66.5697 6.58469 65.0083 6.69092C63.7753 6.77199 62.5704 7.29814 61.7145 8.19738C61.7095 5.46794 61.7145 2.74002 61.712 0.0105797C60.4673 0.0110832 59.2217 0.00503545 57.9771 0.0140983C57.9836 7.22311 57.9665 14.4357 57.9861 21.6442C59.0168 21.6467 60.0484 21.6492 61.0796 21.6467C61.3359 21.6668 61.6123 21.5259 61.6828 21.2666C61.7336 21.0027 61.715 20.7303 61.7165 20.463C62.5815 21.4252 63.8523 21.9473 65.1302 22.0243H65.8925C67.9613 21.9206 69.9899 20.9509 71.2884 19.3251C73.107 17.0951 73.462 13.8536 72.3865 11.2143ZM68.0338 17.364C67.2 18.1378 66.046 18.5089 64.9192 18.4978C63.7436 18.525 62.5689 17.9848 61.8242 17.075C61.7321 16.9803 61.7019 16.8524 61.7095 16.7266C61.7105 15.0539 61.712 13.3819 61.7095 11.7103C62.4244 10.7778 63.5689 10.1968 64.7395 10.1368C65.9262 10.1021 67.1713 10.4505 68.0424 11.2873C68.8722 12.0572 69.277 13.2117 69.2508 14.3299C69.2749 15.4467 68.8591 16.5936 68.0338 17.364ZM103.096 9.40576C101.513 7.38977 98.8068 6.37272 96.2838 6.74983C95.23 6.91599 94.2316 7.42149 93.495 8.19687C93.4869 5.46894 93.495 2.74102 93.491 0.0120855C92.2483 0.010575 91.0067 0.00956745 89.7651 0.0130919C89.7641 7.22261 89.7651 14.4342 89.7651 21.6447C90.7444 21.6522 91.7262 21.6432 92.7055 21.6522C92.9628 21.6563 93.2845 21.6356 93.4164 21.3728C93.5307 21.0888 93.4879 20.7721 93.496 20.4736C94.3544 21.4141 95.5976 21.9337 96.8553 22.0253H97.6941C99.7403 21.914 101.741 20.9589 103.037 19.3578C104.095 18.0809 104.666 16.4456 104.761 14.7987V13.8214C104.643 12.2314 104.107 10.6524 103.096 9.40576ZM100.188 16.9441C99.2026 18.2124 97.464 18.6841 95.9218 18.4379C94.9828 18.2506 94.072 17.7436 93.5166 16.9521C93.4547 16.3384 93.5106 15.7176 93.492 15.1008C93.5051 13.9664 93.4638 12.8285 93.5106 11.6962C94.0755 10.9173 94.9798 10.4178 95.9102 10.2114C97.6322 9.89314 99.6341 10.5754 100.505 12.1654C101.297 13.6371 101.218 15.6038 100.188 16.9441Z" fill="#828282"/>
<path d="M20.588 17.3877C20.5809 16.7517 20.4321 16.1237 20.2002 15.5339C20.0212 15.0772 19.8134 14.6326 19.6105 14.1863C17.9957 10.6671 16.3011 7.18514 14.5281 3.743C14.2787 3.26204 14.0346 2.77817 13.7712 2.30465C13.5124 1.84274 13.2111 1.39808 12.8211 1.03654C12.1987 0.443228 11.3637 0.0894926 10.5067 0.0361328H10.1121C9.22983 0.0796918 8.36863 0.449943 7.73557 1.06703C7.35988 1.42294 7.06912 1.8569 6.81721 2.30592C6.5573 2.77164 6.31664 3.24788 6.07198 3.72122C4.88227 6.03063 3.72758 8.35791 2.60832 10.7023C1.94114 12.1052 1.27959 13.5106 0.643265 14.9273C0.37937 15.5175 0.140703 16.1279 0.0508625 16.7722C-0.115569 17.8601 0.123098 19.0019 0.704247 19.9361C1.20518 20.7475 1.95711 21.4015 2.83356 21.7791C3.51871 22.0749 4.26339 22.2067 5.00842 22.1641C6.00356 22.1113 6.96313 21.7537 7.80509 21.2319C8.74433 20.6555 9.54763 19.8889 10.2956 19.0863C10.9911 19.8359 11.7354 20.5511 12.5946 21.1118C13.4244 21.6577 14.3705 22.053 15.3657 22.147C16.4465 22.2599 17.5663 21.992 18.4734 21.3904C19.2757 20.8588 19.897 20.0953 20.2546 19.2017C20.4848 18.6251 20.5982 18.0085 20.588 17.3877ZM10.3001 16.9681C10.0288 16.6486 9.78974 16.3031 9.54963 15.96C9.14562 15.3674 8.77827 14.748 8.48279 14.0935C8.24068 13.5505 8.0463 12.9804 7.97043 12.3884C7.91507 11.9187 7.92832 11.4286 8.10074 10.9827C8.25502 10.5645 8.55158 10.2023 8.92728 9.96286C9.82241 9.38516 11.0983 9.44759 11.9094 10.1483C12.32 10.4981 12.5652 11.0152 12.6269 11.5466C12.7077 12.253 12.547 12.9624 12.3004 13.6213C11.8347 14.8438 11.0974 15.9397 10.3001 16.9681ZM19.0832 18.4663C18.844 19.2919 18.269 20.0132 17.5167 20.4294C16.8499 20.8023 16.0541 20.9301 15.3023 20.8045C14.3449 20.6555 13.4859 20.1475 12.7416 19.5478C12.1946 19.1083 11.702 18.6059 11.2301 18.0881C11.9751 17.1457 12.677 16.1599 13.2131 15.0821C13.681 14.1384 14.0366 13.1158 14.0703 12.0546C14.0894 11.3813 13.9627 10.6956 13.6482 10.0961C13.2363 9.29514 12.4986 8.67987 11.6528 8.38222C10.8627 8.09999 9.98449 8.07476 9.17846 8.30453C8.41836 8.51961 7.72414 8.97643 7.24844 9.60967C6.82973 10.1618 6.59106 10.8406 6.53571 11.529C6.45058 12.5205 6.69905 13.5097 7.07493 14.4211C7.63376 15.7529 8.45393 16.9584 9.35978 18.0766C8.95133 18.5484 8.50808 18.9888 8.03377 19.3943C7.29835 20.0166 6.45694 20.5584 5.50372 20.7646C4.73309 20.9375 3.90166 20.8515 3.19491 20.494C2.36711 20.0814 1.73151 19.3044 1.49176 18.4113C1.30845 17.7552 1.3491 17.0468 1.56708 16.4041C1.74839 15.8724 1.99432 15.3656 2.22446 14.854C3.82198 11.3728 5.49755 7.9279 7.24989 4.52198C7.51124 4.01506 7.76861 3.50579 8.04521 3.00722C8.27099 2.60557 8.53361 2.21118 8.90477 1.92913C9.30609 1.61649 9.80254 1.45101 10.3112 1.46033C10.8339 1.45416 11.3535 1.64673 11.7533 1.98268C12.1483 2.31064 12.4151 2.75929 12.6547 3.2065C13.1962 4.22378 13.7164 5.25286 14.2368 6.28086C15.7218 9.22013 17.1488 12.1884 18.5168 15.1839C18.7235 15.6493 18.9448 16.111 19.084 16.6022C19.254 17.2078 19.2596 17.8619 19.0832 18.4663Z" fill="#828282"/>
</svg>
