<svg width="107" height="33" viewBox="0 0 107 33" fill="none" xmlns="http://www.w3.org/2000/svg">
<path fill-rule="evenodd" clip-rule="evenodd" d="M66.131 25.0524C59.9715 29.6067 51.0123 32.0332 43.285 32.0332C32.4593 32.0332 22.7535 28.0388 15.3621 21.3941C14.8022 20.8715 15.2875 20.1622 15.9967 20.5728C23.948 25.2018 33.7658 27.9642 43.9196 27.9642C50.751 27.9642 58.2917 26.5456 65.2351 23.5966C66.2803 23.1859 67.1389 24.3058 66.131 25.0524Z" fill="#828282"/>
<path fill-rule="evenodd" clip-rule="evenodd" d="M68.712 22.0996C67.9281 21.0917 63.4858 21.6143 61.5073 21.8756C60.91 21.9503 60.798 21.4276 61.358 21.0543C64.9043 18.5532 70.6905 19.2998 71.3624 20.1211C72.0344 20.9423 71.1758 26.7658 67.8534 29.5283C67.3308 29.9389 66.8455 29.7149 67.0695 29.155C67.8161 27.2884 69.4959 23.1448 68.712 22.0996Z" fill="#828282"/>
<path fill-rule="evenodd" clip-rule="evenodd" d="M61.6203 3.50902V1.08257C61.6203 0.709269 61.8816 0.485286 62.2176 0.485286H73.0433C73.3792 0.485286 73.6779 0.746599 73.6779 1.08257V3.13572C73.6779 3.47169 73.3792 3.91965 72.8566 4.66626L67.2571 12.6549C69.3476 12.6176 71.5501 12.9162 73.4166 13.9614C73.8272 14.1854 73.9392 14.5587 73.9765 14.8947V17.4705C73.9765 17.8438 73.6032 18.2544 73.1926 18.0304C69.8702 16.2759 65.4279 16.0892 61.7696 18.0677C61.3963 18.2544 60.9857 17.8811 60.9857 17.5078V15.044C60.9857 14.6707 60.9857 13.9988 61.3963 13.4015L67.8917 4.1063H62.2549C61.9189 4.1063 61.6203 3.84499 61.6203 3.50902ZM22.1624 18.553H18.8774C18.5787 18.5157 18.3174 18.2917 18.2801 17.9931V1.1199C18.2801 0.783931 18.5787 0.522618 18.9147 0.522618H21.9758C22.3117 0.522618 22.5357 0.783929 22.5731 1.08257V3.28504H22.6477C23.4316 1.15723 24.9622 0.149318 26.978 0.149318C29.0311 0.149318 30.3377 1.15723 31.2336 3.28504C32.0176 1.15723 33.8467 0.149318 35.7879 0.149318C37.1691 0.149318 38.6623 0.709269 39.5956 2.01582C40.6408 3.43436 40.4168 5.48752 40.4168 7.31669V17.9931C40.4168 18.329 40.1182 18.5904 39.7822 18.5904H36.5345C36.1985 18.553 35.9372 18.2917 35.9372 17.9931V9.03386C35.9372 8.32459 36.0119 6.53275 35.8626 5.86081C35.6012 4.74091 34.892 4.40494 33.9214 4.40494C33.1375 4.40494 32.2789 4.92757 31.9429 5.78616C31.6069 6.64475 31.6442 8.06328 31.6442 9.03386V17.9931C31.6442 18.329 31.3456 18.5904 31.0096 18.5904H27.7246C27.3886 18.553 27.1273 18.2917 27.1273 17.9931V9.03386C27.1273 7.16736 27.426 4.36761 25.1115 4.36761C22.7597 4.36761 22.8344 7.05537 22.8344 9.03386V17.9931C22.797 18.2917 22.5357 18.553 22.1624 18.553ZM83.0104 0.149318C87.9006 0.149318 90.5511 4.33028 90.5511 9.66848C90.5511 14.82 87.6393 18.9263 83.0104 18.9263C78.2321 18.9263 75.619 14.7454 75.619 9.51916C75.5817 4.25562 78.2321 0.149318 83.0104 0.149318ZM83.0104 3.62101C80.5839 3.62101 80.4346 6.94339 80.4346 8.99654C80.4346 11.0497 80.3973 15.4546 82.9731 15.4546C85.5115 15.4546 85.6608 11.9083 85.6608 9.74314C85.6608 8.3246 85.5862 6.60742 85.1755 5.26354C84.8022 4.06898 84.0556 3.62101 83.0104 3.62101ZM96.8598 18.553H93.5748C93.2388 18.5157 92.9775 18.2544 92.9775 17.9558V1.04524C93.0148 0.746596 93.2762 0.485286 93.6121 0.485286H96.6732C96.9718 0.485286 97.1958 0.709273 97.2705 0.970583V3.54635H97.3451C98.2784 1.23189 99.5476 0.149318 101.825 0.149318C103.281 0.149318 104.736 0.671934 105.67 2.12781C106.528 3.47169 106.528 5.74882 106.528 7.39134V18.0304C106.491 18.329 106.23 18.553 105.894 18.553H102.609C102.31 18.5157 102.049 18.2917 102.011 18.0304V8.84721C102.011 6.98071 102.235 4.29295 99.9582 4.29295C99.1743 4.29295 98.4277 4.81558 98.0544 5.63684C97.6064 6.68208 97.5318 7.68998 97.5318 8.84721V17.9558C97.4944 18.2917 97.1958 18.553 96.8598 18.553ZM52.997 10.4897C52.997 11.759 53.0344 12.8415 52.3998 13.9988C51.8771 14.932 51.0559 15.492 50.1226 15.492C48.8534 15.492 48.1068 14.5214 48.1068 13.1028C48.1068 10.3031 50.6079 9.78046 52.997 9.78046V10.4897ZM56.3194 18.5157C56.0954 18.7024 55.7968 18.7397 55.5355 18.5904C54.4529 17.6944 54.2289 17.2465 53.6316 16.3879C51.8398 18.2171 50.5332 18.777 48.2188 18.777C45.4564 18.777 43.2912 17.0598 43.2912 13.6628C43.2912 10.975 44.7471 9.18318 46.8003 8.28726C48.5921 7.50333 51.0932 7.35402 52.997 7.13004V6.71941C52.997 5.93548 53.0717 5.00223 52.5864 4.33029C52.1758 3.73301 51.4292 3.47169 50.7572 3.47169C49.488 3.47169 48.3681 4.10631 48.1068 5.45019C48.0321 5.74883 47.8455 6.04746 47.5469 6.04746L44.3738 5.71149C44.1125 5.63683 43.8139 5.45019 43.8885 5.03956C44.6351 1.15723 48.1068 0 51.2425 0C52.8477 0 54.9382 0.410628 56.2074 1.64252C57.8126 3.13572 57.6633 5.15155 57.6633 7.31669V12.4309C57.6633 13.9614 58.2979 14.6334 58.8952 15.492C59.1192 15.7906 59.1565 16.1639 58.8952 16.3506C58.1859 16.9105 56.9914 17.9558 56.3194 18.5157ZM9.88084 10.4897C9.88084 11.759 9.91817 12.8415 9.28356 13.9988C8.76094 14.932 7.93967 15.492 7.00642 15.492C5.7372 15.492 4.9906 14.5214 4.9906 13.1028C4.9906 10.3031 7.49172 9.78046 9.88084 9.78046V10.4897ZM13.1659 18.5157C12.9419 18.7024 12.6433 18.7397 12.382 18.5904C11.2994 17.6944 11.0754 17.2465 10.4781 16.3879C8.68627 18.2171 7.37972 18.777 5.06526 18.777C2.30284 18.777 0.137695 17.0598 0.137695 13.6628C0.137695 10.975 1.59356 9.18318 3.64672 8.28726C5.43856 7.50333 7.93967 7.35402 9.84351 7.13004V6.71941C9.84351 5.93548 9.91816 5.00223 9.43287 4.33029C9.02224 3.73301 8.27564 3.47169 7.6037 3.47169C6.33448 3.47169 5.21458 4.10631 4.95327 5.45019C4.87861 5.74883 4.69196 6.04746 4.39332 6.04746L1.22026 5.71149C0.958954 5.63683 0.660318 5.45019 0.734978 5.03956C1.48158 1.15723 4.95327 0 8.089 0C9.69419 0 11.7847 0.410628 13.0539 1.64252C14.6591 3.13572 14.5098 5.15155 14.5098 7.31669V12.4309C14.5098 13.9614 15.1444 14.6334 15.7417 15.492C15.9656 15.7906 16.003 16.1639 15.7417 16.3506C15.0324 16.9105 13.8378 17.9558 13.1659 18.5157Z" fill="#828282"/>
</svg>
