<svg width="125" height="25" viewBox="0 0 125 25" fill="none" xmlns="http://www.w3.org/2000/svg">
<path d="M10.4825 3.78393C9.02716 3.78393 8.59056 4.42428 8.59056 5.85053V8.20821H12.4909L12.1125 12.0503H8.59056V23.6641H3.90431V12.0503H0.760742V8.23731H3.90431V5.93785C3.90431 2.0375 5.4761 0 9.81306 0C10.7154 0 11.6468 0.0582142 12.5491 0.174643V3.78393" fill="#828282"/>
<path d="M12.8094 15.4595C12.8094 11.1516 14.8469 7.8916 19.1547 7.8916C21.4833 7.8916 22.9096 9.08499 23.6081 10.5986V8.24089H28.0906V23.6968H23.579V21.3682C22.9387 22.8527 21.4542 24.0169 19.1256 24.0169C14.8469 24.0169 12.7803 20.7861 12.7803 16.4491L12.8094 15.4595ZM17.4956 16.5073C17.4956 18.8068 18.3397 20.3495 20.5228 20.3495C22.4438 20.3495 23.4044 18.9523 23.4044 16.7402V15.1684C23.4044 12.9562 22.4147 11.5591 20.5228 11.5591C18.3397 11.5591 17.4956 13.0727 17.4956 15.4012V16.5073Z" fill="#828282"/>
<path d="M37.8142 7.8916C39.6189 7.8916 41.3653 8.26999 42.2967 8.93946L41.2489 12.2577C40.2883 11.792 39.2114 11.5591 38.1344 11.5591C35.6021 11.5591 34.496 13.0145 34.496 15.5177V16.42C34.496 18.9232 35.6021 20.3786 38.1344 20.3786C39.2114 20.3786 40.2883 20.1166 41.2489 19.6509L42.2967 22.9691C41.3653 23.6094 39.648 24.0169 37.8142 24.0169C32.313 24.0169 29.8389 21.0771 29.8389 16.3327V15.605C29.8389 10.8605 32.313 7.8916 37.8142 7.8916Z" fill="#828282"/>
<path d="M42.9092 16.5364V15.1684C42.9092 10.7732 45.4124 7.8916 50.5061 7.8916C55.3088 7.8916 57.4336 10.8023 57.4336 15.1102V17.5843H47.5954C47.6827 19.7091 48.6433 20.6405 51.2338 20.6405C52.922 20.6405 54.6102 20.3203 56.2111 19.7091L57.0552 22.9109C55.8327 23.5512 53.3004 24.0461 51.0592 24.0461C45.1213 24.0169 42.9092 21.0771 42.9092 16.5364ZM47.5954 14.4989H53.2422V14.1205C53.2422 12.4323 52.5727 11.0934 50.5061 11.0934C48.4104 11.0934 47.5954 12.4323 47.5954 14.4989Z" fill="#828282"/>
<path d="M74.7795 16.4469C74.7795 20.7547 72.7129 24.0147 68.405 24.0147C66.0765 24.0147 64.4465 22.8504 63.8061 21.366V23.6946H59.3818V0.46707L64.0681 0.0595703V10.3926C64.7375 9.02456 66.2511 7.91849 68.4342 7.91849C72.7129 7.91849 74.8086 11.1494 74.8086 15.4863L74.7795 16.4469ZM70.0933 15.3699C70.0933 13.1869 69.2492 11.5569 67.0079 11.5569C65.0868 11.5569 64.0681 12.9249 64.0681 15.1371V16.7671C64.0681 18.9792 65.1159 20.3472 67.0079 20.3472C69.2492 20.3472 70.0933 18.7172 70.0933 16.5342V15.3699Z" fill="#828282"/>
<path d="M76.3232 16.3327V15.5468C76.3232 11.0934 78.8556 7.8916 84.0075 7.8916C89.1595 7.8916 91.6918 11.0934 91.6918 15.5468V16.3327C91.6918 20.7861 89.1595 23.9878 84.0075 23.9878C78.8556 23.9878 76.3232 20.8152 76.3232 16.3327ZM87.0347 15.2266C87.0347 13.1891 86.1906 11.5591 84.0075 11.5591C81.8245 11.5591 80.9804 13.1891 80.9804 15.2266V16.682C80.9804 18.7194 81.8245 20.3494 84.0075 20.3494C86.1906 20.3494 87.0347 18.7194 87.0347 16.682V15.2266Z" fill="#828282"/>
<path d="M93.292 16.3327V15.5468C93.292 11.0934 95.8243 7.8916 100.976 7.8916C106.128 7.8916 108.661 11.0934 108.661 15.5468V16.3327C108.661 20.7861 106.128 23.9878 100.976 23.9878C95.8243 23.9878 93.292 20.8152 93.292 16.3327ZM104.003 15.2266C104.003 13.1891 103.159 11.5591 100.976 11.5591C98.7932 11.5591 97.9491 13.1891 97.9491 15.2266V16.682C97.9491 18.7194 98.7932 20.3494 100.976 20.3494C103.159 20.3494 104.003 18.7194 104.003 16.682V15.2266Z" fill="#828282"/>
<path d="M115.094 15.6026L119.722 8.20937H124.67L119.838 15.8645L124.874 23.6944H119.896L115.094 16.1265V23.6944H110.437V0.46688L115.094 0.0302734" fill="#828282"/>
</svg>
