<svg width="91" height="30" viewBox="0 0 91 30" fill="none" xmlns="http://www.w3.org/2000/svg">
<path d="M11.2075 0H12.0167C14.8261 0.0610737 17.5897 1.19094 19.5745 3.1911C18.8417 3.93925 18.0935 4.65687 17.3759 5.40502C16.2613 4.3973 14.9177 3.61861 13.4519 3.34378C11.2838 2.88573 8.94773 3.29798 7.13079 4.53472C5.1459 5.83253 3.80228 8.03119 3.51218 10.3825C3.19154 12.7033 3.84808 15.1463 5.35966 16.9479C6.81016 18.7038 9.02408 19.8031 11.3143 19.8795C13.4519 20.0016 15.6811 19.3451 17.2385 17.8488C18.46 16.7953 19.0249 15.1921 19.2081 13.6347C16.6736 13.6347 14.139 13.65 11.6044 13.6347V10.4894H22.2771C22.8267 13.8637 22.0328 17.6656 19.4677 20.078C17.7576 21.788 15.391 22.7957 12.9786 22.9942C10.6425 23.2233 8.23012 22.7805 6.15361 21.6506C3.66486 20.3223 1.67997 18.0778 0.702791 15.4364C-0.213313 13.0087 -0.228582 10.2604 0.626449 7.81743C1.40514 5.58824 2.90144 3.61861 4.82526 2.24446C6.67274 0.885568 8.9172 0.137416 11.2075 0Z" fill="#828282"/>
<path d="M72.4297 0.793945H75.6971V22.5972C74.6131 22.5972 73.5137 22.6125 72.4297 22.582C72.445 15.3295 72.4297 8.06171 72.4297 0.793945V0.793945Z" fill="#828282"/>
<path d="M29.5464 8.35517C31.5618 7.97346 33.7452 8.40097 35.4094 9.60718C36.921 10.676 37.9745 12.3555 38.2952 14.1877C38.7074 16.31 38.1883 18.6308 36.8141 20.3103C35.3331 22.1883 32.9054 23.1961 30.5388 23.0434C28.3707 22.9212 26.2636 21.8372 24.9811 20.066C23.5306 18.1117 23.1794 15.4244 23.9734 13.1342C24.7673 10.676 27.0118 8.79795 29.5464 8.35517V8.35517ZM30.0044 11.2562C29.1799 11.4699 28.4165 11.9432 27.8668 12.6151C26.3858 14.3862 26.4774 17.2719 28.1111 18.9209C29.0425 19.8676 30.4472 20.3103 31.745 20.0508C32.9512 19.837 34.0047 19.0278 34.5849 17.959C35.5926 16.1421 35.3025 13.638 33.7604 12.2181C32.768 11.302 31.3175 10.9203 30.0044 11.2562Z" fill="#828282"/>
<path d="M45.7291 8.35043C48.0346 7.90765 50.5539 8.54892 52.2792 10.1674C55.0886 12.6867 55.394 17.4046 52.9968 20.3056C51.5463 22.1378 49.195 23.1455 46.8742 23.0386C44.6603 22.9776 42.4769 21.8782 41.1638 20.0613C39.6828 18.0611 39.3621 15.3128 40.2019 12.9768C41.0416 10.5949 43.2403 8.77795 45.7291 8.35043V8.35043ZM46.1871 11.2514C45.3626 11.4652 44.5992 11.9385 44.0495 12.5951C42.5838 14.3357 42.6448 17.1756 44.2175 18.8398C45.1489 19.8323 46.5994 20.3209 47.943 20.046C49.1339 19.817 50.2027 19.0231 50.7829 17.9543C51.7753 16.1221 51.4852 13.618 49.9279 12.1981C48.9354 11.282 47.4849 10.9155 46.1871 11.2514Z" fill="#828282"/>
<path d="M59.4576 9.23648C61.2135 8.13715 63.5496 7.83178 65.4429 8.77842C66.0383 9.03799 66.5269 9.48077 67.0002 9.92355C67.0155 9.51131 67.0002 9.08379 67.0155 8.65628C68.0385 8.67154 69.0615 8.65628 70.0997 8.67154V22.1383C70.0845 24.169 69.5653 26.3218 68.0996 27.8029C66.4964 29.4366 64.0382 29.9404 61.8242 29.6045C59.4576 29.2534 57.3964 27.528 56.4803 25.3446C57.3964 24.9019 58.3583 24.5507 59.305 24.1384C59.8393 25.3905 60.9234 26.4592 62.2823 26.7035C63.6412 26.9478 65.2138 26.6119 66.0994 25.4821C67.046 24.3217 67.046 22.7338 67.0002 21.3138C66.2979 22.0009 65.4887 22.6116 64.5115 22.8406C62.3892 23.4361 60.0531 22.7032 58.4194 21.268C56.7704 19.8328 55.7932 17.6188 55.8848 15.4202C55.9306 12.9314 57.3353 10.5343 59.4576 9.23648V9.23648ZM62.6182 11.1908C61.6868 11.3435 60.8165 11.8626 60.2211 12.5803C58.7858 14.2903 58.7858 17.0234 60.2363 18.7029C61.0608 19.6953 62.3892 20.245 63.6717 20.1076C64.8779 19.9854 65.9925 19.222 66.588 18.1685C67.5957 16.3821 67.4277 13.9544 66.0689 12.397C65.2291 11.4351 63.8855 10.9618 62.6182 11.1908V11.1908Z" fill="#828282"/>
<path d="M79.6236 10.0188C81.4558 8.30877 84.2805 7.72857 86.6318 8.62941C88.861 9.46917 90.281 11.5915 90.9986 13.7749C87.6853 15.149 84.3873 16.5079 81.0741 17.8821C81.5322 18.7524 82.2345 19.5463 83.1811 19.867C84.5095 20.3403 86.0974 20.1723 87.212 19.2868C87.6548 18.9509 88.006 18.5081 88.3419 18.0806C89.1816 18.6455 90.0214 19.1952 90.8611 19.7601C89.6702 21.5465 87.67 22.7985 85.5172 22.997C83.1353 23.2871 80.6008 22.371 79.0587 20.5082C76.5241 17.5767 76.7684 12.6603 79.6236 10.0188V10.0188ZM81.2573 12.8435C80.7382 13.5916 80.5244 14.5078 80.5397 15.4086C82.7536 14.4925 84.9675 13.5764 87.1815 12.645C86.815 11.79 85.9295 11.2708 85.0286 11.1334C83.5781 10.8739 82.0665 11.6526 81.2573 12.8435V12.8435Z" fill="#828282"/>
</svg>
