<svg width="90" height="25" viewBox="0 0 90 25" fill="none" xmlns="http://www.w3.org/2000/svg">
<path d="M76.7078 22.6718C77.9507 22.7923 79.1929 22.9217 80.4322 23.0555L83.1683 16.2994L85.7691 23.6787C87.1036 23.8459 88.4375 24.0214 89.7672 24.2047L85.2075 11.2644L89.7686 0.000892415H85.9057L85.8655 0.0562221L83.4016 6.14101L81.2383 0.00178483H77.4242L81.3618 11.1763L76.7081 22.6718H76.7078ZM73.8233 22.4071V0.000892415H70.0106V22.0926C71.2823 22.1908 72.5546 22.2961 73.8233 22.4068V22.4071ZM45.1827 21.1541C46.2119 21.1541 47.24 21.1618 48.2663 21.1702V12.9385H52.8465V9.43312H48.2666V3.51046H53.5416V0.000892415H44.439V21.1571C44.6862 21.1571 44.9346 21.1532 45.1827 21.1541ZM33.3451 21.3683C34.6153 21.3231 35.8867 21.285 37.1599 21.2541V3.51106H40.7236V0.00178483H29.7814V3.51106H33.3457V21.3683H33.3451ZM4.18573 23.7308V10.3818L8.70017 23.1918C10.0885 23.0359 11.4788 22.8893 12.8731 22.7506V0.00118989H9.21479V13.8286L4.34339 0.00118989H0.52832V24.2106H0.551226C1.75985 24.0434 2.97265 23.8846 4.18573 23.7308ZM26.1049 3.51017V0.00118989H17.0014V22.3714C20.0302 22.1099 23.0626 21.8906 26.0975 21.7136V18.2014C24.3377 18.3037 22.5814 18.4215 20.8293 18.5527V12.94H25.4094V9.43253H20.8293V3.51017H26.1049ZM61.0977 18.0336V0H57.2684V21.3811C60.3145 21.4929 63.3487 21.6488 66.3728 21.8451V18.3308C64.6177 18.2175 62.8596 18.119 61.0977 18.0333" fill="#828282"/>
</svg>
