<svg width="108" height="23" viewBox="0 0 108 23" fill="none" xmlns="http://www.w3.org/2000/svg">
<path d="M18.1243 0H22.2111V12.9603C22.2111 19.7791 17.8533 22.1725 11.5313 22.1725C5.23175 22.1725 0.874023 19.7791 0.874023 12.9603V0.519315C0.874023 0.158052 1.05465 0 1.41592 0H5.5027V12.7571C5.5027 16.8439 7.30901 18.5373 11.5313 18.5373C15.7761 18.5373 17.5824 16.8439 17.5824 12.7571V0.519315C17.5824 0.158052 17.763 0 18.1243 0ZM64.3884 3.54489V9.00898H74.7296C74.9102 9.00898 74.9779 9.09929 74.9102 9.27992L73.7813 12.0797C73.6684 12.3281 73.5103 12.441 73.1716 12.441H67.0979C65.111 12.441 64.3884 13.0506 64.3884 14.3828V18.2437H78.3874C78.568 18.2437 78.6357 18.3341 78.568 18.5147L77.3939 21.4274C77.281 21.6757 77.1229 21.7886 76.7843 21.7886H61.4532C60.2791 21.7886 59.8275 21.3822 59.8275 20.5016V1.51279C59.8275 0.451578 60.4146 0 61.9499 0H78.3874C78.568 0 78.6357 0.0903156 78.568 0.248368L77.3939 3.18362C77.281 3.43199 77.1229 3.54489 76.7843 3.54489H64.3884ZM51.4056 15.7601C51.4056 20.1178 48.3349 21.7886 44.0223 21.7886H32.5974C31.4007 21.7886 30.9717 21.3822 30.9717 20.5016V1.51279C30.9717 0.451578 31.5362 0 33.0941 0H42.374C46.4382 0 50.367 0.699946 50.367 5.53183C50.367 7.60909 49.6218 9.37024 47.8381 10.296C50.2992 10.9508 51.4056 13.1635 51.4056 15.7601ZM35.4649 9.07671H42.7127C45.1061 9.07671 45.7834 8.15098 45.7834 6.25435C45.7834 4.35773 45.1061 3.45457 42.7127 3.45457H35.4649V9.07671ZM46.8221 15.3536C46.8221 13.3441 46.1221 12.3507 43.5481 12.3507H38.1969C36.21 12.3507 35.4649 12.9603 35.4649 14.2924V18.3341H43.5481C46.1221 18.3341 46.8221 17.3406 46.8221 15.3536ZM106.882 21.7886H102.727C102.389 21.7886 102.253 21.6532 102.118 21.4274L97.7149 13.4796H93.6733C91.6863 13.4796 90.9412 14.0892 90.9412 15.4214V21.7886H86.9673C86.6061 21.7886 86.4254 21.608 86.4254 21.2693V1.51279C86.4254 0.451578 87.0125 0 88.5479 0H97.8729C103.314 0 106.588 1.42247 106.588 6.70593C106.588 10.7927 104.624 12.3958 102.186 13.028L107.085 21.4048C107.175 21.5403 107.175 21.7886 106.882 21.7886ZM102.005 6.79625C102.005 4.58352 101.395 3.49973 98.5503 3.49973H90.9412V10.0928H98.5503C101.395 10.0928 102.005 9.03156 102.005 6.79625Z" fill="#828282"/>
</svg>
